<?xml version="1.0" encoding="utf-8"?>
<!-- Generator: Adobe Illustrator 23.0.4, SVG Export Plug-In . SVG Version: 6.00 Build 0)  -->
<svg version="1.1" id="accessory-10" xmlns="http://www.w3.org/2000/svg" xmlns:xlink="http://www.w3.org/1999/xlink" x="0px"
	 y="0px" viewBox="0 0 300 300" style="enable-background:new 0 0 300 300;" xml:space="preserve">
<style type="text/css">
	.st0{fill:#26A9E0;}
	.st1{fill:#FFFFFF;fill-opacity:0.2;}
	.st2{fill:none;stroke:#000000;stroke-miterlimit:10;}
	.st3{fill:#FFFFFF;stroke:#000000;stroke-miterlimit:10;}
	.st4{fill:#D0D2D3;}
	.st5{fill-opacity:0.4;}
</style>
<title>accessory</title>
<path id="fill_color" class="st0" d="M122.5,88.5v6c0,0,3,4,13,3c12.5-0.5,16-5,16-5v-6l-2-3c-5-0.6-10-0.6-15,0
	C126.5,84.5,122.5,85.5,122.5,88.5z"/>
<path class="st1" d="M142.5,89.5c0.2-0.1,1.3-0.4,1.5-0.5c-0.6-1.8-4.5-5.6-5.5-5.7c-7-0.4-11.7,1-13.2,2c-1.8,1.2-3.8,2.2,1.2,4.2
	C129.5,90.5,138.5,90.5,142.5,89.5z"/>
<path class="st2" d="M122.5,88.5v6c0,0,2,3,13,3s16-5,16-5v-6l-2-3c-5-0.6-10-0.6-15,0C126.5,84.5,122.5,85.5,122.5,88.5z"/>
<path class="st2" d="M142.5,89.5c4-1,10.8-4.9,3.9-5.9c-6.9-1-19.4,0.6-21.1,1.8s-3.8,2.2,1.2,4.2C129.5,90.5,138.5,90.5,142.5,89.5
	z"/>
<path class="st3" d="M130.5,52.5L128.2,84c0,0,1.3,3.5,7.3,2.5s7.3-3.4,7.3-3.4l-10.3-28.5C132.5,54.5,131.5,51.5,130.5,52.5z"/>
<path class="st4" d="M131.5,55.5l7.1,30.3c0,0,3.7-0.5,3.9-2.3c0.3-2-10-29-10-29S130.5,50.5,131.5,55.5z"/>
<path class="st2" d="M130.5,52.5L128.2,84c0,0,1.3,3.5,7.3,2.5s7.3-3.4,7.3-3.4l-10.3-28.5C132.5,54.5,131.5,51.5,130.5,52.5z"/>
<path class="st5" d="M144.1,88.7v8l7.4-4.3v-6l-2-3C150,85.9,147.8,87.5,144.1,88.7z"/>
</svg>
