<?xml version="1.0" encoding="utf-8"?>
<!-- Generator: Adobe Illustrator 23.0.4, SVG Export Plug-In . SVG Version: 6.00 Build 0)  -->
<svg version="1.1" id="Layer_1" xmlns="http://www.w3.org/2000/svg" xmlns:xlink="http://www.w3.org/1999/xlink" x="0px" y="0px"
	 viewBox="0 0 300 300" style="enable-background:new 0 0 300 300;" xml:space="preserve">
<style type="text/css">
	.st0{fill:#26A9E0;}
	.st1{fill:#FFFFFF;fill-opacity:0.2;}
	.st2{fill-opacity:0.2;}
</style>
<title>accessory</title>
<g id="accessory-08">
	<path d="M161.3,66.4c-0.1,0-0.2,0-0.3,0l-20.1-7.5l-25.1-9L83.6,37.9c-0.4-0.1-0.6-0.6-0.4-1c0.1-0.4,0.6-0.6,1-0.4l32.2,11.9
		l25.1,9l20.2,7.6c0.4,0.1,0.6,0.6,0.4,1C161.9,66.2,161.6,66.4,161.3,66.4z"/>
	<path d="M158.5,67.6c-0.9,0-1.9-0.1-2.5-0.2c-0.2,0-0.4-0.1-0.5-0.1c-1-0.1-11.2-4.1-14.2-5.4l-29-10.7c-1-0.4-25.1-9-27.1-10
		c-1.3-0.6-2-1.2-2.4-1.9c-0.5-0.9-0.5-1.9,0.1-3.1c1-2,3.6-1.8,4.9-1.4l32,12l21.5,7.4l17.6,6.7c0.1,0.1,1.2,0.6,2.1,1.4
		c1.8,1.6,1.7,2.8,1.3,3.7C161.6,67.2,160,67.6,158.5,67.6z M85.9,36c-0.7,0-1.4,0.2-1.7,0.8c-0.5,0.9-0.3,1.4-0.2,1.7
		c0.3,0.4,0.8,0.8,1.8,1.3c1.6,0.8,18.3,6.9,26.9,10l29.1,10.7c4.9,2,13,5.1,13.9,5.3c0.1,0,0.3,0,0.5,0.1c1.1,0.2,4.1,0.6,4.7-0.7
		c0.5-1-1.6-2.4-2.7-3l-17.5-6.6l-21.5-7.4l-32-12l0,0C87.2,36.2,86.6,36,85.9,36z"/>
	<g id="fill_color">
		<path class="st0" d="M128.5,86.5c-0.5,0.5-0.9,1.2-1,2v3c0,0,3,3,9,3s12-4,12-4v-5c0,0-1-1-6-1S131.5,84.5,128.5,86.5z"/>
		<path class="st0" d="M173.5,21.5l-35,17c0,0-0.6,2.4,0.2,3.7l0.8,1.3l37-18C176.5,25.5,179.1,20.3,173.5,21.5z"/>
		<path class="st0" d="M96.5,58.5c0,0-2,2-1,3s3,0,3,0l33.7-15.9c-0.5-1-0.7-2-0.7-3.1L96.5,58.5z"/>
		<path class="st0" d="M134.5,47.5l-1,37c0.9,1.4,2.4,2.1,4,2c1.9,0,3.6-0.7,5-2l-2-40C140.5,44.5,135.5,44.5,134.5,47.5z"/>
		<path class="st0" d="M136.5,38.5l-4,2c-0.4,0.4-0.7,1-0.8,1.5c-0.1,0.5-0.2,1-0.2,1.5c0,2,2,4,3,4c0,0-0.2-0.5,1.4-1.8
			c1.3-0.8,2.8-1.2,4.3-1.2h0.3c0,0-2-2-2-3v-3L136.5,38.5z"/>
	</g>
	<path d="M137.1,87c-1.6,0-3.2-0.8-4.1-2.2c-0.1-0.1-0.1-0.2-0.1-0.3l1-37c0,0,0-0.1,0-0.1c1.1-3.3,6.3-3.3,6.5-3.3
		c0.3,0,0.5,0.2,0.5,0.5l2,40c0,0.1-0.1,0.3-0.2,0.4c-1.5,1.3-3.4,2.1-5.3,2.1C137.4,87,137.3,87,137.1,87z M134,84.4
		c0.8,1.1,2.1,1.8,3.5,1.6c1.7,0,3.3-0.6,4.5-1.7L140,45c-1.2,0.1-4.3,0.5-5,2.6L134,84.4z"/>
	<g>
		<path class="st1" d="M128.5,87.5c0,0,0,2,6,2s11-1,13-3c0.5-0.6,0.5-1.8-2.2-1.9c-1,0-3.1,0-3.1,0c-1.1,1-2.6,1.7-4.1,1.8
			c-3.5,0.1-4.3-1.6-4.3-1.6S128.5,85.5,128.5,87.5z"/>
		<path d="M134.5,89.9c-6.2,0-6.4-2.1-6.4-2.4c0-2.3,5-3,5.5-3c0.2,0,0.3,0.1,0.4,0.2c0,0.1,0.8,1.5,4,1.4c1.4-0.1,2.8-0.7,3.9-1.7
			c0.1-0.1,0.2-0.1,0.3-0.1h3.1c1.5,0.1,2.5,0.5,2.8,1.2c0.2,0.4,0.1,0.9-0.2,1.3C145.8,88.7,141,89.9,134.5,89.9z M128.9,87.5
			c0,0.1,0.3,1.6,5.6,1.6c6.2,0,10.9-1.1,12.7-2.9c0.1-0.1,0.2-0.3,0.1-0.5c-0.1-0.1-0.4-0.6-2.1-0.7l-3,0c-1.2,1-2.7,1.7-4.2,1.8
			c-2.9,0.1-4.1-1.1-4.5-1.6C131.6,85.5,128.9,86.3,128.9,87.5z"/>
	</g>
	<path d="M136.5,95c-6.1,0-9.2-3-9.4-3.1c-0.1-0.1-0.1-0.2-0.1-0.4v-3c0.1-0.9,0.5-1.7,1.1-2.4c0,0,0,0,0.1-0.1
		c1.6-1,3.4-1.6,5.2-1.8c0.2,0,0.5,0.1,0.5,0.4c0.4,1.3,2.6,1.3,4.1,1.3c1.6-0.1,3.1-0.7,4.2-1.9c0.1-0.1,0.2-0.1,0.3-0.1
		c5,0,6,1,6.2,1.2c0.1,0.1,0.1,0.2,0.1,0.3v5c0,0.2-0.1,0.3-0.2,0.4C148.5,91.1,142.6,95,136.5,95z M128,91.3
		c0.7,0.6,3.5,2.7,8.5,2.7c5.1,0,10.4-3.1,11.5-3.8v-4.5c-0.3-0.2-1.6-0.7-5.1-0.7c-1.3,1.2-3,1.9-4.7,2c-1.6,0-4.2,0-5-1.7
		c-1.5,0.2-3,0.7-4.3,1.6c-0.4,0.5-0.7,1-0.8,1.7L128,91.3z"/>
	<g>
		<path class="st1" d="M173.5,21.5l-35,17c0,0-0.6,2.4,0.2,3.7l0.8,1.3l37-18C177.5,25.5,179.5,20.5,173.5,21.5z"/>
		<path d="M139.5,44c-0.2,0-0.3-0.1-0.4-0.2l-0.8-1.3c-0.9-1.5-0.3-4-0.3-4.1c0-0.1,0.1-0.3,0.3-0.3l35-17c0,0,0.1,0,0.1,0
			c2.1-0.3,3.6,0,4.3,1c0.7,1,0.4,2.2,0,3c-0.3,0.6-0.7,0.9-1.1,1l-36.9,18C139.6,44,139.6,44,139.5,44z M138.9,38.8
			c-0.1,0.8-0.3,2.3,0.2,3.1l0.5,0.9l36.6-17.8c0.1,0,0.2,0,0.2-0.1c0.2-0.1,0.8-1.1,0.6-2c-0.3-1.3-2.3-1.2-3.4-1L138.9,38.8z"/>
	</g>
	<path d="M136.5,94.9c-6.1,0-9.1-3-9.3-3.1c-0.1-0.1-0.1-0.2-0.1-0.3v-3c0.1-0.9,0.5-1.7,1.1-2.3l0,0c1.1-1.1,5.2-1.7,5.6-1.8
		c0.2,0,0.4,0.1,0.4,0.2c0,0,0.6,1.4,4,1.2c1.5,0,2.9-0.6,3.9-1.7c0.1-0.1,0.2-0.1,0.3-0.1c4.4-0.2,5.6,0.4,6.3,1.1
		c0.1,0.1,0.1,0.2,0.1,0.3v5c0,0.1-0.1,0.2-0.2,0.3C148.5,91,142.5,94.9,136.5,94.9z M127.9,91.3c0.6,0.5,3.5,2.8,8.6,2.8
		c5.3,0,10.6-3.2,11.6-3.8v-4.6c-0.5-0.5-1.7-0.9-5.5-0.8c-1.2,1.1-2.7,1.8-4.3,1.8c-3.1,0.2-4.3-0.9-4.6-1.4
		c-1.3,0.2-4.3,0.8-5,1.5c0,0,0,0,0,0c-0.5,0.5-0.8,1.1-0.9,1.8L127.9,91.3z M128.5,86.5L128.5,86.5L128.5,86.5z"/>
	<path d="M134.5,48c-1.3,0-3.5-2.2-3.5-4.5c0-0.5,0.1-1.1,0.2-1.6c0.2-0.6,0.5-1.2,0.9-1.7c0,0,0.1-0.1,0.2-0.1l4-2
		c0.1,0,0.1-0.1,0.2-0.1l2,0c0.3,0,0.5,0.2,0.5,0.5v3c0,0.5,1,1.8,1.9,2.6c0.1,0.1,0.2,0.4,0.1,0.5c-0.1,0.2-0.3,0.3-0.5,0.3h-0.3
		c-1.4,0-2.8,0.4-4.1,1.1c-1,0.8-1.2,1.2-1.2,1.3c0,0.1,0,0.2-0.1,0.3C134.8,47.9,134.7,48,134.5,48z M135,47.4
		C135,47.4,135,47.4,135,47.4C135,47.4,135,47.4,135,47.4z M135,47.4C135,47.4,135,47.4,135,47.4C135,47.4,135,47.4,135,47.4z
		 M135,47.4C135,47.4,135,47.4,135,47.4C135,47.4,135,47.4,135,47.4z M132.8,40.9c-0.3,0.4-0.5,0.8-0.6,1.3
		c-0.1,0.4-0.2,0.9-0.2,1.3c0,1.5,1.3,3,2.1,3.4c0.2-0.4,0.6-0.9,1.5-1.6c1.2-0.7,2.5-1.2,3.8-1.3c-0.6-0.7-1.4-1.8-1.4-2.5V39
		l-1.4,0L132.8,40.9z"/>
	<g>
		<path class="st1" d="M96.5,58.5c0,0-2,2-1,3s3,0,3,0l33.8-15.6c-0.5-1.1-0.8-2.2-0.8-3.4L96.5,58.5z"/>
		<path d="M96.7,62.4c-0.6,0-1.1-0.1-1.6-0.6c-1.3-1.3,0.8-3.5,1-3.7c0,0,0.1-0.1,0.1-0.1l35-16c0.2-0.1,0.3-0.1,0.5,0
			c0.1,0.1,0.2,0.3,0.2,0.4c0,1.1,0.3,2.2,0.7,3.2c0.1,0.1,0.1,0.3,0,0.4s-0.1,0.2-0.3,0.3L98.7,62C98.7,62,97.7,62.4,96.7,62.4z
			 M96.8,58.9c-0.5,0.6-1.4,1.8-0.9,2.2c0.6,0.6,2,0.1,2.4-0.1l33.4-15.4c-0.3-0.8-0.5-1.6-0.6-2.4L96.8,58.9z"/>
	</g>
	<path d="M137.5,5.5c0,0-2,0,1,2s32,15,32,15l2-1l-33-15L137.5,5.5z"/>
	<path d="M56.7,44c0.2,0.6,0.6,1,1.2,1.2l38.4,13.6l1.9-1.2L58.8,44.1C58.8,44.1,56.4,43,56.7,44z"/>
	<g>
		<circle class="st2" cx="175.5" cy="23.5" r="2"/>
		<path d="M175.5,26c-1.4,0-2.5-1.1-2.5-2.5s1.1-2.5,2.5-2.5s2.5,1.1,2.5,2.5S176.9,26,175.5,26z M175.5,22c-0.8,0-1.5,0.7-1.5,1.5
			s0.7,1.5,1.5,1.5s1.5-0.7,1.5-1.5S176.3,22,175.5,22z"/>
	</g>
	<path d="M114.5,17.5c0,0-2,0,1,2s32,15,32,15l2-1l-33-15L114.5,17.5z"/>
	<path d="M102,26.5c0,0-2,0.1,1.1,1.9S133,40.2,133,40.2l1.9-0.8l-30.8-12L102,26.5z"/>
	<path d="M177.5,24.2L212,41c1,1,0.4,1.4-2,1l-33.5-16.5C176.5,25.5,177,25.4,177.5,24.2z"/>
	<path d="M155,35.4l35.5,14.3c0,0,1.5,1.2-1.9,1.1L154,36.8L155,35.4z"/>
	<polygon points="102.9,59 134.3,68.7 133.6,70 101,60 	"/>
	<path d="M142,42.5l35.6,13c2.4,0.9,0.5,2.5-2,1.2l-35.5-13L142,42.5z"/>
	<path class="st2" d="M136,38.8c-0.4,0.9-0.6,1.8-0.5,2.8c0,2,2.2,3.4,2.2,3.4l1.8,40.8l4.5,2.6v4l4.5-1.9v-5c-2-0.5-4-0.8-6-1
		l-2-40c-1.1-0.6-1.9-1.7-2-3v-3L136,38.8z"/>
</g>
</svg>
