<?xml version="1.0" encoding="utf-8"?>
<!-- Generator: Adobe Illustrator 23.0.4, SVG Export Plug-In . SVG Version: 6.00 Build 0)  -->
<svg version="1.1" id="Layer_1" xmlns="http://www.w3.org/2000/svg" xmlns:xlink="http://www.w3.org/1999/xlink" x="0px" y="0px"
	 viewBox="0 0 300 300" style="enable-background:new 0 0 300 300;" xml:space="preserve">
<style type="text/css">
	.st0{fill:#BE1E2D;}
	.st1{fill:#561317;}
	.st2{fill:#ED293B;}
	.st3{fill:#26A9E0;}
	.st4{fill:#FFFFFF;fill-opacity:0.2;stroke:#000000;stroke-width:0.75;stroke-linecap:round;stroke-linejoin:round;}
	.st5{fill:none;stroke:#000000;stroke-linecap:round;stroke-linejoin:round;}
	.st6{fill:none;stroke:#000000;stroke-width:0.75;stroke-miterlimit:10;}
	.st7{fill-opacity:0.2;}
	.st8{fill:#E6E7E8;stroke:#000000;stroke-miterlimit:10;}
	.st9{fill:#D0D2D3;}
	.st10{fill:none;stroke:#000000;stroke-miterlimit:10;}
</style>
<title>accessory</title>
<g id="accessory-03">
	<g>
		<ellipse class="st0" cx="133" cy="26" rx="7.5" ry="6.5"/>
		<path class="st1" d="M140,25c0.2,0.7-5.5,8.1-11.6,6.3c2.4,1.4,5.3,1.6,7.9,0.5C141,30,140,25,140,25z"/>
		<path d="M133,33c-4.4,0-8-3.1-8-7s3.6-7,8-7s8,3.1,8,7S137.4,33,133,33z M133,20c-3.9,0-7,2.7-7,6s3.1,6,7,6s7-2.7,7-6
			S136.9,20,133,20z"/>
	</g>
	<ellipse transform="matrix(0.867 -0.4983 0.4983 0.867 5.9161 68.205)" class="st2" cx="130.7" cy="23" rx="4.5" ry="2.2"/>
	<path id="fill_color" class="st3" d="M122.5,94.5c0,0,4,3,13,3s16-6,16-6c0-2.4-0.4-4.7-1-7c-1-3-10.5-2.9-15.7-1.9
		s-11.3,0.9-12.3,3.9L122.5,94.5z"/>
	<path class="st4" d="M135.5,82.5c0,0-13,1-13,4s9,4,13,4s15-2,15-6S135.5,82.5,135.5,82.5z"/>
	<path class="st5" d="M122.5,94.5c0,0,4,3,13,3s16-6,16-6c0-2.4-0.4-4.7-1-7c-1-3-10.5-2.9-15.7-1.9s-11.3,0.9-12.3,3.9L122.5,94.5z
		"/>
	<ellipse class="st6" cx="133" cy="26" rx="7.5" ry="6.5"/>
	<path class="st7" d="M148.2,93.8c0.3-1.3-0.7-6.3-0.7-6.3s-7.4-2.6-8.2-2.3s1.9-0.8,2-1.8s0.2-1.4,0.2-1.4s3.1,0,5.5,0.2
		s3.4,1.5,3.4,2.3l0.6,2.6l0.4,4.3l-3,2"/>
	<path class="st8" d="M133,29.2c0,0-7.5,13.2-6.5,28.9c0.5,8.9,1.5,17.7,3,26.4c0,0,0,2,4,2c2.5,0,4.9-0.7,7-2c0.5-0.5,0.9-1.2,1-2
		c0-1-11-18.6-8-48.9C133.5,33.6,134.5,27.8,133,29.2z"/>
	<path class="st9" d="M130.5,46.5c0.1,6.1,0.8,12.1,2,18c1.6,6.5,3.6,12.8,6,19l0.5,1.8c0,0,2.5-0.8,2.5-2.8c0,0-6.4-14.4-7.2-22.7
		s-1.8-20.3-0.8-26.3c0,0-0.1-3.3,0.2-2.9S130,38,130.5,46.5z"/>
	<path class="st10" d="M133,29.2c0,0-7.5,13.2-6.5,28.9c0.5,8.9,1.5,17.7,3,26.4c0,0,0,2,4,2c2.5,0,4.9-0.7,7-2c0.5-0.5,0.9-1.2,1-2
		c0-1-11-18.6-8-48.9C133.5,33.6,134.5,27.8,133,29.2z"/>
	<path class="st5" d="M126,46c0,0-9,1-9,6s10,5,13,5s12-1,12-6s-8-5-8-5"/>
</g>
</svg>
