<?xml version="1.0" encoding="utf-8"?>
<!-- Generator: Adobe Illustrator 23.0.4, SVG Export Plug-In . SVG Version: 6.00 Build 0)  -->
<svg version="1.1" id="Layer_1" xmlns="http://www.w3.org/2000/svg" xmlns:xlink="http://www.w3.org/1999/xlink" x="0px" y="0px"
	 viewBox="0 0 300 300" style="enable-background:new 0 0 300 300;" xml:space="preserve">
<style type="text/css">
	.st0{fill:#26A9E0;}
	.st1{fill-opacity:0.2;}
	.st2{fill:#FFFFFF;fill-opacity:0.2;}
	.st3{fill:#EC1C24;}
</style>
<title>accessory</title>
<g id="accessory-07">
	<path id="fill_color" class="st0" d="M131,59c0,0-13,1-14,6c-0.3,0.9-0.1,1.8,0.5,2.5c1,1,3,5,4,8s2,5,0,5s-8,2-10,4s-1,5-1,5l1,9
		c5.4,3.4,11.6,5.1,18,5c16.5,0.5,34-9,35-10s-1-11-1-11c0.2-0.2-2.8-5.2-4-5c-1,0.1-12,0-12,0s0-15-1-16S141.5,58.5,131,59z"/>
	<path class="st1" d="M151.5,88.5c0,0,1.1,9.5,0.6,10.8c0,0,12.4-4.8,12.4-5.8s0-9-1-11c-1.1-1.8-2.5-3.5-4-5c0,0,1.6,1.4-0.2,3.7
		s-5.4,6.3-8.1,6.3L151.5,88.5z"/>
	<path class="st2" d="M121.5,80.5c0,0-7.3,1.2-8.7,3.1s0.2,5.7,3.9,6.3s12.3,2.1,27-0.6l7.4-1.8l-10.7-4
		C134.5,80.9,128,79.9,121.5,80.5z"/>
	<g>
		<path class="st3" d="M121.5,75.5c0,0,0,2,6,3s13-2,16-4s3.3-3.4,3.3-3.4l0.7,6.4c-1.5,3.2-4.5,5.5-8,6c-13,3-16.9-3.6-16.9-3.6
			L121.5,75.5z"/>
		<path d="M133.1,84.7c-8,0-10.7-4.3-10.8-4.6l0-0.1l-1-4.1c-0.1-0.2-0.1-0.3-0.1-0.4l-0.3-2.2l1.1,2.3c0.2,0.4,1.1,1.7,5.6,2.5
			c5.8,1,12.6-1.8,15.7-3.9c2.8-1.9,3.2-3.2,3.2-3.2l0.5-2l0.9,8.5l0,0.1c-1.6,3.3-4.7,5.6-8.3,6.2C137.1,84.4,135,84.7,133.1,84.7z
			 M122.9,79.8c0.4,0.5,4.5,6.1,16.5,3.4c3.4-0.5,6.2-2.7,7.7-5.7l-0.5-5.1c-0.5,0.6-1.4,1.5-2.9,2.5c-3.3,2.2-10.3,5.1-16.3,4.1
			c-2.7-0.5-4.3-1.1-5.2-1.7L122.9,79.8z"/>
	</g>
	<path class="st1" d="M137,67l3.9,16.2c0,0,6.5-3.3,6.3-6.2c-0.2-3.1-0.1-13.7-0.1-13.7S145.1,67,137,67z"/>
	<path class="st2" d="M136.2,59l0.8,8c0,0-18,2-20-2S130.4,58,136.2,59z"/>
	<path d="M130.8,104c-5.7-0.1-11.3-1.2-16.6-3.4c-1.1-0.3-2.1-0.9-3-1.7c-0.1-0.1-0.1-0.2-0.2-0.3l-1.2-10c-0.2-2.4,1-4.7,3.1-5.8
		c0.2-0.1,0.5-0.1,0.6,0.1c0.2,0.2,0.2,0.4,0,0.6c0,0.1-1,1.5-0.2,3c1,1.8,5.3,4.6,23,3.3c13.7-0.9,19.3-4.5,21.6-7.4
		c2-2.4,1.7-4.4,1.7-4.5c0-0.2,0.1-0.4,0.3-0.5c0.2-0.1,0.5,0,0.6,0.2l3.4,4.6c0,0.1,0.1,0.1,0.1,0.2c0.6,3.1,1.9,10.4,0.9,11.5
		C163.7,95,146.7,104,130.8,104z M112,98.3c0.7,0.6,1.6,1.1,2.5,1.4c5.2,2.1,10.7,3.2,16.3,3.3c15.3,0,32.3-8.8,33.3-9.9
		c0.5-0.7-0.2-5.9-1.1-10.4l-2.5-3.4c-0.2,1-0.7,2.3-1.9,3.8c-2.4,3-8.3,6.8-22.3,7.7c-13.9,1-21.9-0.2-23.9-3.8
		c-0.5-0.8-0.5-1.6-0.4-2.3c-0.9,1-1.4,2.4-1.3,3.8L112,98.3z"/>
	<path d="M128.5,68.1c-4,0-9.6-0.4-11.3-2.2c-0.4-0.5-0.6-1.1-0.5-1.7c0.8-4.5,14.2-5.6,15.7-5.7c1.4,0,13.5-0.3,14.5,3.9
		c0.2,0.6,0,1.2-0.4,1.7c-2.2,3-12.9,3.8-14.1,3.9h0C132.1,68,130.5,68.1,128.5,68.1z M133.8,59.4c-0.5,0-0.9,0-1.3,0
		c-3.9,0.3-14.2,1.7-14.8,4.9c-0.1,0.3,0,0.6,0.3,0.9c1.9,2.1,11.1,2,14.4,1.8c3.2-0.2,11.7-1.2,13.3-3.5c0.2-0.3,0.3-0.6,0.2-0.9
		C145.4,60,137.8,59.4,133.8,59.4z"/>
	<path d="M129.5,104c-12,0-18.1-4.9-18.3-5.1l-0.2-0.1l-1-9.2c-0.1-0.5-0.9-3.4,1.1-5.5c2.1-2.1,8.1-4.1,10.4-4.1
		c0.2,0,0.5,0,0.6-0.2c0.3-0.4-0.2-1.7-0.7-3c-0.1-0.4-0.3-0.7-0.4-1.1c-1.1-3.2-3-6.9-3.9-7.8c-0.7-0.9-1-2-0.6-3
		c1-5.3,13.9-6.3,14.4-6.3l0,0c12-0.6,15.3,2.1,15.9,2.6c1,1,1.1,11,1.1,15.8c2.8-0.2,11.5,0,11.6,0.1c1.1,0.2,3.4,3.7,4.3,5.2
		l0.1,0.2c0.6,3.1,1.9,10.4,0.9,11.5C163.5,95.2,147.1,104,129.5,104z M112,98.2c1,0.7,6.9,4.8,17.5,4.8c18.2,0,33.9-9.1,34.6-9.9
		c0.5-0.7-0.2-5.9-1.1-10.5c-1.4-2.2-3.1-4.5-3.6-4.7c-0.8-0.2-10.9-0.2-11.7,0l-0.1-0.5l-0.4-0.1c0-7.1-0.4-14.8-1-15.6
		c-0.3-0.3-3.3-2.9-15.1-2.3c-3.5,0.3-12.8,1.8-13.5,5.6c-0.2,0.8-0.1,1.5,0.4,2.1c1,1,3.1,5.1,4.1,8.2c0.1,0.4,0.3,0.8,0.4,1.1
		c0.7,1.9,1.1,3.2,0.5,4c-0.3,0.4-0.7,0.6-1.4,0.6c-1.8,0-7.7,1.9-9.6,3.9c-1.8,1.8-0.9,4.5-0.9,4.5l0,0.1L112,98.2z"/>
</g>
</svg>
