<?xml version="1.0" encoding="utf-8"?>
<!-- Generator: Adobe Illustrator 23.0.4, SVG Export Plug-In . SVG Version: 6.00 Build 0)  -->
<svg version="1.1" id="Layer_1" xmlns="http://www.w3.org/2000/svg" xmlns:xlink="http://www.w3.org/1999/xlink" x="0px" y="0px"
	 viewBox="0 0 300 300" style="enable-background:new 0 0 300 300;" xml:space="preserve">
<style type="text/css">
	.st0{fill:#26A9E0;}
	.st1{fill:#FFFFFF;fill-opacity:0.2;}
	.st2{fill:#FFFFFF;fill-opacity:0.2;stroke:#000000;stroke-width:0.75;stroke-linecap:round;stroke-linejoin:round;}
	.st3{fill:none;stroke:#000000;stroke-linecap:round;stroke-linejoin:round;}
	.st4{fill:#EC1C24;stroke:#000000;stroke-linecap:round;stroke-linejoin:round;}
	.st5{fill-opacity:0.1;}
	.st6{fill-opacity:0.2;}
	.st7{fill:#FFFFFF;fill-opacity:0.4;}
</style>
<title>accessory</title>
<g id="accessory-04">
	<path id="fill_color" class="st0" d="M136.5,83.5c-3.4,0.3-11,2-13,4c-0.7,0.8-1.1,1.9-1,3v5c3.8,2.6,8.4,3.7,13,3c8-1,16-6,16-6
		s0-6-1-7s-1-2-5-2S138.7,83.3,136.5,83.5z"/>
	<path class="st1" d="M125.7,86.2c0,0-2.2,1.3-1.2,3.3s7,3,12,2c2.9-0.6,5.8-1.4,8.6-2.5c-1.1-2-8.4-5.9-8.4-5.9
		S129.5,84.1,125.7,86.2z"/>
	<path class="st2" d="M125.7,86.2c0,0-2.2,1.3-1.2,3.3s7,3,12,2c3.8-0.9,7.5-2.3,11-4c0,0,3.6-2.1,1.3-3.5S131.9,82.8,125.7,86.2z"
		/>
	<path class="st3" d="M136.5,83.5c-3.4,0.3-11,2-13,4c-0.7,0.8-1.1,1.9-1,3v5c3.8,2.6,8.4,3.7,13,3c8-1,16-6,16-6s0-6-1-7s-1-2-5-2
		S138.7,83.3,136.5,83.5z"/>
	<path class="st4" d="M134.5,73.5c0,0-5,1-5,6s1,7,1,7c2.6,0.6,5.4,0.6,8,0c4-1,5-3,5-3S142.5,73.5,134.5,73.5z"/>
	<path class="st5" d="M139.5,75.5c0,0,2,3,1,6s-6,5-6,5s4.9,1.7,9-3C143.7,83.3,142.2,77.6,139.5,75.5z"/>
	<path class="st3" d="M134.5,73.5c0,0-5,1-5,6s1,7,1,7c2.6,0.6,5.4,0.6,8,0c4-1,5-3,5-3S142.5,73.5,134.5,73.5z"/>
	<path class="st6" d="M144.5,88.5c1,1,0,7.3,0,7.3l7-3.3c0,0,0-6.1-1.5-7.6C148,88,147,88,144.5,88.5z"/>
	<path class="st7" d="M133.5,75.5c0.6,0,1,0.4,1,1c0,1,0,6-2,6s-2.5,0-2-4C131.1,74.4,133.5,75.5,133.5,75.5z"/>
</g>
</svg>
