<?xml version="1.0" encoding="utf-8"?>
<!-- Generator: Adobe Illustrator 23.0.4, SVG Export Plug-In . SVG Version: 6.00 Build 0)  -->
<svg version="1.1" id="Layer_1" xmlns="http://www.w3.org/2000/svg" xmlns:xlink="http://www.w3.org/1999/xlink" x="0px" y="0px"
	 viewBox="0 0 300 300" style="enable-background:new 0 0 300 300;" xml:space="preserve">
<style type="text/css">
	.st0{fill:#26A9E0;}
	.st1{fill:none;stroke:#000000;stroke-linecap:round;stroke-linejoin:round;}
	.st2{fill:none;stroke:#000000;stroke-width:0.75;stroke-linecap:round;stroke-linejoin:round;}
	.st3{fill:#FFFFFF;fill-opacity:0.4;}
	.st4{fill:#EC1C24;stroke:#000000;stroke-width:0.75;stroke-miterlimit:10;}
	.st5{fill:#FFFFFF;fill-opacity:0.2;}
	.st6{fill-opacity:0.2;}
</style>
<title>accessory</title>
<g id="accessory_05">
	<path id="fill_color" class="st0" d="M139.5,51.5c0,0-24-2-32,33c0,0-6,25,20,25s32-17,34-32S149.5,51.5,139.5,51.5z"/>
	<path class="st1" d="M139.5,51.5c-15.9,0.1-26.8,10.6-32,33c0,0-5,26,20,25s34-18,34-32C161.5,60.5,149.5,51.5,139.5,51.5z"/>
	<path class="st2" d="M143.5,53.5c0,0,14,7,10,29s-26,25-33,24s-18-7-10.3-30.8C114.5,59.5,130.5,47.5,143.5,53.5z"/>
	<path class="st3" d="M121.5,63.5c-3,1.9-8,6-9,11s-1,14,0,16s4,1,4-2s0-17,5-21S123.4,62.3,121.5,63.5z"/>
	<path class="st3" d="M128.5,57.5c0,0-6,4-3,5s6-3,6-3S133.5,56.5,128.5,57.5z"/>
	<path class="st4" d="M125.5,71.5c0,0-7-2-10,1c-1.9,2.1,0,8,5,10s8-1,9-4S127.5,71.5,125.5,71.5z"/>
	<polygon class="st5" points="131,79 135,81 134.6,78.7 130.4,76.6 130.1,78.6 	"/>
	<path class="st2" d="M130.1,76.5l4.5,2c0,0,0.9,2,0,3c-0.7,0.6-1.7,1-2.7,1l-2.9-1.7C130,79.6,130.4,78,130.1,76.5z"/>
	<ellipse class="st3" cx="120" cy="75.5" rx="2.5" ry="2"/>
	<path class="st6" d="M123.5,71.5c0,0,5,2,4,6s-6.5,4.8-8.2,4.4s7.5,3.3,9.9-2.5C131.5,73.5,126.2,71.3,123.5,71.5z"/>
</g>
</svg>
