<?xml version="1.0" encoding="utf-8"?>
<!-- Generator: Adobe Illustrator 23.0.4, SVG Export Plug-In . SVG Version: 6.00 Build 0)  -->
<svg version="1.1" id="Layer_1" xmlns="http://www.w3.org/2000/svg" xmlns:xlink="http://www.w3.org/1999/xlink" x="0px" y="0px"
	 viewBox="0 0 300 300" style="enable-background:new 0 0 300 300;" xml:space="preserve">
<style type="text/css">
	.st0{fill:#26A9E0;}
	.st1{fill:#FFFFFF;fill-opacity:0.2;}
	.st2{fill:#FFFFFF;fill-opacity:0.2;stroke:#000000;stroke-miterlimit:10;}
	.st3{fill:none;stroke:#000000;stroke-miterlimit:10;}
	.st4{fill:#716558;stroke:#000000;stroke-miterlimit:10;}
	.st5{fill:#9A8479;stroke:#000000;stroke-miterlimit:10;}
	.st6{fill:#C1B49A;stroke:#000000;stroke-miterlimit:10;}
	.st7{fill-opacity:0.2;}
</style>
<title>accessory</title>
<g id="accessory-09">
	<path id="fill_color" class="st0" d="M135,83c0,0-13,2-13,5c0,2.2,0.2,4.3,0.5,6.5c0,0,4,4,13,3c5.7-0.8,11.2-2.8,16-6v-5l-3-4
		C148.5,82.5,143.5,81.5,135,83z"/>
	<path class="st1" d="M123.5,88.5c0,0,2,3,10,2c4.1-0.4,8-1.3,11.9-2.8c-0.4,0.2-4.1-2.4-4.1-2.4s1.4-3.1,2-3.2
		c-4.2,0.3-8.4,0.9-12.6,1.7C127.5,84.5,122.5,85.5,123.5,88.5z"/>
	<path class="st2" d="M123.5,88.5c0,0,2,3,10,2s14-3,15-5s1.2-2.4-1.4-3.2s-13.2,0.9-16.4,1.5S122.5,85.5,123.5,88.5z"/>
	<path class="st3" d="M135,83c0,0-13,2-13,5c0,2.2,0.2,4.3,0.5,6.5c0,0,4,4,13,3c5.7-0.8,11.2-2.8,16-6v-5l-3-4
		C148.5,82.5,143.5,81.5,135,83z"/>
	<path class="st4" d="M139.5,66.5c0,0-4-16,3-27c0,0-2-7-6-3c0,0-4,3-5,15c-0.6,7.4,0.1,14.8,2,22C133.5,73.5,138.5,73.5,139.5,66.5
		z"/>
	<path class="st5" d="M119.5,36.5c0,0,1,13,3,19s4,11,6,16s5,7,6,5s0-3-2-10s-5-18-5-25v-7c-1.3-0.6-2.6-0.9-4-1
		C121.5,33.5,119.5,34.5,119.5,36.5z"/>
	<path class="st4" d="M110.5,50.5c0,0,8,8,10,13s5,13,6,10s-3-18-6-22c-1.5-2.1-3.2-4.1-5-6C115.5,45.5,110.5,45.5,110.5,50.5z"/>
	<path class="st6" d="M136.5,86.5c0,0-5-19-19-28s-20-7-20-7s-4,3,1,6s12,5,18,10s12,14,12,16S131.5,88.5,136.5,86.5z"/>
	<path class="st6" d="M134.5,73.5c0,0,6-25,16-32s9,2,9,2v4c0,0-4-2-8,5s-9,19-9,23v8c0,0-4,5-6,3c0,0-3.2-7.6-3.1-8.3
		S134.5,73.5,134.5,73.5z"/>
	<path class="st7" d="M144.4,88.1v7.1l7.1-3.7l0.1-4.6L150,84C148.6,85.9,146.6,87.4,144.4,88.1z"/>
</g>
</svg>
