<?xml version="1.0" encoding="utf-8"?>
<!-- Generator: Adobe Illustrator 23.0.4, SVG Export Plug-In . SVG Version: 6.00 Build 0)  -->
<svg version="1.1" id="Layer_1" xmlns="http://www.w3.org/2000/svg" xmlns:xlink="http://www.w3.org/1999/xlink" x="0px" y="0px"
	 viewBox="0 0 300 300" style="enable-background:new 0 0 300 300;" xml:space="preserve">
<style type="text/css">
	.st0{fill:#26A9E0;}
	.st1{opacity:0.4;enable-background:new    ;}
	.st2{fill:none;stroke:#000000;stroke-miterlimit:10;}
	.st3{fill:none;stroke:#000000;stroke-width:0.5;stroke-linecap:round;stroke-linejoin:round;}
	.st4{fill:none;stroke:#000000;stroke-width:0.5;stroke-miterlimit:10;}
	.st5{fill:#F6921E;stroke:#000000;stroke-width:1.2;stroke-linecap:round;stroke-linejoin:round;}
	.st6{fill:#F9EC31;stroke:#000000;stroke-width:0.75;stroke-miterlimit:10;}
	.st7{fill:#F05A27;stroke:#000000;stroke-width:0.75;stroke-linecap:round;stroke-linejoin:round;}
</style>
<title>mouth</title>
<g id="mouth-09">
	<path id="fill_color" class="st0" d="M109.5,197.5c0,4,1,5,1,5h34c10,0,21-1,21-1v-23l-1-4h-2c-2,0-54.5,0.5-54.5,0.5v11
		L109.5,197.5z"/>
	<path class="st1" d="M163.5,174.5v25c0,0-52,1.5-53.8,1l0.6,1.8l28.9,0.2c0,0,19.6-0.8,21.7-0.6c1.4,0,2.8-0.3,4-0.9l0.4-22.8
		C165.4,178.2,164,174,163.5,174.5z"/>
	<path class="st2" d="M109.5,197.5c0,4,1,5,1,5h34c10,0,21-1,21-1v-23l-1-4h-2c-2,0-54.5,0.5-54.5,0.5v11L109.5,197.5z"/>
	<path class="st3" d="M110.3,200.5h30.2c10,0,23-1,23-1V175"/>
	<line class="st4" x1="163.5" y1="199.5" x2="165" y2="201"/>
	<path class="st3" d="M162,177v12"/>
	<path class="st5" d="M112.5,177.5h27c9,0,20-1,20-1v20l-54,1c0.1-3.8,0.7-7.5,2-11C108.8,183.3,110.5,180.3,112.5,177.5z"/>
	<path class="st6" d="M159,176.5c0,0-3,7.5-4,11.5c-0.7,2.8-1.2,5.7-1.6,8.6l-12.9,0.2c0,0-1-2.3,1-7.3s5-12,5-12
		S157.5,177,159,176.5z"/>
	<path class="st6" d="M128.5,196.9h-11c-0.5-3.9,0.2-7.8,2-11.2c3-6.1,3.8-8.2,3.8-8.2h11.6c0,0-1.3,3.1-2.3,6.1s-4,6.1-4,10.2
		V196.9z"/>
	<path class="st7" d="M135.1,177.5h11.4l-5.4,13.2c-0.6,1.2-0.9,2.6-0.8,4c0.2,1.9,0,2.2,0,2.2h-11.8c-0.1-2.5,0.2-5,0.9-7.4
		c1.1-3.1,2.1-3,3.6-7.6S135.1,177.5,135.1,177.5z"/>
</g>
</svg>
