<?xml version="1.0" encoding="utf-8"?>
<!-- Generator: Adobe Illustrator 23.0.4, SVG Export Plug-In . SVG Version: 6.00 Build 0)  -->
<svg version="1.1" id="Layer_1" xmlns="http://www.w3.org/2000/svg" xmlns:xlink="http://www.w3.org/1999/xlink" x="0px" y="0px"
	 viewBox="0 0 300 300" style="enable-background:new 0 0 300 300;" xml:space="preserve">
<style type="text/css">
	.st0{fill:#26A9E0;}
	.st1{fill:#F9EC31;}
	.st2{fill:#FAAF40;}
	.st3{fill:none;stroke:#000000;stroke-linecap:round;stroke-linejoin:round;}
	.st4{fill-opacity:0.4;stroke:#000000;stroke-width:0.75;stroke-linecap:round;stroke-linejoin:round;}
	.st5{fill:none;stroke:#000000;stroke-width:0.75;stroke-linecap:round;stroke-linejoin:round;}
</style>
<title>mouth</title>
<g id="mouth-04">
	<path id="fill_color" class="st0" d="M104,173c0,0,5.5,23.5,5.5,27.5c0,0,6,5,24,5s41-10,43-14c0,0-4-29-5-30c0,0-25,11-45,12
		c-10.6,0.6-16.7,0.3-19.8-0.1C105.8,173.3,104.9,173.2,104,173z"/>
	<path class="st1" d="M106.7,173.4c0,0,3.1,5.1,4.7,14.3s1,10.9,1,10.9S123,203,128,203c6.1,0.2,12.1-0.4,18-1.8
		c7.7-1.8,15.2-4.2,22.5-7.3l7.9-3.3l-3.2-21.1l-1.7-8c0,0-26,11-45,12s-20,0-20,0"/>
	<path class="st2" d="M142.5,181.5v8.5l17.5-4l1,6v4.9l15-5.9l-3-20.5C173.1,170.9,153.2,178.9,142.5,181.5z"/>
	<path class="st2" d="M142.4,190c0.1,3.9,0.8,7.8,2.1,11.5c0,0-10.5,1.5-17,1S113,199,113,199l-2.5-15.5h11l1.5,7.5
		C129.5,191.2,136,190.8,142.4,190z"/>
	<path class="st2" d="M118,174l3.5,9c7.6,0.3,21-1.5,21-1.5s-1.1-7.3-2.5-9.5L118,174z"/>
	<path class="st3" d="M104,173c0,0,5.5,23.5,5.5,27.5c0,0,6,5,24,5s41-10,43-14c0,0-4-29-5-30c0,0-25,11-45,12
		c-10.6,0.6-16.7,0.3-19.8-0.1C105.8,173.3,104.9,173.2,104,173z"/>
	<path class="st4" d="M112.3,198.6c0,0,9.7,4.4,17.7,4.4s23.5-2.5,32.5-6.5s13.9-5.9,13.9-5.9l0.1,0.9c-2.6,2.4-5.5,4.3-8.8,5.8
		c-5.2,2.2-19.7,8.2-35.5,8.2s-22.8-5-22.8-5L112.3,198.6"/>
	<path class="st4" d="M107.5,174.5c1.7,4.6,3,9.2,4,14c0.6,3.3,0.9,6.6,1,10l-3,2c0,0-2.2-15.2-4.6-23.6l-0.9-3.7l2.9,0.2
		L107.5,174.5z"/>
	<path class="st5" d="M124.6,202.5c0.1-5-2.1-16-4.1-22s-3.4-6.7-3.4-6.7"/>
	<path class="st5" d="M140.2,171.6c0,0,2.2,5.9,2.2,9.9v8c0,0,0.3,10.8,2.7,11.9"/>
	<path class="st5" d="M112,191c0,0,17,1,30-1s30-7,30-7l3-1"/>
	<path class="st5" d="M142.5,181.5v8.4l17.5-3.7l1,10.7l-0.3-2.9c0,0-0.7-9-1.7-14s-2.8-12.8-2.8-12.8"/>
	<path class="st5" d="M176.5,190.5L173,170c-1.2,1.2-7.8,4-15.2,6.6c-4.6,1.6-9.6,3.2-13.8,4.4c-11,3-33.6,2.5-33.6,2.5"/>
</g>
</svg>
