<?xml version="1.0" encoding="utf-8"?>
<!-- Generator: Adobe Illustrator 23.0.4, SVG Export Plug-In . SVG Version: 6.00 Build 0)  -->
<svg version="1.1" id="Layer_1" xmlns="http://www.w3.org/2000/svg" xmlns:xlink="http://www.w3.org/1999/xlink" x="0px" y="0px"
	 viewBox="0 0 300 300" style="enable-background:new 0 0 300 300;" xml:space="preserve">
<style type="text/css">
	.st0{fill:#26A9E0;}
	.st1{fill:#FFFFFF;fill-opacity:0.4;}
	.st2{fill:#FFFFFF;fill-opacity:0.2;stroke:#000000;stroke-miterlimit:10;}
	.st3{fill:none;stroke:#000000;stroke-miterlimit:10;}
	.st4{fill-opacity:0.2;}
</style>
<title>face</title>
<g id="face-05">
	<path id="fill_color" class="st0" d="M91.5,107.5c0,0,4,64,4,77s1,38,1,38s4,11,22,10c36.5,0.5,60-11,66-16c0,0-3-106-3-116
		s4.3-19.2-36-22c0,0-32.5,2.5-44.8,8.7c0,0-7.4,1.7-9.2,7.3C89.9,99.4,91.5,107.5,91.5,107.5z"/>
	<path class="st1" d="M95.8,102c0,0,2.7,53.5,3.7,68.5s5,42,5,45v14.7c0,0-7-3.7-8-7.7s-3.7-88.2-3.8-95.6s-1.2-19.4-1.2-19.4v-13
		C91.5,94.5,91.1,100.4,95.8,102z"/>
	<path class="st2" d="M145.5,78.5c0,0-53,5-54,16s23,14,37,13s52-7,53-16S156.5,77.5,145.5,78.5z"/>
	<path class="st3" d="M91.5,107.5c0,0,4,64,4,77s1,38,1,38s3,9,22,10c32,2,60-11,66-16c0,0-3-106-3-116s4-20-36-22
		c-16,0.7-31.1,3.1-44.8,8.7c-4.7,1.4-7.8,3.8-9.2,7.3V107.5z"/>
	<path class="st4" d="M168.5,103.5c0,0,1,49,1,57s1,35,1,41s-1,22.9-1,22.9l15-7.9c0,0-2.9-96.7-3-100.8s0-25.2,0-25.2
		c0.3,3.5-3.4,6.6-11,9.2l-2,0.7V103.5z"/>
	<circle cx="148" cy="114" r="1.5"/>
	<circle cx="130.5" cy="116.5" r="1.5"/>
	<circle cx="114.5" cy="117.5" r="1.5"/>
	<circle cx="116.5" cy="225.5" r="1.5"/>
	<circle cx="101.5" cy="220.5" r="1.5"/>
	<circle cx="132.5" cy="225.5" r="1.5"/>
	<circle cx="150.5" cy="221.5" r="1.5"/>
	<circle cx="166.5" cy="217.5" r="1.5"/>
	<circle cx="179.5" cy="212.5" r="1.5"/>
	<circle cx="99.5" cy="112.5" r="1.5"/>
	<circle cx="164.5" cy="109.5" r="1.5"/>
	<circle cx="177.5" cy="104.5" r="1.5"/>
</g>
</svg>
