<?xml version="1.0" encoding="utf-8"?>
<!-- Generator: Adobe Illustrator 23.0.4, SVG Export Plug-In . SVG Version: 6.00 Build 0)  -->
<svg version="1.1" id="Layer_1" xmlns="http://www.w3.org/2000/svg" xmlns:xlink="http://www.w3.org/1999/xlink" x="0px" y="0px"
	 viewBox="0 0 300 300" style="enable-background:new 0 0 300 300;" xml:space="preserve">
<style type="text/css">
	.st0{fill:#26A9E0;}
	.st1{fill:#FFFFFF;fill-opacity:0.4;}
	.st2{fill:none;stroke:#000000;stroke-linecap:round;stroke-linejoin:round;}
	.st3{fill-opacity:0.2;stroke:#000000;stroke-linecap:round;stroke-linejoin:round;}
</style>
<title>face</title>
<g id="face-08">
	<path id="fill_color" class="st0" d="M212.5,90.5c0,0-19.5-20.5-55-12c-31,8-61,14-64,60c-0.4,11.8,1,23.6,4,35c5,19,11,42,12,45
		c0,0,8,9,25,9s56-10,56-10s11-5,12-6s-20-60-11-86c0,0,3-7,14-8s14,0,14,0S217.5,96.5,212.5,90.5z"/>
	<path class="st1" d="M130.5,88.5c0,0-9,6-12,9s-16,15-18,28s2,38,4,46s5,21,4,26s-2.9,6.7-2.9,6.7s-6.1-20.7-8.1-30.7s-6-27-1.5-51
		S130.5,85.5,130.5,88.5z"/>
	<path class="st2" d="M212.5,90.5c0,0-18.2-20.2-55-12c-31.2,7-61,14-64,60c-0.4,11.8,1,23.6,4,35c5,19,11,42,12,45c0,0,8,9,25,9
		s56-10,56-10s11-5,12-6s-20-60-11-86c0,0,3-7,14-8s14,0,14,0S217.5,96.5,212.5,90.5z"/>
	<path class="st2" d="M212.5,89.5c0,0-18-19-55-12c-31.2,7.1-61,14-64,60c-0.4,11.8,1,23.6,4,35c5,19,11,42,12,45c0,0,8,9,25,9
		s56-10,56-10s11-5,12-6c1.4-0.9-20-60-11-86c0,0,3-7,14-8s14,0,14,0S217.5,95.5,212.5,89.5z"/>
	<path class="st3" d="M209.5,92.5c0,0-15,0-21,6s-16,16-13,41s12,65,12,65l3,13l12-6c0,0-22.8-76.5-7.4-90.2c0,0,2.4-4.8,24.4-3.8
		c0,0-0.4-21-5.7-25H209.5z"/>
	<circle cx="211" cy="103" r="1.5"/>
	<circle cx="195.5" cy="207.5" r="1.5"/>
	<circle cx="182.5" cy="213.5" r="1.5"/>
	<circle cx="165.5" cy="217.5" r="1.5"/>
	<circle cx="146.5" cy="220.5" r="1.5"/>
	<circle cx="129.5" cy="220.5" r="1.5"/>
	<circle cx="114.5" cy="216.5" r="1.5"/>
</g>
</svg>
