<?xml version="1.0" encoding="utf-8"?>
<!-- Generator: Adobe Illustrator 23.0.4, SVG Export Plug-In . SVG Version: 6.00 Build 0)  -->
<svg version="1.1" id="Layer_1" xmlns="http://www.w3.org/2000/svg" xmlns:xlink="http://www.w3.org/1999/xlink" x="0px" y="0px"
	 viewBox="0 0 300 300" style="enable-background:new 0 0 300 300;" xml:space="preserve">
<style type="text/css">
	.st0{fill:#26A9E0;}
	.st1{fill:#FFFFFF;fill-opacity:0.2;}
	.st2{fill:#FFFFFF;fill-opacity:0.4;}
	.st3{fill:none;stroke:#000000;stroke-width:2;stroke-miterlimit:10;}
	.st4{fill:none;stroke:#000000;stroke-miterlimit:10;}
	.st5{fill-opacity:0.2;}
</style>
<title>face</title>
<g id="face-07">
	<path id="fill_color" class="st0" d="M71.5,130.5c-0.9,10,1.2,20.1,6,29c8,15,39,71,66,70s76-50,76-93s-38-54-77-53
		S73.5,102.5,71.5,130.5z"/>
	<path class="st1" d="M201,100l-10,10c0,0-23.4-8.2-41.7-8.1s-33.5-1.2-53.4,6.4L76,116c0,0-0.1-2.8,6.7-9.7s18-18.3,48.9-22.1
		s49.9,2.2,58.9,6.7s12,7.1,12,7.1L201,100z"/>
	<path class="st2" d="M116.5,88c0,0-24.2,5.5-35.6,20.5s-9.8,26-9.1,34.5s8.2,22.6,14.4,33s18.6,28.8,23,32.7s11.3,11.8,11.3,11.8
		s0.3-6.2-5.8-18.6S83.5,164,81.5,143.7S87.5,101.5,116.5,88z"/>
	<path class="st3" d="M71.5,130.5c-0.9,10,1.2,20.1,6,29c8,15,39,71,66,70s76-50,76-93s-38-54-77-53S73.5,102.5,71.5,130.5z"/>
	<path class="st4" d="M75.4,115.9c0,0,33.1-15.4,65.1-14.4s65,7,67,30s-3,34-9,50c-3.8,9.9-9.3,19-16.3,27"/>
	<path d="M80,118.5c0,0-1.5,0-1.5,2s1.5,2,1.5,2s1.5,0,1.5-2S80,118.5,80,118.5z"/>
	<path d="M73,133.5c0,0-1.5,0-1.5,2s1.5,2,1.5,2s1.5,0,1.5-2S73,133.5,73,133.5z"/>
	<path d="M98,112.5c0,0-1.5,0-1.5,2s1.5,2,1.5,2s1.5,0,1.5-2S98,112.5,98,112.5z"/>
	<path d="M118,109.5c0,0-1.5,0-1.5,2s1.5,2,1.5,2s1.5,0,1.5-2S118,109.5,118,109.5z"/>
	<path d="M143,107.5c0,0-1.5,0-1.5,2s1.5,2,1.5,2s1.5,0,1.5-2S143,107.5,143,107.5z"/>
	<path d="M164,107.5c0,0-1.5,0-1.5,2s1.5,2,1.5,2s1.5,0,1.5-2S164,107.5,164,107.5z"/>
	<path d="M184,112.5c0,0-1.5,0-1.5,2s1.5,2,1.5,2s1.5,0,1.5-2S184,112.5,184,112.5z"/>
	<path d="M201,125.5c0,0-1.5,0-1.5,2s1.5,2,1.5,2s1.5,0,1.5-2S201,125.5,201,125.5z"/>
	<path d="M202,149.5c0,0-1.5,0-1.5,2s1.5,2,1.5,2s1.5,0,1.5-2S202,149.5,202,149.5z"/>
	<path d="M195,173.5c0,0-1.5,0-1.5,2s1.5,2,1.5,2s1.5,0,1.5-2S195,173.5,195,173.5z"/>
	<path d="M185,195.5c0,0-1.5,0-1.5,2s1.5,2,1.5,2s1.5,0,1.5-2S185,195.5,185,195.5z"/>
	<path d="M169,210.5c0,0-1.5,0-1.5,2s1.5,2,1.5,2s1.5,0,1.5-2S169,210.5,169,210.5z"/>
	<path d="M141,220.5c0,0-1.5,0-1.5,2s1.5,2,1.5,2s1.5,0,1.5-2S141,220.5,141,220.5z"/>
	<path d="M115,209.5c0,0-1.5,0-1.5,2s1.5,2,1.5,2s1.5,0,1.5-2S115,209.5,115,209.5z"/>
	<path class="st5" d="M199.5,115.5l-9-5.1c0,0-2.5-0.4,0.5,9.6s6.5,25.5,4.5,40.5s-7,27-19,40s-17.4,20.8-17.2,23.9
		s25.2-15.9,29.2-21.9s11.9-23.8,16-39S211.5,124.5,199.5,115.5z"/>
</g>
</svg>
