<?xml version="1.0" encoding="utf-8"?>
<!-- Generator: Adobe Illustrator 23.0.4, SVG Export Plug-In . SVG Version: 6.00 Build 0)  -->
<svg version="1.1" id="Layer_1" xmlns="http://www.w3.org/2000/svg" xmlns:xlink="http://www.w3.org/1999/xlink" x="0px" y="0px"
	 viewBox="0 0 300 300" style="enable-background:new 0 0 300 300;" xml:space="preserve">
<style type="text/css">
	.st0{fill:#26A9E0;}
	.st1{fill:#FFFFFF;fill-opacity:0.2;}
	.st2{fill:#FFFFFF;fill-opacity:0.4;}
	.st3{fill:none;stroke:#000000;stroke-miterlimit:10;}
	.st4{fill-opacity:0.2;}
	.st5{fill-opacity:0.1;}
</style>
<title>face</title>
<g id="face-09">
	<path id="fill_color" class="st0" d="M143,89c0,0-39,6-64,66s15.5,70.5,34.5,74.5s85,13,102-27S175.5,85.5,143,89z"/>
	<path class="st1" d="M99,121.1c0,0,23-25.1,40.5-22.6c7.5,1.9,14.8,4.9,21.9,8c0,0,3.4-9.4,6.1-9c2.2,0.3-17-9-23-9
		C133,89,109.5,104.6,99,121.1z"/>
	<path class="st2" d="M91.4,140.5c0,0-14,24-12,43s12,26,19,31s9.2,13.3,9.2,13.3s-35.7-3.8-36.6-41c0,0,3.2-39.8,30.3-68.6
		l11.8-10.3C113.1,108,95.4,132.5,91.4,140.5z"/>
	<path class="st3" d="M143,88c0,0-39,6-64,66s15.5,70.5,34.5,74.5s85,13,102-27S175.5,84.5,143,88z"/>
	<path class="st3" d="M143,89c0,0-39,6-64,66s15.5,70.5,34.5,74.5s85,13,102-27S175.5,85.5,143,89z"/>
	<path class="st4" d="M161.5,106.2c-0.6,1.5-1.5,2.8-2,4.3c-1,6,2,11,9,19s20,27,21,45s1,35-13,45s-24.2,14.1-24.2,14.1
		s34.7,0.4,47.8-19.5c11.4-15.6,10.6-36,0-59.8C189,127,171,113,171,113L161.5,106.2z"/>
	<circle cx="138.5" cy="106.5" r="2"/>
	<circle cx="111" cy="115" r="2"/>
	<circle cx="164" cy="117" r="2"/>
	<circle cx="185" cy="136" r="2"/>
	<circle cx="194" cy="158" r="2"/>
	<circle cx="201" cy="181" r="2"/>
	<circle cx="200" cy="205" r="2"/>
	<circle cx="183" cy="218" r="2"/>
	<circle cx="164" cy="223" r="2"/>
	<circle cx="142" cy="223" r="2"/>
	<circle cx="118" cy="221" r="2"/>
	<circle cx="97" cy="218" r="2"/>
	<path class="st3" d="M139.5,98.5c0,0,35,3,57,48s13.8,72-24.1,85c-54.9,7-79.9-7-91-16.5c-1.5,0.9-21-20.3-3-60.6
		C95.7,116,122.5,97.5,139.5,98.5z"/>
	<path class="st5" d="M167.2,97.6c-2.4-0.4-5.9,9.1-5.9,9.1s27,14,39,48s8.9,41,5.4,50s-17.6,24.6-36,27.8s37.6-2.8,45.6-29.8
		c11.5-39.5-22.9-80.2-22.9-80.2S174.8,101.2,167.2,97.6z"/>
</g>
</svg>
