<?xml version="1.0" encoding="utf-8"?>
<!-- Generator: Adobe Illustrator 23.0.4, SVG Export Plug-In . SVG Version: 6.00 Build 0)  -->
<svg version="1.1" id="Layer_1" xmlns="http://www.w3.org/2000/svg" xmlns:xlink="http://www.w3.org/1999/xlink" x="0px" y="0px"
	 viewBox="0 0 300 300" style="enable-background:new 0 0 300 300;" xml:space="preserve">
<style type="text/css">
	.st0{fill:#26A9E0;}
	.st1{fill:none;stroke:#000000;stroke-linecap:round;stroke-linejoin:round;}
	.st2{fill-opacity:0.2;}
	.st3{fill:#FFFFFF;fill-opacity:0.4;}
</style>
<title>face</title>
<path class="st0" d="M114.5,212.5l49.9,1.8l8.5-12.8l-61.9,2C111,203.5,114,204.7,114.5,212.5z"/>
<g id="face-06">
	<path id="fill_color" class="st0" d="M156,83c0,0-55,5-66,53s9.5,66.5,9.5,66.5s9,8,12,8s2-2,1-4c-0.7-1.3-1.7-2.3-3-3
		c0,0,4,1,5,10s1,32,1,38v12c0,0,2,8,17,8s30-7,30-7s-4-34-2-41s9-20,15-26s3-1,0,2c-2.3,2.5-4.3,5.1-6,8c0,0,17-7,23-14
		s15-10,16-33S214.5,81.5,156,83z"/>
	<path class="st1" d="M156,83c0,0-55,5-66,53s9.5,66.5,9.5,66.5s9,8,12,8s2-2,1-4c-0.7-1.3-1.7-2.3-3-3c0,0,4,1,5,10s1,32,1,38v12
		c0,0,2,8,17,8s30-7,30-7s-4-34-2-41s9-20,15-26s3-1,0,2c-2.3,2.5-4.3,5.1-6,8c0,0,17-7,23-14s15-10,16-33S214.5,81.5,156,83z"/>
	<path class="st1" d="M156,82c0,0-55,5-66,53s9.5,66.5,9.5,66.5s9,8,12,8s2-2,1-4c-0.7-1.3-1.7-2.3-3-3c0,0,4,1,5,10s1,32,1,38v12
		c0,0,2,8,17,8s30-7,30-7s-4-34-2-41s9-20,15-26s3-1,0,2c-2.3,2.5-4.3,5.1-6,8c0,0,17-7,23-14s15-10,16-33S214.5,80.5,156,82z"/>
	<path class="st2" d="M181.5,93.5c0,0,18,16,16,44s-6,41-28,54c0,0-16,3-19,28s0,49.3,0,49.3l12-4.3c0,0-6.9-36.1,0.1-46.5
		s7.2-11.1,17.1-15.3s30.9-21.6,29.4-50.9s-0.1-56-35.3-67.2l-3.9-0.8C169.8,83.9,168.5,84.5,181.5,93.5z"/>
	<path class="st3" d="M110.5,117.5c0,0-7,1-10,11s-11,25-8,35s7,10,9,5s1-17,5-28S116.5,119.5,110.5,117.5z"/>
	<path class="st3" d="M122.5,99.5c0,0-9,6-9,9s0,4,5,4s13-4,13-9S128.5,96.5,122.5,99.5z"/>
</g>
<path class="st1" d="M109.5,203.5c0,0-1.9-1.2,0-1"/>
<path d="M171.6,206.7c0,0-2.9,1.5-7.8,9.4c-4.9,7.9,5.1-10.5,5.1-10.5L171.6,206.7z"/>
<path d="M179.3,193.4c0,0,0.6,0.8,0,1.9c-0.6,1.2-1.4-0.3-1.4-0.3L179.3,193.4z"/>
</svg>
