<?xml version="1.0" encoding="utf-8"?>
<!-- Generator: Adobe Illustrator 23.0.4, SVG Export Plug-In . SVG Version: 6.00 Build 0)  -->
<svg version="1.1" id="face-10" xmlns="http://www.w3.org/2000/svg" xmlns:xlink="http://www.w3.org/1999/xlink" x="0px" y="0px"
	 viewBox="0 0 300 300" style="enable-background:new 0 0 300 300;" xml:space="preserve">
<style type="text/css">
	.st0{fill:#26A9E0;}
	.st1{fill:#FFFFFF;fill-opacity:0.4;}
	.st2{fill:none;stroke:#000000;stroke-miterlimit:10;}
	.st3{fill-opacity:0.2;stroke:#000000;stroke-width:0.75;stroke-miterlimit:10;}
</style>
<title>face</title>
<path id="fill_color" class="st0" d="M177,71c0,0-73-2-82,51c0,0-4.5,17.5,1.5,40.5s14,50,14,50s6,10,46,6s75-25,75-25
	s-10-100-16-108S203,72,177,71z"/>
<path class="st1" d="M135.5,78.3c0,0,1,4.2-5,9.2s-20,12-25,31s0,29,2,37s7,25,6,35s-4.8,16-4.8,16s-4.2-18.9-10.8-39.6
	c-5.4-16.9-5.8-36.8-2-49.4C104.5,89.4,129.1,80.5,135.5,78.3z"/>
<path class="st2" d="M177,70.6c0,0-73-1.6-82,51.4c0,0-4.5,17.5,1.5,40.5s14,50,14,50s6,10,46,6s75-25,75-25s-10-100-16-108
	S200.3,70.8,177,70.6z"/>
<path class="st2" d="M176.9,70c0,0-73-2-82,51c0,0-4.5,17.5,1.5,40.5s14,50,14,50c0,0.2,7.1,10.1,46,6.2c39.9-4,75-25,75-25.2
	c0,0-10-100-16-108S200.4,69.5,176.9,70z"/>
<path class="st3" d="M205.5,86.5c0,0-27,2-29,28s9,73,9,73l5.4,23.7l40.6-17.7c0,0-8-94-15-106C216.5,87.5,208.5,86.5,205.5,86.5z"
	/>
<circle cx="147.5" cy="214.5" r="1.5"/>
<circle cx="165.5" cy="211.5" r="1.5"/>
<circle cx="183.5" cy="206.5" r="1.5"/>
<circle cx="196.5" cy="202.5" r="1.5"/>
<circle cx="208.5" cy="198.5" r="1.5"/>
<circle cx="219.5" cy="194.5" r="1.5"/>
<circle cx="228.5" cy="190.5" r="1.5"/>
<circle cx="130.5" cy="214.5" r="1.5"/>
<circle cx="115.5" cy="210.5" r="1.5"/>
</svg>
