<?xml version="1.0" encoding="utf-8"?>
<!-- Generator: Adobe Illustrator 23.0.4, SVG Export Plug-In . SVG Version: 6.00 Build 0)  -->
<svg version="1.1" id="Layer_1" xmlns="http://www.w3.org/2000/svg" xmlns:xlink="http://www.w3.org/1999/xlink" x="0px" y="0px"
	 viewBox="0 0 300 300" style="enable-background:new 0 0 300 300;" xml:space="preserve">
<style type="text/css">
	.st0{fill:#26A9E0;}
	.st1{fill-opacity:0.2;}
	.st2{fill:none;stroke:#000000;stroke-miterlimit:10;}
	.st3{fill:#FFFFFF;fill-opacity:0.2;stroke:#000000;stroke-width:0.75;stroke-miterlimit:10;}
	.st4{fill:#FFFFFF;fill-opacity:0.4;}
</style>
<title>face</title>
<g id="face-02">
	<path id="fill_color" class="st0" d="M147.5,88.5c0,0-64,9-63,72c0,0-6,51,54,50c0,0,66-6,65-53S172,87,147.5,88.5z"/>
	<path class="st1" d="M154.5,90.5c0,0,18,12,25,47s2,48-7,55s-24.1,17.4-42.6,17.7c0,0,43.9,2.8,70.6-33.4c0.7-1.9,1.7-7.4,1.7-7.4
		s-14.4-4.7-19-32.3c-1.7-14.4,2.3-24.4,6.5-24.6c-0.2-0.4-0.4-0.7-0.6-1.1C179.7,98,160,87,154.5,90.5z"/>
	<path class="st2" d="M147.5,87.5c0,0-64,9-63,72c0,0-6,51,54,50c0,0,66-6,65-53S170.5,85.5,147.5,87.5z"/>
	<path class="st2" d="M147.5,88.5c0,0-64,9-63,72c0,0-6,51,54,50c0,0,66-6,65-53S171.5,86.5,147.5,88.5z"/>
	<path class="st3" d="M92.2,125.7c0,0,2.3,14.8,0.3,24.8s-7.7,21-7.7,21S80.9,147.9,92.2,125.7z"/>
	<path class="st3" d="M187.5,113.5c0,0-7,10-4,26s12,27.7,18.5,29.8c0,0,5.8-35.2-12.8-57L187.5,113.5z"/>
	<path class="st4" d="M112.5,112.5c0,0-5-1-10,6s-6,11-5,13s7,1,11-7S114.5,114.5,112.5,112.5z"/>
	<path class="st4" d="M117.5,102.5c0,0-5,4-2,7c2.4,2.5,6.4,2.5,8.9,0.1c0,0,0.1-0.1,0.1-0.1c2-2,2-6-1-7
		C121.5,101.9,119.5,101.9,117.5,102.5z"/>
	<circle cx="188" cy="143" r="1.5"/>
	<circle cx="193.5" cy="154.5" r="1.5"/>
	<circle cx="199.5" cy="161.5" r="1.5"/>
	<circle cx="88.5" cy="154.5" r="1.5"/>
	<circle cx="89.5" cy="143.5" r="1.5"/>
	<circle cx="90.5" cy="133.5" r="1.5"/>
	<circle cx="186.5" cy="130.5" r="1.5"/>
	<circle cx="190.5" cy="119.5" r="1.5"/>
</g>
</svg>
