<?xml version="1.0" encoding="utf-8"?>
<!-- Generator: Adobe Illustrator 23.0.4, SVG Export Plug-In . SVG Version: 6.00 Build 0)  -->
<svg version="1.1" id="Layer_1" xmlns="http://www.w3.org/2000/svg" xmlns:xlink="http://www.w3.org/1999/xlink" x="0px" y="0px"
	 viewBox="0 0 300 300" style="enable-background:new 0 0 300 300;" xml:space="preserve">
<style type="text/css">
	.st0{fill:#26A9E0;}
	.st1{fill-opacity:0.2;}
	.st2{fill:#FFFFFF;fill-opacity:0.4;}
	.st3{fill:none;stroke:#000000;stroke-miterlimit:10;}
</style>
<title>face</title>
<g id="face-04">
	<path id="fill_color" class="st0" d="M148,87c0,0-56.5,0.5-56.5,63.9s33,84.6,48,84.6s45-8.1,51-41.3c0,0,1-16.1,0-25.2
		s-1-29.2-1-32.2S186.5,88.5,148,87z"/>
	<path class="st1" d="M151.5,92.5c0,0,17,12,22,42s7,44,3,63s-9.5,28.5-14.8,31.8s21.7-4.9,26.7-26.8s1.8-35.9,1.8-35.9l-1-32.2
		c0,0-4-37.2-26.3-44c0,0-12.4-3.8-17.9-2.2S148.5,89.5,151.5,92.5z"/>
	<path class="st2" d="M113.5,110.5c0,0-4,0-4,4s4,7,7,5s5-5,4-7S118.5,108.5,113.5,110.5z"/>
	<path class="st2" d="M108.5,123.5c0,0-4-1-7,5s-4,15-3,24c0.8,6.7,3.6,12.9,8,18c2,2,6,3,5-4s-5-14-4-25S114.5,124.5,108.5,123.5z"
		/>
	<path class="st3" d="M148,87c0,0-56.5,0.5-56.5,63.5s32.4,85,47.4,85s45.6-9,51.6-42c0,0,1-16,0-25s-1-29-1-32S186.5,88.5,148,87z"
		/>
	<path class="st3" d="M148,86c0,0-56.5,0.5-56.5,63.5s32.9,85.1,47.9,85.1s47.9-8.9,51.1-42.1c0,0,1-16,0-25s-1-29-1-32
		S186.5,87.5,148,86z"/>
</g>
</svg>
