<?xml version="1.0" encoding="utf-8"?>
<!-- Generator: Adobe Illustrator 23.0.4, SVG Export Plug-In . SVG Version: 6.00 Build 0)  -->
<svg version="1.1" id="Layer_1" xmlns="http://www.w3.org/2000/svg" xmlns:xlink="http://www.w3.org/1999/xlink" x="0px" y="0px"
	 viewBox="0 0 300 300" style="enable-background:new 0 0 300 300;" xml:space="preserve">
<style type="text/css">
	.st0{fill:#26A9E0;}
	.st1{fill:#FFFFFF;fill-opacity:0.4;}
	.st2{fill:none;stroke:#000000;stroke-linecap:round;stroke-linejoin:round;}
	.st3{fill:none;stroke:#000000;stroke-miterlimit:10;}
	.st4{fill-opacity:0.2;}
	.st5{fill-opacity:0.2;stroke:#000000;stroke-width:0.75;stroke-linecap:round;stroke-linejoin:round;}
</style>
<title>face</title>
<g id="face-01">
	<path id="fill_color" class="st0" d="M144.5,87.5c0,0-51,3-53,55c0,0,0,27,5,42s10,38,10,38l16,16l1,5c0,0,13.5-1.5,19-1
		s13.9,1.7,13.9,1.7s6.1-12.7,19.1-18.7s18-8,18-8s-4-35-4-52S201.5,88.5,144.5,87.5z"/>
	<path class="st1" d="M115.1,97.7c0,0,6.4,5.8-2.6,14.8s-16,23-13,44s10,40,10,50s-0.7,18.2-0.7,18.2l-2.3-2.2
		c0,0-4.9-16.6-9.1-36.2c-1-4.5-2.7-9.1-3.5-13.8c-1.6-9-1.9-18.1-2.4-26.5C89.6,114,115.1,97.7,115.1,97.7z"/>
	<path class="st2" d="M144.5,87.5c0,0-51,3-53,55c0,0,0,27,5,42s10,38,10,38l16,16l1,5c0,0,9-1,15-1s19,1,19,1
		c3.8-7.9,10.1-14.2,18-18c13-6,18-8,18-8s-4-35-4-52S201.5,88.5,144.5,87.5z"/>
	<path class="st3" d="M144.5,86.5c0,0-51,3-53,55c0,0,0,27,5,42s10,38,10,38l16,16l1,5c0,0,9-1,15-1s19,1,19,1
		c3.8-7.9,10.1-14.2,18-18c13-6,18-8,18-8s-4-35-4-52S201.5,87.5,144.5,86.5z"/>
	<path class="st4" d="M158.5,92.5c0,0,20,15,18,32s-8,28-12,29c5.1,3.7,8.1,9.7,8,16c0,11,1,50,1,50l0.3,6.8l19.7-8.8
		c0,0-3.8-39-3.4-63.5s1.4-55.1-31.6-64.8C158.5,89.2,155.5,90.5,158.5,92.5z"/>
	<path class="st2" d="M124.5,211.5l37-1l4.8,21.2c0,0-8.8,8.8-8.8,11.8c-2,1-10-1-18-1c-5.3,0-10.7,0.4-16,1
		C123.5,243.5,118.5,224.5,124.5,211.5z"/>
	<path class="st5" d="M159.5,212.5c-3.1,4-4.5,9-4,14c1,8,2,17,2,17l9-12l-5-21L159.5,212.5z"/>
</g>
</svg>
