<?xml version="1.0" encoding="utf-8"?>
<!-- Generator: Adobe Illustrator 23.0.4, SVG Export Plug-In . SVG Version: 6.00 Build 0)  -->
<svg version="1.1" id="eyes-10" xmlns="http://www.w3.org/2000/svg" xmlns:xlink="http://www.w3.org/1999/xlink" x="0px" y="0px"
	 viewBox="0 0 300 300" style="enable-background:new 0 0 300 300;" xml:space="preserve">
<style type="text/css">
	.st0{fill:#26A9E0;}
	.st1{fill:#FFFFFF;fill-opacity:0.4;}
	.st2{fill:none;stroke:#000000;stroke-linecap:round;stroke-linejoin:round;}
	.st3{fill-opacity:0.4;stroke:#000000;stroke-width:0.75;stroke-linecap:round;stroke-linejoin:round;}
</style>
<title>eyes</title>
<path id="fill_color" class="st0" d="M129.5,123.5c0,0-30,3-31,15s8,13,15,14s20-2,26-3s25,1,27-13s-17-14-17-14L129.5,123.5z"/>
<path class="st1" d="M116.9,125.8c0,0-15.4,2.7-16.4,12.7s15.5,13,24.2,10.5c8.8-1.7,16.7-3.5,25.2-3.6c6.5,0.1,16.8-3.7,16.6-11.3
	s-9.1-11.6-17.1-11.6s-21.1,1.1-21.1,1.1L116.9,125.8z"/>
<path class="st1" d="M130.5,123.5l-8,25.5c1.6-0.1,5.4-0.6,9-1.2l7-24.8C135.9,123.4,133.2,123.6,130.5,123.5z"/>
<polygon class="st1" points="120.8,124.9 113,150 118,150 125.4,124.1 "/>
<path class="st2" d="M129.5,123.5c0,0-30,3-31,15s8,13,15,14s20-2,26-3s25,1,27-13s-17-14-17-14L129.5,123.5z"/>
<path class="st3" d="M106.6,129.5c0,0-6.1,3-6.1,9s5,13,20,11s23-4,28-4s17.3-2.5,18.1-10.2c0,0,0.3,10.9-14.4,13.1
	s-16.2,1.2-21,2.7s-28.1,4.2-32.4-7.1C98.8,143.9,95.7,134.4,106.6,129.5z"/>
</svg>
