<?xml version="1.0" encoding="utf-8"?>
<!-- Generator: Adobe Illustrator 23.0.4, SVG Export Plug-In . SVG Version: 6.00 Build 0)  -->
<svg version="1.1" id="Layer_1" xmlns="http://www.w3.org/2000/svg" xmlns:xlink="http://www.w3.org/1999/xlink" x="0px" y="0px"
	 viewBox="0 0 300 300" style="enable-background:new 0 0 300 300;" xml:space="preserve">
<style type="text/css">
	.st0{fill:#26A9E0;}
	.st1{fill-opacity:0.4;}
	.st2{fill:#461917;}
</style>
<title>eyes</title>
<g id="eyes-08">
	<path id="fill_color" class="st0" d="M110,135c0,0-1.5,6.5,0.5,6.5h45v-6c0,0,0-2-3-2h-38C111.5,133.5,110.5,133.5,110,135z"/>
	<g>
		<path class="st1" d="M110,135c0,0-1.5,6.5,0.5,6.5h45v-6c0,0,0-2-3-2h-38C111.5,133.5,110.5,133.5,110,135z"/>
		<path d="M156,142h-45.5c-0.4,0-0.8-0.2-1-0.5c-1.1-1.4-0.2-5.8,0-6.6l0,0c0.6-1.8,1.9-1.8,5-1.8h38c3.5,0,3.5,2.5,3.5,2.5V142z
			 M110.5,135.1c-0.4,1.9-0.8,5-0.2,5.8c0.1,0.1,0.1,0.1,0.2,0.1H155v-5.5c0-0.1-0.1-1.5-2.5-1.5h-38
			C111.5,134,110.9,134,110.5,135.1z"/>
	</g>
	<g>
		<path class="st2" d="M110.8,133.9c0.7,1.6,1.6,3.2,2.7,4.6c1,1,5,0,9,0h31c0,0,2-0.1,2,0.9v-3.9c0,0,0-2-3-2h-39.2L110.8,133.9z"
			/>
		<path d="M155.5,139.7c-0.1,0-0.2-0.1-0.2-0.2c0-0.1,0-0.2-0.1-0.3c-0.4-0.3-1.3-0.4-1.6-0.4l-31,0c-1.5,0-2.9,0.1-4.2,0.3
			c-2.5,0.2-4.2,0.4-4.9-0.3c-1.1-1.5-2-3.1-2.7-4.7c0-0.1,0-0.2,0-0.2c0-0.1,0.1-0.1,0.2-0.1l2.5-0.4l39.2,0c3.2,0,3.2,2.2,3.2,2.2
			v3.9C155.8,139.6,155.6,139.7,155.5,139.7z M111.2,134.1c0.7,1.5,1.5,2.9,2.5,4.3c0.5,0.5,2.4,0.4,4.5,0.2
			c1.3-0.1,2.8-0.3,4.3-0.3h31c0.1,0,1.1-0.1,1.8,0.3v-3.1c0-0.1-0.1-1.8-2.8-1.8h-39.2L111.2,134.1z"/>
	</g>
	<path d="M113.7,138.8l-3.6,2.7c-0.1,0.1-0.1,0.1-0.2,0.1c-0.1,0-0.2-0.1-0.3-0.1c-0.1-0.2-0.1-0.4,0.1-0.5l3.6-2.7"/>
</g>
</svg>
