<?xml version="1.0" encoding="utf-8"?>
<!-- Generator: Adobe Illustrator 23.0.4, SVG Export Plug-In . SVG Version: 6.00 Build 0)  -->
<svg version="1.1" id="Layer_1" xmlns="http://www.w3.org/2000/svg" xmlns:xlink="http://www.w3.org/1999/xlink" x="0px" y="0px"
	 viewBox="0 0 300 300" style="enable-background:new 0 0 300 300;" xml:space="preserve">
<style type="text/css">
	.st0{fill:#26A9E0;}
	.st1{fill:#461917;stroke:#000000;stroke-width:0.5;stroke-linecap:round;stroke-linejoin:round;}
	.st2{fill-opacity:0.4;stroke:#000000;stroke-width:0.75;stroke-linecap:round;stroke-linejoin:round;}
	.st3{fill:#FFF100;}
	.st4{fill:#FFFFFF;fill-opacity:0.2;stroke:#000000;stroke-width:0.75;stroke-linecap:round;stroke-linejoin:round;}
	.st5{fill:none;stroke:#000000;stroke-width:0.75;stroke-linecap:round;stroke-linejoin:round;}
</style>
<title>eyes</title>
<g id="eyes-09">
	<path id="fill_color" class="st0" d="M127.5,124.5c0,0-43-1-45,16c-1.5,15.5,25,13,25,13h35c0,0,27,0,27-13
		S158.5,123.5,127.5,124.5z"/>
	<path class="st1" d="M126,132c-15.5,0.5-28.5-1.5-30.5,6.5c-2,9,16,7,22,7s27-1,30-1s10-1,10-3C157.5,133.5,142.5,131.5,126,132z"
		/>
	<path class="st2" d="M90.5,140.5c0,1-5,9,32,8s35-4.3,35-7.7s-8.6-9.2-21.3-8.8S95.5,128.5,90.5,140.5z"/>
	<ellipse class="st3" cx="112" cy="139" rx="2.5" ry="3.5"/>
	<ellipse class="st3" cx="138" cy="139" rx="2.5" ry="3.5"/>
	<path class="st4" d="M93.5,129.5c0,0,27-3,41-2c11,0,24,3,29,10s1.4,10.6-0.3,11.8s6.3-2.8,6.3-8.8s-1.6-11.3-14.3-14.7
		s-30.2-1.2-33.9-1.3S98.5,126.5,93.5,129.5z"/>
	<path class="st5" d="M127.5,124.5c0,0-43-1-45,16c-1,15,21,13,25,13h35c0,0,27,0,27-13S158.5,123.5,127.5,124.5z"/>
</g>
</svg>
