<svg xmlns="http://www.w3.org/2000/svg">
<symbol id="face-10"><path d="M177 71s-73-2-82 51c0 0-4.5 17.5 1.5 40.5s14 50 14 50 6 10 46 6 75-25 75-25-10-100-16-108S203 72 177 71z" fill="currentColor"/><path d="M135.5 78.3s1 4.2-5 9.2-20 12-25 31 0 29 2 37 7 25 6 35-4.8 16-4.8 16-4.2-18.9-10.8-39.6c-5.4-16.9-5.8-36.8-2-49.4 8.6-28.1 33.2-37 39.6-39.2z" fill="#fff" fill-opacity=".4"/><path d="M177 70.6S104 69 95 122c0 0-4.5 17.5 1.5 40.5s14 50 14 50 6 10 46 6 75-25 75-25-10-100-16-108-15.2-14.7-38.5-14.9z" fill="none" stroke="#000" stroke-miterlimit="10"/><path d="M176.9 70s-73-2-82 51c0 0-4.5 17.5 1.5 40.5s14 50 14 50c0 .2 7.1 10.1 46 6.2 39.9-4 75-25 75-25.2 0 0-10-100-16-108s-15-15-38.5-14.5z" fill="none" stroke="#000" stroke-miterlimit="10"/><path d="M205.5 86.5s-27 2-29 28 9 73 9 73l5.4 23.7 40.6-17.7s-8-94-15-106c0 0-8-1-11-1z" fill-opacity=".2" stroke="#000" stroke-width=".75" stroke-miterlimit="10"/><circle cx="147.5" cy="214.5" r="1.5"/><circle cx="165.5" cy="211.5" r="1.5"/><circle cx="183.5" cy="206.5" r="1.5"/><circle cx="196.5" cy="202.5" r="1.5"/><circle cx="208.5" cy="198.5" r="1.5"/><circle cx="219.5" cy="194.5" r="1.5"/><circle cx="228.5" cy="190.5" r="1.5"/><circle cx="130.5" cy="214.5" r="1.5"/><circle cx="115.5" cy="210.5" r="1.5"/></symbol>
<symbol id="face-04"><path d="M148 87s-56.5.5-56.5 63.9 33 84.6 48 84.6 45-8.1 51-41.3c0 0 1-16.1 0-25.2s-1-29.2-1-32.2-3-48.3-41.5-49.8z" fill="currentColor"/><path d="M151.5 92.5s17 12 22 42 7 44 3 63-9.5 28.5-14.8 31.8 21.7-4.9 26.7-26.8 1.8-35.9 1.8-35.9l-1-32.2s-4-37.2-26.3-44c0 0-12.4-3.8-17.9-2.2s3.5 1.3 6.5 4.3z" fill-opacity=".2"/><path d="M113.5 110.5s-4 0-4 4 4 7 7 5 5-5 4-7-2-4-7-2zM108.5 123.5s-4-1-7 5-4 15-3 24c.8 6.7 3.6 12.9 8 18 2 2 6 3 5-4s-5-14-4-25 7-17 1-18z" fill="#fff" fill-opacity=".4"/><path d="M148 87s-56.5.5-56.5 63.5 32.4 85 47.4 85 45.6-9 51.6-42c0 0 1-16 0-25s-1-29-1-32-3-48-41.5-49.5z" fill="none" stroke="#000" stroke-miterlimit="10"/><path d="M148 86s-56.5.5-56.5 63.5 32.9 85.1 47.9 85.1 47.9-8.9 51.1-42.1c0 0 1-16 0-25s-1-29-1-32-3-48-41.5-49.5z" fill="none" stroke="#000" stroke-miterlimit="10"/></symbol>
<symbol id="face-05"><path d="M91.5 107.5s4 64 4 77 1 38 1 38 4 11 22 10c36.5.5 60-11 66-16 0 0-3-106-3-116s4.3-19.2-36-22c0 0-32.5 2.5-44.8 8.7 0 0-7.4 1.7-9.2 7.3-1.6 4.9 0 13 0 13z" fill="currentColor"/><path d="M95.8 102s2.7 53.5 3.7 68.5 5 42 5 45v14.7s-7-3.7-8-7.7-3.7-88.2-3.8-95.6-1.2-19.4-1.2-19.4v-13s-.4 5.9 4.3 7.5z" fill="#fff" fill-opacity=".4"/><path d="M145.5 78.5s-53 5-54 16 23 14 37 13 52-7 53-16-25-14-36-13z" fill="#fff" fill-opacity=".2" stroke="#000" stroke-miterlimit="10"/><path d="M91.5 107.5s4 64 4 77 1 38 1 38 3 9 22 10c32 2 60-11 66-16 0 0-3-106-3-116s4-20-36-22c-16 .7-31.1 3.1-44.8 8.7-4.7 1.4-7.8 3.8-9.2 7.3v13z" fill="none" stroke="#000" stroke-miterlimit="10"/><path d="M168.5 103.5s1 49 1 57 1 35 1 41-1 22.9-1 22.9l15-7.9s-2.9-96.7-3-100.8 0-25.2 0-25.2c.3 3.5-3.4 6.6-11 9.2l-2 .7v3.1z" fill-opacity=".2"/><circle cx="148" cy="114" r="1.5"/><circle cx="130.5" cy="116.5" r="1.5"/><circle cx="114.5" cy="117.5" r="1.5"/><circle cx="116.5" cy="225.5" r="1.5"/><circle cx="101.5" cy="220.5" r="1.5"/><circle cx="132.5" cy="225.5" r="1.5"/><circle cx="150.5" cy="221.5" r="1.5"/><circle cx="166.5" cy="217.5" r="1.5"/><circle cx="179.5" cy="212.5" r="1.5"/><circle cx="99.5" cy="112.5" r="1.5"/><circle cx="164.5" cy="109.5" r="1.5"/><circle cx="177.5" cy="104.5" r="1.5"/></symbol>
<symbol id="face-07"><path d="M71.5 130.5c-.9 10 1.2 20.1 6 29 8 15 39 71 66 70s76-50 76-93-38-54-77-53-69 19-71 47z" fill="currentColor"/><path d="M201 100l-10 10s-23.4-8.2-41.7-8.1-33.5-1.2-53.4 6.4L76 116s-.1-2.8 6.7-9.7 18-18.3 48.9-22.1 49.9 2.2 58.9 6.7 12 7.1 12 7.1l-1.5 2z" fill="#fff" fill-opacity=".2"/><path d="M116.5 88s-24.2 5.5-35.6 20.5-9.8 26-9.1 34.5 8.2 22.6 14.4 33 18.6 28.8 23 32.7 11.3 11.8 11.3 11.8.3-6.2-5.8-18.6-31.2-37.9-33.2-58.2 6-42.2 35-55.7z" fill="#fff" fill-opacity=".4"/><path d="M71.5 130.5c-.9 10 1.2 20.1 6 29 8 15 39 71 66 70s76-50 76-93-38-54-77-53-69 19-71 47z" fill="none" stroke="#000" stroke-width="2" stroke-miterlimit="10"/><path d="M75.4 115.9s33.1-15.4 65.1-14.4 65 7 67 30-3 34-9 50c-3.8 9.9-9.3 19-16.3 27" fill="none" stroke="#000" stroke-miterlimit="10"/><path d="M80 118.5s-1.5 0-1.5 2 1.5 2 1.5 2 1.5 0 1.5-2-1.5-2-1.5-2zM73 133.5s-1.5 0-1.5 2 1.5 2 1.5 2 1.5 0 1.5-2-1.5-2-1.5-2zM98 112.5s-1.5 0-1.5 2 1.5 2 1.5 2 1.5 0 1.5-2-1.5-2-1.5-2zM118 109.5s-1.5 0-1.5 2 1.5 2 1.5 2 1.5 0 1.5-2-1.5-2-1.5-2zM143 107.5s-1.5 0-1.5 2 1.5 2 1.5 2 1.5 0 1.5-2-1.5-2-1.5-2zM164 107.5s-1.5 0-1.5 2 1.5 2 1.5 2 1.5 0 1.5-2-1.5-2-1.5-2zM184 112.5s-1.5 0-1.5 2 1.5 2 1.5 2 1.5 0 1.5-2-1.5-2-1.5-2zM201 125.5s-1.5 0-1.5 2 1.5 2 1.5 2 1.5 0 1.5-2-1.5-2-1.5-2zM202 149.5s-1.5 0-1.5 2 1.5 2 1.5 2 1.5 0 1.5-2-1.5-2-1.5-2zM195 173.5s-1.5 0-1.5 2 1.5 2 1.5 2 1.5 0 1.5-2-1.5-2-1.5-2zM185 195.5s-1.5 0-1.5 2 1.5 2 1.5 2 1.5 0 1.5-2-1.5-2-1.5-2zM169 210.5s-1.5 0-1.5 2 1.5 2 1.5 2 1.5 0 1.5-2-1.5-2-1.5-2zM141 220.5s-1.5 0-1.5 2 1.5 2 1.5 2 1.5 0 1.5-2-1.5-2-1.5-2zM115 209.5s-1.5 0-1.5 2 1.5 2 1.5 2 1.5 0 1.5-2-1.5-2-1.5-2z"/><path d="M199.5 115.5l-9-5.1s-2.5-.4.5 9.6 6.5 25.5 4.5 40.5-7 27-19 40-17.4 20.8-17.2 23.9 25.2-15.9 29.2-21.9 11.9-23.8 16-39 7-39-5-48z" fill-opacity=".2"/></symbol>
<symbol id="face-06"><path d="M114.5 212.5l49.9 1.8 8.5-12.8-61.9 2s3 1.2 3.5 9z" fill="currentColor"/><path d="M156 83s-55 5-66 53 9.5 66.5 9.5 66.5 9 8 12 8 2-2 1-4c-.7-1.3-1.7-2.3-3-3 0 0 4 1 5 10s1 32 1 38v12s2 8 17 8 30-7 30-7-4-34-2-41 9-20 15-26 3-1 0 2c-2.3 2.5-4.3 5.1-6 8 0 0 17-7 23-14s15-10 16-33 6-79-52.5-77.5z" fill="currentColor"/><path d="M156 83s-55 5-66 53 9.5 66.5 9.5 66.5 9 8 12 8 2-2 1-4c-.7-1.3-1.7-2.3-3-3 0 0 4 1 5 10s1 32 1 38v12s2 8 17 8 30-7 30-7-4-34-2-41 9-20 15-26 3-1 0 2c-2.3 2.5-4.3 5.1-6 8 0 0 17-7 23-14s15-10 16-33 6-79-52.5-77.5z" fill="none" stroke="#000" stroke-linecap="round" stroke-linejoin="round"/><path d="M156 82s-55 5-66 53 9.5 66.5 9.5 66.5 9 8 12 8 2-2 1-4c-.7-1.3-1.7-2.3-3-3 0 0 4 1 5 10s1 32 1 38v12s2 8 17 8 30-7 30-7-4-34-2-41 9-20 15-26 3-1 0 2c-2.3 2.5-4.3 5.1-6 8 0 0 17-7 23-14s15-10 16-33 6-79-52.5-77.5z" fill="none" stroke="#000" stroke-linecap="round" stroke-linejoin="round"/><path d="M181.5 93.5s18 16 16 44-6 41-28 54c0 0-16 3-19 28s0 49.3 0 49.3l12-4.3s-6.9-36.1.1-46.5 7.2-11.1 17.1-15.3 30.9-21.6 29.4-50.9-.1-56-35.3-67.2l-3.9-.8c-.1.1-1.4.7 11.6 9.7z" fill-opacity=".2"/><path d="M110.5 117.5s-7 1-10 11-11 25-8 35 7 10 9 5 1-17 5-28 10-21 4-23zM122.5 99.5s-9 6-9 9 0 4 5 4 13-4 13-9-3-7-9-4z" fill="#fff" fill-opacity=".4"/><path d="M109.5 203.5s-1.9-1.2 0-1" fill="none" stroke="#000" stroke-linecap="round" stroke-linejoin="round"/><path d="M171.6 206.7s-2.9 1.5-7.8 9.4 5.1-10.5 5.1-10.5l2.7 1.1zM179.3 193.4s.6.8 0 1.9c-.6 1.2-1.4-.3-1.4-.3l1.4-1.6z"/></symbol>
<symbol id="face-02"><path d="M147.5 88.5s-64 9-63 72c0 0-6 51 54 50 0 0 66-6 65-53s-31.5-70.5-56-69z" fill="currentColor"/><path d="M154.5 90.5s18 12 25 47 2 48-7 55-24.1 17.4-42.6 17.7c0 0 43.9 2.8 70.6-33.4.7-1.9 1.7-7.4 1.7-7.4s-14.4-4.7-19-32.3c-1.7-14.4 2.3-24.4 6.5-24.6-.2-.4-.4-.7-.6-1.1C179.7 98 160 87 154.5 90.5z" fill-opacity=".2"/><path d="M147.5 87.5s-64 9-63 72c0 0-6 51 54 50 0 0 66-6 65-53s-33-71-56-69z" fill="none" stroke="#000" stroke-miterlimit="10"/><path d="M147.5 88.5s-64 9-63 72c0 0-6 51 54 50 0 0 66-6 65-53s-32-71-56-69z" fill="none" stroke="#000" stroke-miterlimit="10"/><path d="M92.2 125.7s2.3 14.8.3 24.8-7.7 21-7.7 21-3.9-23.6 7.4-45.8zM187.5 113.5s-7 10-4 26 12 27.7 18.5 29.8c0 0 5.8-35.2-12.8-57l-1.7 1.2z" fill="#fff" fill-opacity=".2" stroke="#000" stroke-width=".75" stroke-miterlimit="10"/><path d="M112.5 112.5s-5-1-10 6-6 11-5 13 7 1 11-7 6-10 4-12zM117.5 102.5s-5 4-2 7c2.4 2.5 6.4 2.5 8.9.1l.1-.1c2-2 2-6-1-7-2-.6-4-.6-6 0z" fill="#fff" fill-opacity=".4"/><circle cx="188" cy="143" r="1.5"/><circle cx="193.5" cy="154.5" r="1.5"/><circle cx="199.5" cy="161.5" r="1.5"/><circle cx="88.5" cy="154.5" r="1.5"/><circle cx="89.5" cy="143.5" r="1.5"/><circle cx="90.5" cy="133.5" r="1.5"/><circle cx="186.5" cy="130.5" r="1.5"/><circle cx="190.5" cy="119.5" r="1.5"/></symbol>
<symbol id="face-03"><path d="M147 88c-20.15-.5-56.5 14.5-56.5 57.5 0 0 1 22 6 41s10 34 10 37c0 0 3 12 25 11s62-15 62-15-2-31-3-49S196.79 89.24 147 88z" fill="currentColor"/><path d="M147 88c-20.15-.5-56.5 14.5-56.5 57.5 0 0 1 22 6 41s10 34 10 37c0 0 3 12 25 11s62-15 62-15-2-31-3-49S196.79 89.24 147 88z" fill="none" stroke="#000" stroke-linecap="round" stroke-linejoin="round"/><path d="M147 87c-20.15-.5-56.5 14.5-56.5 57.5 0 0 1 22 6 41s10 34 10 37c0 0 3 12 25 11s62-15 62-15-2-31-3-49S196.79 88.24 147 87z" fill="none" stroke="#000" stroke-linecap="round" stroke-linejoin="round"/><path d="M135.5 96.5s36-4 45 43c0 0 3 24 3 35s-1 25 1 36l2 11 7-2s-2.53-55.76-3.27-70.88S188.5 90.81 150 88.16c0 0-19.78-1-33.64 8.7 0 0-4.86 4.65.14 2.65s16-3.01 19-3.01z" fill-opacity=".2"/><path d="M122.5 104.5s-4 1-4 4 2 7 5 6 5-5 4-7-2-4-5-3zM115.5 111.5s-9-6-17 12-1 37-1 37 2 6 8 6 4-9 4-9-4-13-1-24 7-13 7-13 5-5 0-9z" fill="#fff" fill-opacity=".4"/><circle cx="111" cy="223" r="1.5"/><circle cx="125.5" cy="227.5" r="1.5"/><circle cx="141.5" cy="226.5" r="1.5"/><circle cx="159.5" cy="223.5" r="1.5"/><circle cx="175.5" cy="219.5" r="1.5"/><circle cx="188.5" cy="214.5" r="1.5"/></symbol>
<symbol id="face-01"><path d="M144.5 87.5s-51 3-53 55c0 0 0 27 5 42s10 38 10 38l16 16 1 5s13.5-1.5 19-1 13.9 1.7 13.9 1.7 6.1-12.7 19.1-18.7 18-8 18-8-4-35-4-52 12-77-45-78z" fill="currentColor"/><path d="M115.1 97.7s6.4 5.8-2.6 14.8-16 23-13 44 10 40 10 50-.7 18.2-.7 18.2l-2.3-2.2s-4.9-16.6-9.1-36.2c-1-4.5-2.7-9.1-3.5-13.8-1.6-9-1.9-18.1-2.4-26.5-1.9-32 23.6-48.3 23.6-48.3z" fill="#fff" fill-opacity=".4"/><path d="M144.5 87.5s-51 3-53 55c0 0 0 27 5 42s10 38 10 38l16 16 1 5s9-1 15-1 19 1 19 1c3.8-7.9 10.1-14.2 18-18 13-6 18-8 18-8s-4-35-4-52 12-77-45-78z" fill="none" stroke="#000" stroke-linecap="round" stroke-linejoin="round"/><path d="M144.5 86.5s-51 3-53 55c0 0 0 27 5 42s10 38 10 38l16 16 1 5s9-1 15-1 19 1 19 1c3.8-7.9 10.1-14.2 18-18 13-6 18-8 18-8s-4-35-4-52 12-77-45-78z" fill="none" stroke="#000" stroke-miterlimit="10"/><path d="M158.5 92.5s20 15 18 32-8 28-12 29c5.1 3.7 8.1 9.7 8 16 0 11 1 50 1 50l.3 6.8 19.7-8.8s-3.8-39-3.4-63.5 1.4-55.1-31.6-64.8c0 0-3 1.3 0 3.3z" fill-opacity=".2"/><path d="M124.5 211.5l37-1 4.8 21.2s-8.8 8.8-8.8 11.8c-2 1-10-1-18-1-5.3 0-10.7.4-16 1 0 0-5-19 1-32z" fill="none" stroke="#000" stroke-linecap="round" stroke-linejoin="round"/><path d="M159.5 212.5c-3.1 4-4.5 9-4 14 1 8 2 17 2 17l9-12-5-21-2 2z" fill-opacity=".2" stroke="#000" stroke-width=".75" stroke-linecap="round" stroke-linejoin="round"/></symbol>
<symbol id="face-08"><path d="M212.5 90.5s-19.5-20.5-55-12c-31 8-61 14-64 60-.4 11.8 1 23.6 4 35 5 19 11 42 12 45 0 0 8 9 25 9s56-10 56-10 11-5 12-6-20-60-11-86c0 0 3-7 14-8s14 0 14 0-2-21-7-27z" fill="currentColor"/><path d="M130.5 88.5s-9 6-12 9-16 15-18 28 2 38 4 46 5 21 4 26-2.9 6.7-2.9 6.7-6.1-20.7-8.1-30.7-6-27-1.5-51 34.5-37 34.5-34z" fill="#fff" fill-opacity=".4"/><path d="M212.5 90.5s-18.2-20.2-55-12c-31.2 7-61 14-64 60-.4 11.8 1 23.6 4 35 5 19 11 42 12 45 0 0 8 9 25 9s56-10 56-10 11-5 12-6-20-60-11-86c0 0 3-7 14-8s14 0 14 0-2-21-7-27z" fill="none" stroke="#000" stroke-linecap="round" stroke-linejoin="round"/><path d="M212.5 89.5s-18-19-55-12c-31.2 7.1-61 14-64 60-.4 11.8 1 23.6 4 35 5 19 11 42 12 45 0 0 8 9 25 9s56-10 56-10 11-5 12-6c1.4-.9-20-60-11-86 0 0 3-7 14-8s14 0 14 0-2-21-7-27z" fill="none" stroke="#000" stroke-linecap="round" stroke-linejoin="round"/><path d="M209.5 92.5s-15 0-21 6-16 16-13 41 12 65 12 65l3 13 12-6s-22.8-76.5-7.4-90.2c0 0 2.4-4.8 24.4-3.8 0 0-.4-21-5.7-25h-4.3z" fill-opacity=".2" stroke="#000" stroke-linecap="round" stroke-linejoin="round"/><circle cx="211" cy="103" r="1.5"/><circle cx="195.5" cy="207.5" r="1.5"/><circle cx="182.5" cy="213.5" r="1.5"/><circle cx="165.5" cy="217.5" r="1.5"/><circle cx="146.5" cy="220.5" r="1.5"/><circle cx="129.5" cy="220.5" r="1.5"/><circle cx="114.5" cy="216.5" r="1.5"/></symbol>
<symbol id="face-09"><path d="M143 89s-39 6-64 66 15.5 70.5 34.5 74.5 85 13 102-27-40-117-72.5-113.5z" fill="currentColor"/><path d="M99 121.1s23-25.1 40.5-22.6c7.5 1.9 14.8 4.9 21.9 8 0 0 3.4-9.4 6.1-9 2.2.3-17-9-23-9-11.5.5-35 16.1-45.5 32.6z" fill="#fff" fill-opacity=".2"/><path d="M91.4 140.5s-14 24-12 43 12 26 19 31 9.2 13.3 9.2 13.3-35.7-3.8-36.6-41c0 0 3.2-39.8 30.3-68.6l11.8-10.3c0 .1-17.7 24.6-21.7 32.6z" fill="#fff" fill-opacity=".4"/><path d="M143 88s-39 6-64 66 15.5 70.5 34.5 74.5 85 13 102-27-40-117-72.5-113.5z" fill="none" stroke="#000" stroke-miterlimit="10"/><path d="M143 89s-39 6-64 66 15.5 70.5 34.5 74.5 85 13 102-27-40-117-72.5-113.5z" fill="none" stroke="#000" stroke-miterlimit="10"/><path d="M161.5 106.2c-.6 1.5-1.5 2.8-2 4.3-1 6 2 11 9 19s20 27 21 45 1 35-13 45-24.2 14.1-24.2 14.1 34.7.4 47.8-19.5c11.4-15.6 10.6-36 0-59.8C189 127 171 113 171 113l-9.5-6.8z" fill-opacity=".2"/><circle cx="138.5" cy="106.5" r="2"/><circle cx="111" cy="115" r="2"/><circle cx="164" cy="117" r="2"/><circle cx="185" cy="136" r="2"/><circle cx="194" cy="158" r="2"/><circle cx="201" cy="181" r="2"/><circle cx="200" cy="205" r="2"/><circle cx="183" cy="218" r="2"/><circle cx="164" cy="223" r="2"/><circle cx="142" cy="223" r="2"/><circle cx="118" cy="221" r="2"/><circle cx="97" cy="218" r="2"/><path d="M139.5 98.5s35 3 57 48 13.8 72-24.1 85c-54.9 7-79.9-7-91-16.5-1.5.9-21-20.3-3-60.6 17.3-38.4 44.1-56.9 61.1-55.9z" fill="none" stroke="#000" stroke-miterlimit="10"/><path d="M167.2 97.6c-2.4-.4-5.9 9.1-5.9 9.1s27 14 39 48 8.9 41 5.4 50-17.6 24.6-36 27.8 37.6-2.8 45.6-29.8c11.5-39.5-22.9-80.2-22.9-80.2s-17.6-21.3-25.2-24.9z" fill-opacity=".1"/></symbol>
<symbol id="body-09"><path d="M95.1 227.7s-20.6 4.8-21.6 20.8c-.4 7.1 4.2 12.1 9.6 15.5 4.6 2.8 9.6 4.9 14.8 6.1 0 0-3.2-18.7-2.8-30.7s0-11.7 0-11.7z" fill="currentColor"/><path d="M97.5 301.5s2-21 0-35-2-29-2-36 14-26.1 46-28.1 59-1.9 63 18.1 3 30 3 30 2 53 0 55-110-4-110-4z" fill="currentColor"/><path d="M204.5 220.5s28 1 29 23-16.9 23.5-25.5 24.7c0 0 1.5-34.7-3.5-47.7z" fill="currentColor"/><path d="M207.5 268.8v-.6c0-.3 1.4-34.8-3.5-47.5v-.7h.5c.3 0 28.5 1.3 29.5 23.5 1 21.5-15.8 23.8-24.8 25.1l-1.7.2zm-2.3-47.7c4.4 12.6 3.5 41.9 3.3 46.6l.6-.1c8.7-1.2 24.9-3.5 23.9-24.1-.9-19.3-23.3-22.1-27.8-22.4z"/><path d="M145 254.3c-3.1 0-6.3-.1-9.5-.3-14.1-.9-32.2-4-38.6-13.7-3.4-5.1-2-9.6-1.8-10 5.2-18.8 25.2-28.4 61.1-29.2 23.5-.5 38.1 2.5 44.8 9.3 3.3 3.3 4.8 7.5 4.6 12.8-.2 5.5-3.2 11.1-8.6 16-10.9 9.7-29.5 15.1-52 15.1zm16.4-52.2c-1.7 0-3.5 0-5.3.1-35.4.8-55 10.2-60.1 28.5 0 0-1.4 4.3 1.7 9.1 3.4 5.1 12.8 11.6 37.8 13.2 26.5 1.7 48.6-3.6 60.7-14.6 5.2-4.7 8.1-10.1 8.3-15.3.2-5-1.2-8.9-4.3-12-6-6.1-18.7-9-38.8-9z"/><path d="M87.5 232.5s-9 9-9 14 6 16 2 15-7.6-12-5.8-18.5 11.8-13.5 12.8-10.5z" fill="#fff" fill-opacity=".4"/><path d="M199.9 306.4c-22.8 0-87.5-3.5-102.5-4.4h-.5v-.5c0-.2 2-21.1 0-34.9-2-14-2-28.9-2-36.1 0-7.1 14.3-26.6 46.5-28.5 32.3-2 59.4-1.9 63.5 18.5 4 19.8 3 30 3 30.1.3 8.8 1.9 53.3-.1 55.3-.3.3-3.2.5-7.9.5zM98 301c42.6 2.4 106.5 5.4 109.2 4.1 1.3-1.8.6-34.4-.2-54.6 0-.2.9-10.2-3-29.9-3.9-19.6-30.6-19.6-62.5-17.6C110 204.9 96 223.7 96 230.5c0 7.1 0 22 2 35.9 1.8 12.7.3 31.3 0 34.6z"/><path d="M102.5 227.5s-4 22 38 21c0 0 56 2 57-26s-69-14-69-14-22 6-26 19z" fill-opacity=".4"/><path d="M137.7 249c-15.6 0-26.3-3.3-31.9-9.8-4.8-5.6-3.8-11.5-3.8-11.8v-.1c2.1-6.9 9.2-11.8 14.7-14.7 6-3.1 11.5-4.6 11.6-4.7.2 0 12.5-2.5 26.5-3.3 18.9-1.1 31.8 1.2 38.3 6.7 3.3 2.8 5 6.6 4.8 11-.4 11.7-10.5 20-29.3 24-14 3-28.1 2.5-28.2 2.5-.9.2-1.8.2-2.7.2zM103 227.6c-.1.4-.8 5.9 3.6 11 5.6 6.6 17.4 9.8 33.9 9.4.6 0 55.5 1.7 56.5-25.5.1-4.2-1.3-7.6-4.4-10.2-15.1-12.8-63.5-3.4-64-3.3-.2 0-21.7 6.1-25.6 18.6z"/><path d="M145 254.3c-3.1 0-6.3-.1-9.5-.3-14.1-.9-32.2-4-38.6-13.7-3.4-5.1-2-9.6-1.8-10 5.2-18.8 25.2-28.4 61.1-29.2 23.5-.5 38.1 2.5 44.8 9.3 3.3 3.3 4.8 7.5 4.6 12.8-.2 5.5-3.2 11.1-8.6 16-10.9 9.7-29.5 15.1-52 15.1zm16.4-52.2c-1.7 0-3.5 0-5.3.1-35.4.8-55 10.2-60.1 28.5 0 0-1.4 4.3 1.7 9.1 3.4 5.1 12.8 11.6 37.8 13.2 26.5 1.7 48.6-3.6 60.7-14.6 5.2-4.7 8.1-10.1 8.3-15.3.2-5-1.2-8.9-4.3-12-6-6.1-18.7-9-38.8-9z"/><path d="M95.8 227.3c.3.2.2.4-.2 12.3-.4 11.8 2.8 30.4 2.8 30.6v.7l-.6-.2c-5.3-1.3-10.3-3.4-14.9-6.2-6.9-4.4-10.3-9.8-9.9-16 1-15.7 21.5-21.2 22.8-21.5m-1.1 1.3c-1.4.4-5.6 1.7-9.8 4.2-6.8 4.2-10.5 9.5-10.9 16-.4 5.8 2.8 10.9 9.4 15.1 4.3 2.6 9 4.6 13.9 5.9-.6-3.6-3-19.5-2.7-30 .3-7.7.2-10.3.1-11.2zM207.5 268.8v-.6c0-.3 1.4-34.8-3.5-47.5v-.7h.5c.3 0 28.5 1.3 29.5 23.5 1 21.5-15.8 23.8-24.8 25.1l-1.7.2zm-2.3-47.7c4.4 12.6 3.5 41.9 3.3 46.6l.6-.1c8.7-1.2 24.9-3.5 23.9-24.1-.9-19.3-23.3-22.1-27.8-22.4z"/><path d="M104.5 263.5c-.5 1.9.3 4 2 5 3 2 7 0 6-2s-6-6-8-3zM109.5 276.5s-5-1-5 9c0 6 .3 12 1 18l11 1s-3-5-3-14-1-12-4-14z" fill="#fff" fill-opacity=".4"/><path d="M224.9 263.3s-1.4 20.2 16.6 39.2h-22s-7.4-6.3-11.2-20.7l.2-13.3s9.8-.4 16.4-5.2z" fill="#6d6e70"/><path d="M242.7 303h-23.3l-.1-.1c-.3-.3-7.5-6.6-11.3-20.9v-14h.5c.1 0 9.7-.5 16.1-5.1l.9-.6-.1 1.1c0 .2-1.2 20.2 16.5 38.8l.8.8zm-23-1h20.7c-8.8-9.6-12.7-19.5-14.4-26.1-1.4-5.6-1.6-9.8-1.6-11.6-5.8 3.8-13.4 4.6-15.4 4.7l-.2 12.8c3.5 12.9 9.9 19.3 10.9 20.2z"/><path d="M208.7 282.1l-.6-.8c2.1-4.4 6.7-6.9 11.5-6.3 4.2.5 6.9 1.4 7.8 2.6.4.5.3.8.3.9l-1-.1s-.4-1.6-7.3-2.4c-4.4-.6-8.9 2-10.7 6.1zM216 298.4l-.7-.7c.2-.2 5-4.7 11.2-4.7 3.3-.1 6.7.7 9.7 2.3l-.5.9c-2.8-1.5-5.9-2.3-9.2-2.2-5.7 0-10.4 4.3-10.5 4.4z"/><path d="M217.9 223.4s9.6 6.1 7.6 17.1-8 16.1-17 18.5v9.5s24.1-.1 25-22.5c0 0 2.7-12.6-15.6-22.6z" opacity=".2"/><path d="M76.5 302.5s9-10 8-24l-1-14 14 6s2 24 0 31-21 1-21 1z" fill="#6d6e70"/><path d="M90.1 305.4c-6 0-13.4-2.3-13.8-2.4l-.7-.2.5-.6c.1-.1 8.8-10 7.9-23.6l-1.1-14.8 15 6.4v.3c.1 1 2 24.2 0 31.2-.3 1.2-1.1 2.1-2.3 2.7-1.3.7-3.3 1-5.5 1zm-12.7-3.2c2.8.8 13.4 3.6 17.9 1.2.9-.5 1.5-1.2 1.8-2.1 1.8-6.4.2-27.7 0-30.5l-13-5.6.9 13.2c.9 12.2-5.7 21.5-7.6 23.8z"/><path d="M97.9 283.4s-4.6-3.4-13.3-1.5l-.2-1c9.2-2 13.9 1.5 14.1 1.6l-.6.9zM97.3 299.8c-.3-.7-2.7-6.2-16.4-3.5l-.2-1c14.6-2.8 17.1 2.8 17.2 3l-.6 1.5z"/><path d="M90.5 270.5s7 25 0 32l7-1 .9-14.2-.9-14.6v-2.1l-8.8-3.8 1.8 3.7zM85.5 273.5s5 22-2 29-4.6-3.3-4.6-3.3 4.7-4.7 5.7-15.2l.9-10.5M225.8 272.9s-12.3-6.4-12.3.6 11 28 14 31-6 0-6 0-8-6.9-12.4-19.9c-2.3-6.9-.8-15.5-.8-15.5l16.4-5.2 1.1 9z" fill-opacity=".2"/><path d="M197.5 304.5s4-34 0-53c-2.4-11.4-2.6-11.5-2.6-11.3 0 0 8.6-4.4 10.1-17 .4-3.3.5 0 1.2 2.4 3.4 11.1 2.2 42.9 2.2 42.9v37l-10.9-1z" fill-opacity=".2"/><circle cx="104" cy="254" r="1.5"/><circle cx="115.5" cy="258.5" r="1.5"/><circle cx="129.5" cy="261.5" r="1.5"/><circle cx="146.5" cy="262.5" r="1.5"/><circle cx="164.5" cy="260.5" r="1.5"/><circle cx="180.5" cy="255.5" r="1.5"/><circle cx="193.5" cy="248.5" r="1.5"/><circle cx="202.5" cy="241.5" r="1.5"/><g><path d="M139.5 181.5l1 39s0 7 10 7 11-10 11-10c-1.3-5.3-2.3-10.6-3-16-1-8 0-20 0-20h-19z" fill="#6d6e70"/><path d="M150.5 228c-10.4 0-10.5-7.4-10.5-7.5l-1-39.5h20v.5c0 .1-1 12 0 19.9.7 5.3 1.7 10.7 3 15.9v.2c0 .2-1.2 10.5-11.5 10.5zM140 182l1 38.5c0 .3.1 6.5 9.5 6.5 9.1 0 10.4-8.5 10.5-9.5-1.3-5.2-2.3-10.6-3-16-.9-7-.2-17.1 0-19.6h-18z"/></g><path d="M148.6 188.5c-2.4 0-5.4-.2-9-.5l.1-1c13.1 1.3 16.5-.3 17.4-1 .5-.3.7-1.3.7-1.3l.7.7c0 .1 0 .6-.6 1.2-.9 1-3.4 1.9-9.3 1.9zM151.8 201c-2.6 0-6.3-.5-11.5-2l-.2-1.1c10.7 3.1 15 2 16.4 1 1.2-.8 1.1-2.4 1.1-2.4l.9 1s0 1.2-1.3 2.2c-.9.7-2.6 1.3-5.4 1.3zM151 214.8c-2.8 0-6.5-.5-11.2-1.8l.3-1c16.9 4.8 19.4-1.6 19.4-1.7l.9.3c0 .3-1.4 4.2-9.4 4.2z"/><path d="M151.5 183.5c-1.2 3.2-1.2 6.8 0 10 2 5 5 18 4 24-.5 3.3-1.3 6.6-2.4 9.7 0 0 .5-.6 1.5-.8 1.9-.6 7.6-5.2 6.9-8.9-1-5-2.4-8.5-3.2-17.8-.5-6.1-.4-12.2.2-18.2h-6.4l-.6 2z" fill-opacity=".2"/></symbol>
<symbol id="body-08"><g fill="currentColor"><path d="M125.5 286.5s-5 5-4 15l83 1s-2-19-13-22-16-2-16-2h-.4l.4 4s-4.6 7.2-15.8 7.1-13.6-2.8-15.9-5.9c0 0-1.3-4.5-.8-6.8 0 0-7.5.6-17.5 9.6z"/><path d="M143.5 272.5c-.1.5-.2.9-.2 1.4 0 2.5 1.7 7.6 15.2 7.6 18 0 16-9 16-9s-1-5-13-5-16 1-18 5z"/><path d="M143.5 282.5s0 6 14 7 18-7 18-7l-1-10s-.1-5-15.6-5-14.4 4-15.4 6c-.4 1.3-.6 2.7-.4 4 0 2.5.4 5 .4 5z"/></g><path d="M166 276l4 3s1.2-.5 2.2-1.4c1.5-1.4 3-3.8 1.8-5.6-2-3-2.4-2.1-2.4-2.1l-.8 3.9-4.8 2.2z" fill="#020202" fill-opacity=".4"/><path d="M143.5 282.5s0 6 14 7 18-7 18-7l-1-10c-2.8 12.9-32.5 10.7-31 1-.3 1.3-.4 2.7-.4 4 0 2.5.4 5 .4 5z" fill-opacity=".2"/><path d="M143.5 272.5c-.1.5-.2.9-.2 1.4 0 2.5 1.7 7.6 15.2 7.6 18 0 16-9 16-9s-1-5-13-5-16 1-18 5z" fill="#fff" fill-opacity=".4"/><path d="M158.5 282c-4.7 0-15.7-.8-15.7-8.1 0-.5.1-1 .2-1.5v-.1c2.1-4.1 6-5.3 18.4-5.3 12.3 0 13.4 5.2 13.5 5.4 0 .1.5 2.6-1.4 5-2.4 3.1-7.4 4.6-15 4.6zm-14.5-9.3c-.1.4-.2.8-.2 1.2 0 6.4 10.3 7.1 14.7 7.1 9 0 12.7-2.3 14.3-4.2 1.7-2.1 1.2-4.1 1.2-4.2 0-.1-1.2-4.6-12.5-4.6-11.9 0-15.7 1-17.5 4.7z"/><path d="M159.9 290.1c-.8 0-1.6 0-2.4-.1-13.9-1-14.4-6.9-14.5-7.5 0-.3-.4-2.7-.4-5-.1-1.4 0-2.8.5-4.2l.3-.9c.8-2.3 1.8-5.5 15.6-5.5 15.7 0 16.1 5.3 16.1 5.5l1 10.1-.1.1c-.2.4-3.9 7.5-16.1 7.5zm-15.9-7.6c0 .1.3 5.6 13.5 6.5 12.5.9 16.9-5.6 17.5-6.6l-1-9.8c0-.1-.5-4.5-15.1-4.5-13.1 0-14 2.9-14.6 4.8-.1.3-.2.6-.4.9-.4 1.2-.5 2.4-.4 3.7.1 2.4.5 4.9.5 5z"/><path d="M134.5 281.5s5-1 3 2-7 4-9 9c-1.2 2.9-1.6 6-1.2 9.1l-5.8-.1s-1.5-12.9 8.2-18.5c1.5-.8 3.1-1.3 4.8-1.5z" fill="#fff" fill-opacity=".4"/><path d="M168.2 288.6s15.3-5.1 20.3-1.1 5 12 5 14 10.8.7 10.8.7-2.5-18-10.7-20.8c-5.8-2-12-3-18.1-2.8v4c0-.1-5.6 6.1-7.3 6z" fill-opacity=".4"/><path d="M205.1 303l-84-1v-.4c-1-10.1 3.9-15.2 4.1-15.4 10.2-9.2 17.8-9.8 17.8-9.8h.6l-.1.6c-.4 2 .6 5.9.8 6.5 2 2.7 4.1 5.6 15.4 5.6h.2c9.8 0 14.4-5.7 15.1-6.7l-.4-4.3h.9c.6-.1 5.7-.9 16.2 2 11.2 3.1 13.3 21.6 13.4 22.4v.5zm-83.1-2l82 1c-.4-3.1-3.1-18.4-12.6-21-10.1-2.8-15.1-2.1-15.7-2l.4 3.6-.1.1c-.2.3-4.9 7.3-16 7.3h-.2c-11-.1-13.7-2.6-16.3-6.1l-.1-.2c0-.2-1.1-3.8-.9-6.4-1.9.4-8.4 2.1-16.6 9.4-.3.4-4.7 5.2-3.9 14.3z"/><path d="M170.3 279.3v7.9s5.2-3.7 5.2-4.7-.9-9.4-.9-9.4.6 4.1-4.3 6.2z" fill-opacity=".4"/><path d="M143 201s8 21 7 38-2 35-2 35 .5 3.5 10.5 3.5 13-5 13-5 0-37-3-53-8-22-8-22-13 3-17.5 3.5z" fill="#6d6e70"/><path d="M158.5 278c-10.1 0-10.9-3.5-11-3.9 0-.1 1-18.1 2-35.1 1-16.7-6.9-37.6-7-37.8l-.2-.6.6-.1c4.4-.5 17.3-3.5 17.4-3.5l.3-.1.2.2c.2.2 5.1 6.3 8.1 22.2 3 15.9 3 52.7 3 53.1v.1l-.1.1c0 .4-3.1 5.4-13.3 5.4zm-10-4c.1.3 1.3 3 10 3 8.8 0 12-4 12.5-4.7 0-2.6-.1-37.5-3-52.8-2.6-13.9-6.8-20.3-7.7-21.5-2 .4-12.1 2.7-16.6 3.4 1.3 3.6 7.7 22.3 6.8 37.6-1 16.4-1.9 33.7-2 35z"/><path d="M153.9 199s6.6 15.5 8.6 28.5 4 24 4 33v15.6s5-1.6 5-3.6 1.2-37.5-5.4-62.8c0 0-3.6-10.2-5.6-12.2l-6.6 1.5z" fill-opacity=".2"/><path d="M153.4 227.2c-2 0-3.4-.2-3.5-.2l-.2-1c.1 0 14.8 2.2 18-7.9l1 .3c-1.4 4.6-5.2 7.5-10.8 8.5-1.6.2-3.2.3-4.5.3zM156.4 241.2c-5.4 0-6.3-3.4-6.3-3.5l.6-1.9c.3 1.6 1.4 5.2 7.8 4.3 6.9-1 10.7-4 11.6-5.7l.5.8c-1.2 2.3-5.1 5-12 5.9-.8 0-1.6.1-2.2.1zM156.5 255c-6.3 0-7.3-4.1-7.4-4.3l1-.2-.5.1.3-1.5c.6 1.9 1.1 4.9 6.6 4.9 5.8 0 13.2-3.4 14.3-5.5l.7.8c-1.5 2.6-9 5.7-15 5.7zM153.5 216c-5.2 0-6.4-2.2-6.4-2.3l-1.8-7.6c2.1 6.3 3.7 8.9 8.2 8.9 4.1 0 10.2-3.2 11.7-5.1.3-.4.3-.6.3-.6l1-.2c.1.4-.1.9-.5 1.4-1.7 2.1-8.1 5.5-12.5 5.5zM155.1 267.1c-2.2 0-3.9-.5-5.1-1.6-1.5-1.3-1.5-3-1.5-3.1h1-.5l.3-2.2c.1 1.7.3 3.5 1.4 4.5 1.3 1.1 3.5 1.5 6.4 1.2 7.2-.9 12.3-3.1 13.7-6l.9.4c-1.5 3.2-6.9 5.7-14.5 6.6-.7.2-1.4.2-2.1.2z"/></symbol>
<symbol id="body-06"><path d="M145.5 301.5s-1-18-1-23c0 0 .4-3.4 15.7-2.2s10.1-.3 10.1-.3 5.2-.5 5.2 2.5 0 19 3 23h-33z" fill="currentColor"/><path d="M159.5 286.5s16-1 16-8c0 0 4-3-14-2h-12s-5 0-5 2-1 7 15 8z" fill="#fff" fill-opacity=".2"/><path d="M159.5 287c-15.7-1-15.6-5.8-15.5-8.2v-.3c0-2.4 4.9-2.5 5.5-2.5h12c12.5-.7 14.5.5 14.8 1.5.2.5-.1.9-.3 1.2-.3 7.2-15.8 8.3-16.5 8.3zm8.4-10.2c-1.7 0-3.8.1-6.4.2h-12c-1.8 0-4.5.5-4.5 1.5v.3c0 2-.2 6.2 14.5 7.2.8-.1 15.5-1.2 15.5-7.5v-.2l.2-.2c.1-.1.2-.2.2-.3-.1-.1-.7-1-7.5-1z"/><path d="M179.5 302H145v-.5c0-.2-1-18.1-1-23 .1-.7 1.2-3.9 16.2-2.7 5.1.4 7.7.5 9.1.5l-1.6-.5 2.6-.3c.1 0 3.4-.3 4.9 1.1.5.5.8 1.1.8 1.9 0 12 1.1 20.2 2.9 22.7l.6.8zm-33.5-1h31.6c-2.3-4.4-2.6-15.8-2.6-22.5 0-.5-.2-.9-.5-1.2-.7-.6-1.9-.8-2.8-.8v.1c-.1.6-.2 1.1-11.5.2-14.2-1.1-15.1 1.8-15.1 1.8-.1 4.4.7 19.5.9 22.4z"/><path d="M167.5 282.5l4.8.7.6 18.3h5.7s-2.6-3-2.8-15l-.2-8s-1-3-4-2.5v3.5c-1 1.5-2.4 2.5-4.1 3z" fill-opacity=".2"/><circle cx="164" cy="291" r="1.5"/><circle cx="155.5" cy="291.5" r="1.5"/><circle cx="148.5" cy="288.5" r="1.5"/><circle cx="171.5" cy="288.5" r="1.5"/><path d="M146 200s3 68 2 79c0 0 2 6 12 5s11.5-4.5 11.5-4.5-3-75-2-80c0 0-18 0-23.5.5z" fill="#6d6e70"/><path d="M157.8 284.6c-8.4 0-10.2-5.2-10.3-5.5v-.2c1-10.8-2-78.3-2-78.9v-.5h.5c5.5-.5 23.4-.5 23.5-.5h.6l-.1.6c-1 4.9 2 79.1 2 79.9v.2c-.1.2-1.7 3.8-11.9 4.8-.8.1-1.6.1-2.3.1zm-9.3-5.7c.3.7 2.5 5.5 11.4 4.6 8.6-.9 10.7-3.6 11-4.1-.2-4.5-2.8-71-2.1-79.4-3 0-17.1.1-22.4.5.4 6.1 3 67.7 2.1 78.4z"/><path d="M161.5 200.5s0 20 1 27 3 24 4 35c.6 6.6.8 13.3.6 20 0 0 4.4-2 4.4-3s-1.4-41.7-1.7-48.3-.3-31.7-.3-31.7h-8v1z" fill-opacity=".2"/><path d="M159.5 214c-4.6-.1-9.2-1.2-13.3-3.3l.4-.9c4 2 8.4 3.1 12.9 3.2 6.6 0 9.4-3 9.4-3.1l.8.7c-.1.1-3.1 3.4-10.2 3.4zM160.5 226c-4.6-.1-9.2-1.2-13.3-3.3l-.2-1.2c4 2 9 3.4 13.5 3.5 6.6 0 9.4-3 9.4-3.1l-.1 1c.2.3-2.2 3.1-9.3 3.1zM160.5 238c-4.6-.1-9.2-1.2-13.3-3.3l.4-.9c4 2 8.4 3.1 12.9 3.2 6.6 0 9.4-3 9.4-3.1l.1 1c-.3.2-2.4 3.1-9.5 3.1zM160.5 250c-4.6-.1-9.2-1.2-13.3-3.3l.4-.9c4 2 8.4 3.1 12.9 3.2 6.6 0 9.4-3 9.4-3.1l.8.7c-.1.1-3.1 3.4-10.2 3.4zM161.5 263c-4.6-.1-9.2-1.2-13.3-3.3l.2-1c4 2 8.7 3.2 13.1 3.3 6.6 0 9.4-3 9.4-3.1l.2 1.2c-.7.5-2.5 2.9-9.6 2.9zM161.5 275c-4.6-.1-9.2-1.2-13.3-3.3l.4-.9c4 2 8.4 3.1 12.9 3.2 6.6 0 9.4-3 9.4-3.1l.8.7c-.1.1-3.1 3.4-10.2 3.4z"/><path d="M144.5 281.5l1 20h34c-1.8.5-4.1-6-4-23 0 0-1 8-15 8s-15-4-16-5z" fill-opacity=".2"/></symbol>
<symbol id="body-07"><g fill="currentColor"><path d="M158.7 234.2s-59 1-84 42 23 42 23 42l132-13s-5-16 5-27 19-6 19-6-34-41-95-38z"/><path d="M277.5 301.5c-.3-7.3-4.1-15.6-12-25 0 0-11.5-8-25.3-2.7-7.7 4.7-13.7 11.7-11.7 28.7l49-1zM74.5 276.5c-11 0-21.1 6.2-26 16-9 17 10 17 10 17l8.8-9.5s-2.8-6.5 7.2-23.5z"/></g><path d="M97.5 319c-.2 0-5.5-.1-11.7-1.8-8.2-2.2-14.1-6.1-16.9-11.4-4.1-7.4-2.3-17.4 5.2-29.6 24.8-40.6 83.4-42.2 84.4-42.2 60.5-3 95.1 36.8 95.4 37.2.2.2.2.4 0 .6-.1.2-.4.3-.6.2-.4-.2-8.8-3.7-18.4 6.9-9.7 10.7-4.9 26.4-4.9 26.5 0 .1 0 .3-.1.4-.1.1-.2.2-.4.2l-132 13zm67.4-84.2c-2.1 0-4.2.1-6.4.2-.6 0-59 1.5-83.6 41.8-7.3 11.9-9 21.6-5.1 28.6 6.6 12 27.5 12.6 27.7 12.6l131.4-12.9c-.8-3-3.7-17 5.3-26.9 7.5-8.3 14.6-8.2 17.8-7.6-6.3-6.5-37-35.8-87.1-35.8zm-6.4-.3z"/><path d="M215 245s6.5 1.5-.5 16.5-13 26-10 41 24.3 0 24.3 0-3.6-15.8 7-25.4c12.9-11.6 20-3.9 16.9-5.9.4-.4-17.2-17.6-37.7-26.2z" fill-opacity=".2"/><path d="M97.5 319c-.2 0-5.5-.1-11.7-1.8-8.2-2.2-14.1-6.1-16.9-11.4-4.1-7.4-2.3-17.4 5.2-29.6 24.8-40.6 83.4-42.2 84.4-42.2 60.5-3 95.1 36.8 95.4 37.2.1.2.2.4.1.6-.1.2-.3.3-.5.2-.1 0-11.8-1.8-18.5 6.8-9.7 10.7-5 26.4-4.9 26.5 0 .1 0 .3-.1.4-.1.1-.2.2-.4.2L97.5 319zm67.4-84.2c-2.1 0-4.2.1-6.4.2-.6 0-59 1.5-83.6 41.8-7.3 11.9-9 21.6-5.1 28.6 6.6 12 27.5 12.6 27.7 12.6l131.4-12.9c-.8-3-3.7-17 5.3-26.9 5.7-7.3 14.7-7.5 18.1-7.3-5.5-5.8-36.4-36.1-87.4-36.1zm-6.4-.3z"/><path d="M62.5 280.5s5 0 0 9-8 11-9 14-6.5-2.3-6.5-2.3-3.2-4.8 5.6-14.7c0-.1 4.9-6 9.9-6z" fill="#fff" fill-opacity=".4"/><path d="M58.7 310h-.2c-.4 0-8.7-.1-11.8-5.2-1.9-3.1-1.4-7.3 1.4-12.5 5-10 15.2-16.3 26.4-16.3h.9l-.4.8c-9.7 16.5-7.2 23-7.2 23.1l.1.3-.2.2-9 9.6zm14.9-33c-10.5.3-19.9 6.3-24.7 15.7-2.6 4.9-3.1 8.8-1.4 11.5 2.6 4.2 9.4 4.7 10.7 4.7l8.4-9.1c-.3-1.4-1.4-8.1 7-22.8z"/><path d="M77.5 301.5s0-19 13-30 16-5 15-2-14 24-14 32-14 0-14 0z" fill="#fff" fill-opacity=".4"/><path d="M228.1 303l-.1-.5c-2.1-18 4.9-24.9 12-29.2h.1c8.9-3.1 16.6-2.7 22.9 1.1 12.5 7.7 15 26.8 15.1 27l.1.6-50.1 1zm12.3-28.7c-6.8 4.1-13.4 10.6-11.5 27.7l48-1c-.5-3.2-3.6-19-14.5-25.7-6-3.7-13.4-4-22-1z"/><path d="M261.5 304.5s4-7 3-15-8.4-17-8.4-17c8.6 1.9 15.7 8.4 18.8 16.7 2.3 4.7 3.2 10.1 2.6 15.3h-16z" fill-opacity=".2"/><path d="M103.5 303.5s2-30 41-29 41 29 41 29h-11.2c-.8-2-12.1-18.6-30.8-18-15.9-.4-26.9 4.6-30.5 18h-9.5z" fill="#fff" fill-opacity=".2"/><path d="M186 304h-12.1l-.1-.3c-.7-1.9-12-18.3-30.3-17.7-17-.4-26.8 5.4-30 17.6l-.1.4H103v-.5c0-.3 2.5-30.5 41.5-29.5 11.2.3 26.5 3.1 35.5 15.1 5.4 7.2 6 14.1 6 14.4v.5zm-11.5-1h10.4c-.6-3.9-5.4-27.1-40.4-28-15.8-.4-27.8 4.4-34.7 13.9-4.4 6.1-5.5 12.3-5.7 14.1h8.6c3.5-12.5 13.6-18.4 30.9-18 18.8-.6 29.4 15.5 30.9 18z"/><path d="M113.5 301.5s3-16 28-16 32 17 32 17l-60-1z" fill-opacity=".2"/><path d="M174.3 303l-61.4-1 .1-.6c0-.2 3.4-16.4 28.5-16.4 13.1 0 21.2 4.7 25.7 8.6 4.9 4.3 6.7 8.5 6.8 8.7l.3.7zm-60.2-2l58.5 1c-1.7-3.2-9.8-16-31.2-16-21.5 0-26.4 12.2-27.3 15z"/><path d="M118.5 300.5s9-12 24-11 24 12 24 12l-48-1z" fill="#f9ec31"/><path d="M167.6 302l-50.1-1 .6-.8c.1-.1 9.3-12.2 24.4-11.2 15 1 24.3 12.1 24.4 12.2l.7.8zm-48.1-2l45.8 1c-2.5-2.6-10.7-10.2-22.9-11-12.3-.8-20.5 7.4-22.9 10z"/><circle cx="125.5" cy="283.5" r="1"/><circle cx="113" cy="291" r="1"/><circle cx="148" cy="280" r="1"/><circle cx="170" cy="289" r="1"/><path d="M147 200s0 44 1 45c3.6 3.8 9 5.3 14 4 8-2 7-7 7-7-1.5-8.1-2.4-16.3-2.5-24.5v-19s-18 0-19.5 1.5z" fill="#6d6e70"/><path d="M158.4 250c-4 0-7.9-1.6-10.8-4.6-1-1-1.1-28.8-1.1-45.3v-.2l.1-.1c1.6-1.6 16.8-1.6 19.9-1.6h.5v19.5c.1 8.2 1 16.4 2.5 24.4 0 0 1 5.5-7.4 7.6-1.2.1-2.4.3-3.7.3zm-10-5.3c3.5 3.6 8.6 5.1 13.5 3.8 7.5-1.9 6.6-6.4 6.6-6.4-1.5-8.1-2.4-16.4-2.5-24.6V199c-8.2 0-17.1.5-18.5 1.3 0 17 .2 42.6.9 44.4z"/><path d="M159.5 202.5s1 17 2 23 2 22.8-2 23.9c0 0 9.6-.9 9.3-8.4s-2.4-19.2-2.4-30.3.1-12.2.1-12.2l-7 .1v3.9z" fill-opacity=".2"/><path d="M152.4 237c-4.6 0-5.5-3.1-5.5-3.2l.6-.4c0 .1 1 2.7 4.9 2.7 4.1 0 12.5-1.3 14.6-4.4l.8.5c-2.4 3.6-11.4 4.8-15.4 4.8zM152.5 222.5c-4.3 0-5.4-2.9-5.5-3l.5-2.7c-.2 1.4 1.4 4.7 5 4.7 4.5 0 11.8-1.4 13.5-3.9l.8.6c-2.2 3.2-10.6 4.3-14.3 4.3zM152.5 210.5c-4.3 0-5.4-2.1-5.4-2.2l.9-.5-.4.2v-3.4c.1 3.1 1.4 4.8 5 4.8 4.6 0 11.8-1 13.6-2.8l.7.7c-2.4 2.4-10.7 3.2-14.4 3.2z"/></symbol>
<symbol id="body-05"><g fill="currentColor"><path d="M194.5 244.5s-19 1-19 17 11 21 17 21 20-2 19-20-17-18-17-18z"/><path d="M181.5 247.5c-7.4-3.8-15.8-5.2-24-4-14 2-28 14-30 19s-3 9 0 17 3 20 1 22h68s.7-18.4-.7-19.2c0 0-21.3 1.2-20.3-19.8-.8-5.5 1.8-11 6.7-13.9l-.7-1.1z"/><path d="M137.4 252.1s-.9-4.6-11.9-3.6-13 12-13 18 4 13 12 14c0 0 3 0 3-1 0 0-3.2-6.4.4-16.7 0 0 5.4-8 9.5-10.7z"/></g><path d="M192.5 283c-2.9 0-7.4-1.2-11.1-4.6-2.9-2.7-6.4-7.8-6.4-16.9 0-16.3 19.3-17.5 19.5-17.5.2 0 16.5.2 17.5 18.5.4 6.4-1.1 11.5-4.5 15-4.5 4.8-11.3 5.5-15 5.5zm2-38c-.3 0-4.8.3-9.3 2.5-6.1 2.9-9.2 7.6-9.2 14 0 16.8 11.9 20.5 16.5 20.5 3.5 0 10-.7 14.3-5.2 3.1-3.3 4.5-8.1 4.2-14.2-1-17.3-15.7-17.6-16.5-17.6z"/><path d="M194.9 244.9s8.6 5.6 6.6 18.6-9.8 17.8-14.4 17.9c0 0 21.4 6.8 24.4-15.5 0-.1.4-21-16.6-21z" fill-opacity=".2"/><path d="M197 302h-69.7l.9-.9c1.8-1.8 1.9-13.5-1.1-21.5-3.1-8.3-2-12.4 0-17.4 2.2-5.4 16.5-17.3 30.4-19.3 8.4-1.3 16.8.1 24.3 4.1l.1.1 1 1.7-.4.3c-4.7 2.8-7.2 8-6.4 13.4-.3 6.1 1.3 10.8 4.6 14.1 5.8 5.7 15.1 5.3 15.2 5.3h.2l.1.1c1.4.8 1.2 12.7.9 19.6l-.1.4zm-67.6-1H196c.3-8.1.2-16.8-.4-18.2-1.6 0-10.1 0-15.7-5.6-3.5-3.5-5.2-8.5-4.9-14.7-.8-5.5 1.8-11 6.5-14l-.3-.6c-7.3-3.8-15.4-5.1-23.6-3.9-13.3 1.9-27.6 13.6-29.6 18.7-1.9 4.7-3 8.7 0 16.6 2.7 7.3 3 18.1 1.4 21.7z"/><path d="M195.5 282.5s7 11 6 19h12s2.6-14.7-7.1-23.2c0 0-2.9 4.2-10.9 4.2z" fill="#6d6e70"/><path d="M213.9 302h-13l.1-.6c1-7.7-5.9-18.6-5.9-18.7l-.5-.8h.9c7.6 0 10.5-4 10.5-4l.3-.5.4.4c9.9 8.6 7.3 23.5 7.3 23.7l-.1.5zm-11.8-1h11c.3-2.4 1.5-14.5-6.6-22-1 1.1-4 3.7-10.1 4 1.5 2.6 6.2 11.1 5.7 18z"/><path d="M202.2 292.2c-.8 0-1.6 0-2.4-.1l.1-1c4.6.4 7.9-.4 9.7-2.1 1.6-1.6 1.4-3.4 1.4-3.5l1-.1c0 .1.2 2.3-1.7 4.3-1.6 1.6-4.3 2.5-8.1 2.5z"/><path d="M136.5 260.5c-.8.1-1.5.4-2 1-1 1-3 5 0 5s4-1 4-3-1-3-2-3zM133.5 270.5c-1.4.9-2.1 2.4-2 4 0 3 1 6 2 12s.7 14-1.7 15 6.7 0 6.7 0 4-16 0-25c0 0-2-7-5-6z" fill="#fff" fill-opacity=".4"/><path d="M161.5 253.5s9 2 11 10 2 28 2 28v12l22 1v-19c.1-1.1-.3-2.2-1-3 0 0-22-1-20-21 0 0 0-9 7-13-4.3-2.7-9.1-4.4-14.1-5.1l.1 5.1c-1.5 2.6-4.1 4.4-7 5z" fill-opacity=".2"/><path d="M157.5 261c-6.9 0-11.1-3.1-13.3-5.7-2.5-2.8-3.3-5.6-3.3-5.7l1-.3c.1.4 3.2 10.7 15.7 10.7 7.1 0 11.6-3 14.2-5.6 3-3.1 4.4-6.7 4.3-8.9h1c0 2.9-1.8 6.7-4.6 9.6-2.8 2.7-7.5 5.9-15 5.9zM168.9 301.7l-.9-.4c.7-1.3.4-11.5 0-18.3l-22 1c.8 6.1-1 17.1-1.1 17.6l-1-.2c0-.1 2-12 1-17.8l-.1-.6 24.1-1v.5c.2 1.7 1.1 17.2 0 19.2z"/><path d="M118.5 252.5s5-3 3 1-5 5-6 11 4 11 4 11 2 2-1 2-7.7-8-5.3-17c.9-3.1 2.8-5.9 5.3-8z" fill="#fff" fill-opacity=".2"/><path d="M124.5 281c-8.2-1-12.5-8.1-12.5-14.5 0-4.1 1-17.4 13.5-18.5 11.3-1 12.4 3.8 12.4 4.1l.1.3-.3.2c-6.2 4-10.3 9.5-11.5 15.6-.8 4.1-.2 8.3 1.7 11.1l.1.1v.2c0 1.3-2.4 1.4-3.5 1.4zm3.9-32.1c-.9 0-1.8 0-2.9.1-11.6 1.1-12.5 13.7-12.5 17.5 0 6 4 12.6 11.6 13.5 1.1 0 2.1-.2 2.4-.4-2-3-2.6-7.3-1.7-11.6 1.2-6.2 5.4-11.8 11.6-16-.5-.9-2.2-3.1-8.5-3.1z"/><path d="M119.4 278.8s-3.9 5.7-4.9 10.7 1 12 1 12h10s-1-7 1-12 2.5-4.7 2.5-4.7l-1.5-5.3s-1.3 1.4-4.6.7-3.9-1.4-3.9-1.4" fill="#6d6e70"/><path d="M126.1 302h-11l-.1-.4c-.1-.3-2-7.2-1-12.2 1-5 4.8-10.7 4.9-10.9l.2.2.2-.2s.6.6 3.6 1.2 4.1-.5 4.2-.6l.6-.6 2.1 7.5-.8-.6c-.3.3-.9 1.3-2 4.3-1.9 4.8-1 11.7-1 11.7l.1.6zm-10.2-1h9.1c-.2-1.8-.6-7.4 1.1-11.7 1.3-3.2 2-4.3 2.4-4.7l-1.2-4.3c-.7.4-2.2.8-4.4.4-1.7-.4-2.8-.7-3.4-1-1 1.6-3.6 6-4.4 9.9-.9 4.2.4 9.9.8 11.4z"/><path d="M122.6 290.5c-5.4 0-7.7-3.1-7.8-3.3l.8-.6c.1.2 3.2 4.3 10.8 2.4l.2 1c-1.5.4-2.8.5-4 .5z"/><circle cx="158.5" cy="257.5" r="1"/><circle cx="150" cy="255" r="1"/><circle cx="146" cy="251" r="1"/><circle cx="168" cy="254" r="1"/><circle cx="172" cy="247" r="1"/><path d="M125 280.4s-4.5 3.6-3.2 21.1h3.2s-1-11.5 4-16.5l-1.6-5.1-2.4.5zM202 281.3s7 11.7 7 20.7 4.8-1.4 4.8-1.4S215 286 206 278c-.8 1.6-2.3 2.8-4 3.3z" fill-opacity=".2"/><path d="M147 200s-1 42 2 50c0 0 12 9 20-2 0 0-3.5-26.5-3.5-48.5-6.2-.6-12.4-.4-18.5.5z" fill="#6d6e70"/><path d="M159 254c-5.5 0-10.1-3.4-10.3-3.6l-.1-.1-.1-.1c-3-8-2.1-48.5-2-50.2v-.4l.4-.1c6.2-.9 12.4-1.1 18.6-.5h.5v.5c0 21.7 3.5 48.2 3.5 48.4v.2l-.1.2c-2.3 3.2-5.2 5-8.5 5.5-.6.1-1.3.2-1.9.2zm-9.6-4.3c.8.6 6 4 11.3 3.2 3-.5 5.6-2.1 7.7-5-.3-2.5-3.4-27.2-3.5-47.9-5.8-.5-11.7-.3-17.5.5 0 4.3-.7 41.5 2 49.2z"/><path d="M157.3 215c-7.6 0-10.6-1.4-10.7-1.4l.4-.9s2.9 1.3 10.3 1.3c7.1 0 8.2-2.7 8.2-2.7l.8.5c-.1.1-1.1 3.2-9 3.2zM157.3 227c-7.6 0-10.6-1.4-10.7-1.4l.4-.9s2.9 1.5 10.3 1.3c8.1-.1 8.6-3.9 8.6-4l.5 1.6c0 .2-1.2 3.4-9.1 3.4zM155.1 241c-2.7 0-5.4-.7-7.8-2.1l.5-.9c2.4 1.3 5 2 7.7 1.9 5.1 0 11-1.6 11.7-3.9l1 .3c-1 3.2-8 4.6-12.6 4.6-.2.1-.4.1-.5.1z"/><path d="M158.7 199.2s.8 11.3 1.8 18.3 2 15 2 20 .3 13.9-1.3 16c0 0 4.5.3 7.5-5.7 0 0-3.1-26.3-3.1-33.3v-15l-6.9-.3z" fill-opacity=".2"/><circle cx="148" cy="286" r=".5"/><circle cx="165.5" cy="285.5" r=".5"/></symbol>
<symbol id="body-10"><g fill="currentColor"><path d="M222.5 301.5s-10-35 11-53 58-15 70 2 2 51 2 51h-83z"/><path d="M83.5 254.5s-6 28 67 26 77-30 76-36-12.3-10.1-26-13c0 5 1 22 1 22s-8 13-46 17c-29 1-45-9-45-9s-1.5-16-2.5-23.1c-11.5 3.4-22.5 9.1-24.5 16.1z"/><path d="M110.5 261.5s20 11 44 9 36-7 47-17l-1-24c.2 1.5.1 3-.3 4.4-.7 1.6-4.6 16.8-42.2 19.7s-47-4.1-50-16.1l2.5 24z"/><path d="M83.5 250H227v58.5H83.5z"/><path d="M87.5 247.5s-19-10-37-5-29 20-32 37c-1 11 1 16 3 20h64s2-5 0-16-3-23-2-29 4-7 4-7zM108 237s-1 20 45 17 48.5-20.5 47.5-24.5c-.9-3.6-13.7-10.6-39-9.6 0 .6.3 3.3.3 3.3 1.7 9.3.7 15.3-9.3 16.3-3.4.3-10-5-10-5s-1-8-1-13c-21.1 3.1-33.1 8.5-33.5 15.5z"/></g><path d="M108 237s-1 20 45 17 48.5-20.5 47.5-24.5c-.9-3.6-13.7-10.6-39-9.6 0 .6.3 3.3.3 3.3 1.7 9.3.7 15.3-9.3 16.3-3.4.3-10-5-10-5s-1-8-1-13c-21.1 3.1-33.1 8.5-33.5 15.5z" fill-opacity=".6" stroke="#000" stroke-miterlimit="10"/><path d="M110.5 261.5s20 11 44 9 36-7 47-17l-1-24c.2 1.5.1 3-.3 4.4-.7 1.6-4.6 16.8-42.2 19.7s-47-4.1-50-16.1l2.5 24z" fill="none" stroke="#000" stroke-linecap="round" stroke-linejoin="round"/><path d="M193.4 260.1c-6.7 3.8-18.3 8.3-37.9 10.4-29 1-45-9-45-9s-1.5-16-2.5-23.1c-11.5 3.4-22.5 9.1-24.5 16.1 0 0-6 28 67 26 29.6-.8 47.8-5.9 59-12" fill="#fff" fill-opacity=".2"/><path d="M83.5 254.5s-6 28 67 26c29.6-.8 47.8-5.9 59-12-5.5-2.5-10.5-5.5-16.1-8.4-6.7 3.8-18.3 8.3-37.9 10.4-29 1-45-9-45-9s-1.5-16-2.5-23.1c-11.5 3.4-22.5 9.1-24.5 16.1z" fill="#fff" fill-opacity=".1"/><path d="M141.5 190.5v29c.1 5 .4 10 1 15 2 3.6 5.9 5.6 10 5 7-1 11-4 10-11-.4-2.5-.7-5-1-7.6-.7-5.8-1-11.6-1-17.4v-14c-6.3-.5-12.7-.2-19 1z" fill="#6d6e70" stroke="#000" stroke-miterlimit="10"/><path d="M152.5 190.5s0 7 2 12c2 5.6 3 11.4 3.1 17.3-.1 3.7.9 15.7-3.1 17.7s-2 2-2 2 7-1.6 8.5-3.8 1.9-3.2 1.2-9.2c-1.2-8.2-1.7-16.5-1.7-24.9v-12.1c-2-.3-4.1-.3-6.2-.2l-1.8.2v1z" fill="#58595b"/><path d="M141.5 190.5v29c.1 5 .4 10 1 15 2 3.6 5.9 5.6 10 5 7-1 11-4 10-11-.4-2.5-.7-5-1-7.6-.7-5.8-1-11.6-1-17.4v-14c-6.3-.5-12.7-.2-19 1z" fill="none" stroke="#000" stroke-miterlimit="10"/><path d="M161.2 222.2s-2.7 3.2-9.5 3.2-10.1-2-10.1-2M160 208.5s-3 3-9.1 3-8.9-1.5-8.9-1.5M160 197.5s-2 2-8.1 2c-3.3 0-6.6-.1-9.9-.5" fill="none" stroke="#000" stroke-linecap="round" stroke-linejoin="round"/><path d="M188 246.5l1.5 15.5s6.6-4 9.1-6l2.4-2s.7.2.4-3.9-.8-17.9-.8-17.9-.6 7.8-12.6 14.3z" fill-opacity=".4"/><path d="M84 273.6S97 277 97 285s-1 9 0 14 0 4 0 4H84s3.3-3 2.4-11.3-1.4-12.2-1.4-12.2l-1-5.9z" fill="#fff" fill-opacity=".5"/><path d="M83.8 283.3c2 11 0 16 0 16l-4.5.1-53.5 1.8c-.2-.3-.4-.9-.6-1.8h1.5s-2.1-14 2.6-25c4.8-11 16.2-16 26.2-21s10-6 10-9c0-1.7-1.3-3.2-3.1-3.4h-1c-.2-.1-.5-.2-.7-.3 8.7.4 17.2 2.6 25.1 6.4 0 0-3 1-4 7-1 5.8-.1 17.2 1.8 27.8l.2 1.4z" fill-opacity=".4"/><path d="M65.5 244.5c0 3 0 4-10 9s-21.5 10-26.2 21c-4.8 11-2.6 25-2.6 25h-5.2l-3-20s8.7-37 42.9-38.3h1c1.8.1 3.1 1.6 3.1 3.3z" fill="#fff" fill-opacity=".2"/><path d="M83.8 299.3l-4.5.1-9.9-.1c4.7-1.5 8.7-4.6 11.1-8.8 1.4-2.7 2.5-5.5 3.1-8.4l.2 1.2c2 11 0 16 0 16z" fill-opacity=".4"/><path d="M222.5 301.5s-10-35 11-53 58-15 70 2 2 51 2 51h-83z" fill-opacity=".4" stroke="#000" stroke-miterlimit="10"/><path d="M33.5 299.5s-7-19-3-35c1.8-9.4 8.2-17.3 17-21.1" fill="none" stroke="#000" stroke-width=".75" stroke-miterlimit="10"/><path d="M292.5 241.5s-12-1-13 15c-1 14 4 41 7 45" fill="none" stroke="#000" stroke-width=".75" stroke-linecap="round" stroke-linejoin="round"/><path d="M226.5 244.5l.7 11c-4.9 7.1-7.4 15.6-7.1 24.2.4 14.8 2.4 21.8 2.4 21.8h-12s1-9 .5-14.5-1.5-18.5-1.5-18.5 18-9 17-24z" fill-opacity=".4"/><path d="M209.5 268.5s18-9 17-24l.7 11c-4.9 7.1-7.4 15.6-7.1 24.2.4 14.8 2.4 21.8 2.4 21.8h-12" fill="none" stroke="#000" stroke-miterlimit="10"/><path d="M293.9 242.2c-1.9-1.2 6.6 6.3 7.6 15.3s7.1 6.4 7.1 6.4-.1-8.4-5.1-13.4-7.7-7.1-9.6-8.3z" fill-opacity=".4"/><circle cx="154" cy="262" r="1.5"/><circle cx="170.5" cy="259.5" r="1.5"/><circle cx="183.5" cy="255.5" r="1.5"/><circle cx="194.5" cy="250.5" r="1.5"/><circle cx="138.5" cy="261.5" r="1.5"/><circle cx="125.5" cy="259.5" r="1.5"/><circle cx="115.5" cy="255.5" r="1.5"/><path d="M83.5 254.5s-6 28 67 26 77-30 76-36-12.3-10.1-26-13c0 5 1 22 1 22s-8 13-46 17c-29 1-45-9-45-9s-1.5-16-2.5-23.1c-11.5 3.4-22.5 9.1-24.5 16.1z" fill="none" stroke="#000" stroke-miterlimit="10"/><path d="M87.5 247.5s-19-10-37-5-29 20-32 37c-1 11 1 16 3 20h64s2-5 0-16-3-23-2-29 4-7 4-7z" fill="none" stroke="#000" stroke-miterlimit="10"/></symbol>
<symbol id="body-04"><path d="M148.5 242.8s-35 5.7-33 23.7c0 0-1 7 9 20s13 20 13 20l51-2s1-7 9-18 11-13 11-24-13.1-25.4-60-19.7" fill="currentColor"/><path d="M131.8 247.8s-6.3 4.7-7.3 12.7c0 0-3 7 4 14s13 18 14 25-7.6 2.2-7.6 2.2-5.7-8.9-11.1-16-10.8-14.2-7.6-25.2c.1 0 2-6.3 15.6-12.7z" fill="#fff" fill-opacity=".4"/><path d="M137.1 307l-.1-.3c0-.1-3.1-7.1-12.9-19.9-9.6-12.5-9.2-19.5-9.1-20.3-.8-7.6 4.7-14.2 16.1-19 8.5-3.7 17.3-5.1 17.4-5.1 33.2-4 48 2.1 54.6 7.9 3.8 3.4 6 7.7 6 12.2 0 9.5-2.3 12.5-7.8 19.8-1 1.3-2.1 2.8-3.3 4.5-7.8 10.7-8.9 17.7-8.9 17.8l-.1.4h-.4l-51.5 2zm11.4-63.7c-.7.1-34.5 5.9-32.6 23.1v.2c0 .1-.8 7 8.9 19.6 8.8 11.4 12.2 18.3 12.9 19.8l50.3-2c.3-1.7 2-8.2 9-17.8 1.2-1.7 2.3-3.2 3.3-4.5 5.5-7.3 7.6-10.1 7.6-19.2 0-3-1-7.4-5.6-11.5-6.4-5.7-21-11.7-53.8-7.7z"/><circle cx="155.5" cy="267.5" r="1"/><circle cx="144" cy="268" r="1"/><circle cx="132" cy="270" r="1"/><circle cx="122" cy="274" r="1"/><circle cx="170" cy="267" r="1"/><circle cx="183" cy="270" r="1"/><circle cx="194" cy="275" r="1"/><path d="M193.3 245.2s-1.8 5.3 1.2 8.3 4 4 2 8c-1.4 1.2-2.7 2.5-3.7 4-1.3 2 .7 4-1.3 9s-15 28-15 28l12.7-.8s-.7-2.2 8.3-15.2 13-17.3 10-29.2c0 0-3.3-7.5-14.2-12.1z" fill-opacity=".2"/><path d="M200.7 282.8l-.8-.6c1.1-1.4 1.8-3 2.1-4.8.2-2.7-.7-5.2-2.8-7.5-5.6-6.1-19.7-9.9-36.7-9.9-20 0-30.9 2.7-38.8 4.7l-1 .3c-2.5.6-4.3 1.8-5.2 3.4-1.2 2.1-.5 4.3-.5 4.3l-.9.3c0-.1-.9-2.7.5-5.1 1-1.9 3-3.1 5.8-3.8l1-.3c8-2 18.9-4.8 39.1-4.8 17.3 0 31.6 3.9 37.5 10.3 2.3 2.5 3.3 5.2 3 8.3-.3 1.9-1.1 3.7-2.3 5.2z"/><path d="M166.5 205.5h-14c-1.7 0-3.4.3-5 1l1 38s0 11 10 11 11-9 11-9-3-17-3-27v-14z" fill="#6d6e70"/><path d="M158.5 256c-10.4 0-10.5-11.4-10.5-11.5l-1-38.3.3-.1c1.7-.7 3.4-1.1 5.2-1H167v14.5c0 9.8 3 26.7 3 26.9v.2c0-.1-1.2 9.3-11.5 9.3zM148 206.8l1 37.7c0 .4.1 10.5 9.5 10.5 9.1 0 10.4-7.6 10.5-8.5-.2-1.2-3-17.4-3-27V206h-13.5c-1.6 0-3.1.3-4.5.8z"/><path d="M156.8 216c-7.3 0-9.5-1.5-9.5-1.6l.6-.8s2.1 1.5 9 1.4c8-.1 9-3.2 9.3-4l.4 1.7c-.3.2-2.5 3.3-9.8 3.3zM156.8 228c-7.3 0-9-1.6-9.1-1.6l.2-.8s2.1 1.2 9 1.4c7.3.2 9.7-3.7 9.7-3.7l-.1 1.5c-.2.1-2.4 3.2-9.7 3.2zM157.8 242c-7.3 0-9.5-1.5-9.5-1.6l.6-.8s2.1 1.4 9 1.4c6.8 0 9.3-3.4 9.8-3.9l.8.6c-.5.5-3.4 4.3-10.7 4.3z"/><path d="M159.2 205.5s-.7 9 1.3 15 4 15 3 21-1 12.7-3 13.9c-2 1.1 8-.9 9-8.9-1.8-9.5-2.8-19.2-3-28.9v-12.1h-7.3z" fill-opacity=".2"/><path d="M197.5 286.5s12 3 14 13 16 4 16 4 4-1-2-15c-3.4-8.2-10-14.5-18.3-17.5-1.1 3.5-2.9 6.7-5.2 9.6-1.7 1.8-3.2 3.8-4.5 5.9z" fill="#6d6e70"/><path d="M219.2 305.8c-1.6 0-3.2-.3-4.6-1-1.9-1-3.1-2.8-3.6-5.2-1.9-9.6-13.5-12.6-13.6-12.6l-.6-.2.3-.6c1.3-2.2 2.8-4.2 4.6-6 2.3-2.8 4.2-5.8 5.3-9.2l.2-.6.3.2c8.4 3 15.2 9.5 18.6 17.8 3.9 9 3.7 12.9 2.9 14.5-.5.9-1.1 1.1-1.2 1.2-.4 0-4.4 1.7-8.6 1.7zm-20.9-19.6c2.6.8 12 4.4 13.7 13.2.4 2.1 1.5 3.6 3.1 4.5 4.5 2.4 12.1-.8 12.2-.9.1 0 .4-.1.7-.7.6-1.2.9-4.7-2.9-13.6-3.2-7.9-9.6-14-17.5-17-1.1 3.4-2.9 6.5-5.1 9.2-1.7 1.6-3.1 3.4-4.2 5.3z"/><path d="M208.1 292.3h-1c.1-8.5 11.8-13 12.3-13.2l.4.9c-.2 0-11.7 4.5-11.7 12.3zM211.9 300.8l-.7-.7c4.5-4.8 11.4-6.4 17.5-4.1l-.4.9c-5.8-2.1-12.2-.6-16.4 3.9z"/><path d="M224 304.6l4.8-4.1s-2.1-16.5-11-23-10.3-6-10.3-6l-3.3 6s18.3 9.3 19.8 27.1z" fill-opacity=".2"/><path d="M117.3 275.6s-13.8 6.9-16.8 25.9 17 0 17 0 1.8-8.7 8.9-12.3c0 0-8.3-10.6-9.1-13.6z" fill="#6d6e70"/><path d="M103.5 310.4c-.6 0-1.2-.1-1.7-.4-2-1-2.6-3.9-1.8-8.6 1.6-9.9 6.1-16.6 9.7-20.4 3.8-4.1 7.3-5.9 7.4-5.9l.5-.3.2.6c.8 2.9 8.9 13.3 9 13.4l.4.5-.5.3c-6.8 3.5-8.6 11.9-8.7 12v.2l-.1.1c-.5.4-9.1 8.5-14.4 8.5zm13.5-34.1c-2.5 1.5-13.4 8.8-16 25.3-.7 4.2-.2 6.8 1.3 7.6 3.4 1.8 11.7-5 14.8-7.9.3-1.2 2.3-8.6 8.6-12.2-1.6-2.1-7.3-9.6-8.7-12.8z"/><path d="M120.5 295c-4.3 0-11.2-10.6-12-11.8l.8-.5c2 3.2 8 11.3 11.1 11.3l.1 1c.1 0 .1 0 0 0zM112.4 303.1c-4.7 0-10.5-6.5-10.8-6.8l.7-.7c.1.1 6.7 7.5 11 6.3l.3 1c-.4.2-.8.2-1.2.2z"/><path d="M119.5 283.5s-13 7-12 21 10.6-5.1 10.6-5.1 1.9-6.7 8.4-9.9l-5.5-7-1.5 1z" fill-opacity=".2"/></symbol>
<symbol id="body-01"><g fill="currentColor"><path d="M106 247.5s-34.5 3-50.5 32c0 0-5 9-6 23h27s.9-30 29.5-55z"/><path d="M226.5 236.5s-6-10-26-12-56-2-81 13-43 44-43 65h115s3-31 22-53c0 0 8.9-7.4 14.4-9.2 0 0 .6-.8-1.4-3.8z"/><path d="M286.5 302.5s4-50-16-59-44-8-57 6-22 43-22 53h95z"/></g><path d="M91.2 264s5.3.5 3.3 9.5-5 7-7 17-2.5 12-2.5 12h-8.5s-.7-17 14.7-38.5z" fill="#fff" fill-opacity=".4"/><path d="M286.5 302.5s4-50-16-59-44-8-57 6-22 43-22 53h95z" fill="none" stroke="#000" stroke-width="1.2" stroke-miterlimit="10"/><path d="M268.5 247.5s-8 8-11 26-2.2 29-2.2 29h31.2s3.8-41.8-12.6-56.9c0 0-2.4-1.1-5.4 1.9z" fill-opacity=".2" stroke="#000" stroke-miterlimit="10"/><path d="M226.5 236.5s-6-10-26-12-56-2-81 13-43 44-43 65h115s3-31 22-53c0 0 8.9-7.4 14.4-9.2 0 0 .6-.8-1.4-3.8z" fill="none" stroke="#000" stroke-width="1.25" stroke-miterlimit="10"/><path d="M218.2 229.6s-18.7.9-31.7 20.9-17 37-17.5 52h22.5c-1.4.1 8.1-36.8 16-45.5 10-15.5 21-16.5 21-16.5s.4-4.9-10.3-10.9z" fill-opacity=".2" stroke="#000" stroke-width=".75" stroke-miterlimit="10"/><path d="M106 247.5s-34.5 3-50.5 32c0 0-5 9-6 23h27s.9-30 29.5-55z" fill="none" stroke="#000" stroke-miterlimit="10"/><path d="M80.6 255.5s2.9 2-6.1 12c-7.1 7.7-12.8 16.5-17 26-3 7-1.8 9-1.8 9h-6.2s1.2-32 31.1-47z" fill="#fff" fill-opacity=".4"/><path d="M106 247.5s-34.5 3-50.5 32c0 0-5 9-6 23h27s.9-30 29.5-55z" fill="none" stroke="#000" stroke-width="1.2" stroke-miterlimit="10"/><path d="M153.5 251.5c7.6-.1 26-2 27-14s-27-8-27-8-22 1-22 11 15.9 11.1 22 11z" fill="none" stroke="#000" stroke-miterlimit="10"/><path d="M138.5 166.5s12 33 4 72c0 0 1 6 12 5s12-5 12-5 6-37-10-75c0 0-11 3-18 3z" fill="#6d6e70" stroke="#000" stroke-miterlimit="10"/><path d="M161 176c-2.1 1.8-4.7 3-7.5 3.5-5 1-9 1-11.5 0M163.7 185.4c-1.2 2.5-2.4 7.7-20 5.4M166.3 200.7s-4.6 7.8-21.2 3.3M167.4 213.4s-3.7 9.1-22.3 4.1M167.4 227.2s-7.8 9.4-23.3 1.9" fill="none" stroke="#000" stroke-miterlimit="10"/><circle cx="154.5" cy="247.5" r="1.5"/><circle cx="166.5" cy="244.5" r="1.5"/><circle cx="174.5" cy="237.5" r="1.5"/><circle cx="168.5" cy="232.5" r="1.5"/><circle cx="142.5" cy="245.5" r="1.5"/><circle cx="137.5" cy="240.5" r="1.5"/><path d="M150.5 164.5s10.5 29.5 11 45c.2 11-.1 22-1 33l5.5-2.8c3-11.9 4-40.9-9.5-76.2l-6 1z" fill-opacity=".2"/></symbol>
<symbol id="body-03"><g fill="currentColor"><path d="M180.4 252.2s-17.9-2.7-29.9 2.3-15 8-16 24c0 0 1 27 1 28s49 1 49 1v-9c-2.1-4-3.1-8.5-3-13 0-8 7-6.2 7-6.2s-11.5-.3-11.3-16.1c-.3-3.9.9-7.8 3.2-11z"/><path d="M133.5 277.5s-6.9-1.5-8-5.2l-.7-1.6c-.4-6.7 1.1-12 5.7-15 0 0 5.2-4.4 11.6-4.2 0 0 5.4.1 7.4 3.1 0 0-9 3.6-12 9.3s-3.1 13.3-3 14l-1-.4zM188.5 247.5s-8 2-10 8-3 19 8 23 19-7 19-17-4-16-17-14z"/></g><path d="M134.5 254.5s3-1 3 0-6 5-7 10 0 8-2 8-4.7.1-2.8-10.5c1.6-3.7 4.8-6.5 8.8-7.5z" fill="#fff" fill-opacity=".4"/><path d="M135.1 278.5l-1.7-.6c-.6-.1-7.2-1.7-8.3-5.6l-.7-1.7c-.4-7.5 1.5-12.6 5.9-15.4.2-.1 5.4-4.4 11.8-4.3.2 0 5.7.2 7.8 3.4l.3.5-.6.2c-.1 0-8.9 3.6-11.7 9.1-2.9 5.6-3 13.1-2.9 13.7l.1.7zm-9.8-8l.6 1.5c1 3.5 7.6 4.9 7.6 5l.3.1c0-2.2.5-8.5 3.1-13.5s9.5-8.3 11.6-9.3c-2.1-2.3-6.5-2.4-6.6-2.4-6.1-.1-11.2 4.1-11.2 4.1-4 2.7-5.8 7.4-5.4 14.5z"/><path d="M189.5 248.5s9 0 9 10-4 16-9 17-7 .8-7 .8c2.2 1.9 5.1 3 8 3.1 5 .2 15-4.8 15-17.8s-7.3-14.6-14.1-14.3-2.9 1.2-1.9 1.2z" fill-opacity=".2"/><path d="M191.1 279.8c-1.5 0-3.1-.3-4.7-.9-10.6-3.8-10.8-16.2-8.3-23.6 2.1-6.2 10-8.2 10.4-8.3 6.1-.9 10.5-.2 13.4 2.3 2.8 2.4 4.1 6.4 4.1 12.2 0 6.3-3.1 12.8-7.8 16-2.2 1.6-4.6 2.3-7.1 2.3zm-2.5-31.8c-.4.1-7.8 2.1-9.6 7.7-1.6 4.9-3.4 18.3 7.7 22.4 3.9 1.4 7.7 1 11-1.3 4.4-3.1 7.3-9.2 7.3-15.2 0-5.5-1.2-9.2-3.8-11.4-2.7-2.4-6.8-3.1-12.6-2.2z"/><path d="M201.9 273.2s9.6 10.3 9.6 28.3h-13s2.7-14.3-7.1-22.1c4.4 0 8.4-2.4 10.5-6.2z" fill="#6d6e70"/><path d="M212 302h-14.1l.1-.6c0-.1 2.6-14.1-6.9-21.7l-1.2-.9h1.5c4.2.1 8.1-2.2 10-5.9l.3-.6.5.5c.1.1 9.8 10.7 9.8 28.7v.5zm-12.9-1H211c-.2-15.1-7.2-24.7-9.1-27-2 3.3-5.4 5.4-9.3 5.8 7.8 7.1 6.8 18.5 6.5 21.2z"/><path d="M197.5 279.5s5 8 6 15 0 9 0 9h8s1.5-10.5-4.7-22.8c0 0-3.3-6.2-5.3-7.2-1.3 1.8-2.9 3.3-4.7 4.6l.7 1.4z" fill-opacity=".2"/><path d="M185 308h-.5c-.1 0-12.4 0-24.5-.1-25-.3-25-.7-25-1.4 0-1-1-27.7-1-28 1-16.4 4.2-19.4 16.3-24.5 12-5 30-2.4 30.2-2.3l.8.1-.5.7c-2.3 3.1-3.4 6.9-3.1 10.7-.1 6.3 1.8 11 5.3 13.6 1.6 1.1 3.2 1.7 4.2 1.9.7 0 1.3.2 1.3.2l4.2 1.1-4.4-.1s-.5 0-1.2-.2c-1-.1-2.4 0-3.5.9-1.2.9-1.8 2.6-1.8 4.9-.1 4.4.9 8.8 2.9 12.8l.1.1v9.6zm-49-1.8c3.1.6 29.9.8 48 .8v-8.4c-2.1-4-3.1-8.6-3-13.1 0-2.7.7-4.6 2.2-5.7.5-.4 1.1-.7 1.7-.8-3.5-1.5-8.3-5.4-8.2-15.7-.3-3.7.7-7.5 2.8-10.6-3.6-.4-18.6-1.9-28.9 2.4-11.8 4.9-14.7 7.7-15.7 23.6.1.8 1 24.3 1.1 27.5z"/><path d="M169.5 304.5s-7-21 0-42c0 0 3.4-7.8 10.2-10.4l.8.4s-3.6 3.1-3.3 10.1c.3 7 2.2 14.4 9.7 16.2-2.3 0-4.4 1.5-5 3.8-1.4 4 .4 11.3 1.5 13.6.7 1.5 1.1 3.2 1.1 4.9l-15 3.4z" fill-opacity=".2"/><path d="M169.2 305.1l-.1-.4c-.1-.2-7-21.4 0-42.3.2-.4 3.6-8.1 10.5-10.7h.2l1.4.6-.5.5s-3.3 3.2-3 9.8c.4 9.2 3.5 14.3 9.4 15.7l4.3 1H187c-2.1 0-3.9 1.4-4.5 3.4-1.4 4 .5 11.2 1.4 13.3.7 1.6 1.1 3.3 1.2 5.1v.4l-15.9 3.6zm10.4-52.4c-6.4 2.6-9.6 10-9.7 10-6.3 18.9-1.1 38.1-.1 41.2l14.1-3.3c-.1-1.5-.4-2.9-1-4.3-1-2.3-3-9.7-1.5-14 .5-1.7 1.8-3.1 3.4-3.7-5.1-2.1-7.8-7.4-8.2-16-.2-5.6 2-8.7 3-9.9z"/><path d="M142.5 259.5c1.1-.6 2.4-.2 3 .9v.1c1 2 0 5-3 9s-3 14-2 19 2 10 2 13h-7.2s-1.3-17.5-.6-26.2 2.5-12.4 6.1-15.6l1.7-.2z" fill="#fff" fill-opacity=".4"/><path d="M135.1 279h-.6c-.7 0-5-1.2-7.9-4.4-2-2.3-2.9-5-2.6-8.1 1.1-9.6 9.8-14.5 15.4-15.4 6.2-1 10.7 3.2 10.9 3.3l.6.6-.8.2c-16.9 5-15.2 23.1-15.1 23.3l.1.5zm6.2-27.2c-.6 0-1.2 0-1.8.1-5.3.9-13.6 5.5-14.6 14.6-.3 2.8.5 5.3 2.3 7.3 2.2 2.5 5.4 3.7 6.7 4-.1-3.3.1-18.4 15-23.4-1.2-.8-4-2.6-7.6-2.6z"/><path d="M130.2 276.8c-.2 3.7-.7 7.3-1.5 10.9-1.2 5.2-3.3 11-7.2 13.8l13.8-.6s-.8-21.4-.8-22.4l-4.3-1.7z" fill="#6d6e70"/><path d="M119.9 302.1l1.3-1c3-2.3 5.5-6.9 7-13.5.8-3.5 1.3-7.2 1.5-10.8v-.7l5.3 2.1v.3c0 1 .8 22.2.8 22.4v.5l-15.9.7zm10.7-24.6c-.2 3.5-.7 6.9-1.5 10.3-1.4 6.1-3.5 10.5-6.2 13.1l11.8-.5c-.1-3.1-.7-18.9-.8-21.6l-3.3-1.3z"/><path d="M134.1 290.9s-2.7-2.7-5.5-2.3l-.1-1c3.3-.5 6.2 2.5 6.4 2.6l-.8.7zM132.6 301.4c-3.2-3.2-8.5-1.9-8.5-1.9l-.3-1c.2-.1 5.9-1.5 9.5 2.1l-.7.8z"/><path d="M150 192s1 61 2 64c0 0 2 5 10 3 0 0 6-1 6-7 0 0-3.5-40.5-2.5-60.5 0 0-13 0-15.5.5z" fill="#6d6e70"/><path d="M158.5 260c-5.4 0-6.9-3.7-7-3.8-1-3.1-2-61.7-2-64.2v-.4l.4-.1c2.5-.5 15.1-.5 15.6-.5h.5v.5c-1 19.7 2.5 60 2.5 60.4 0 6.4-6.4 7.5-6.4 7.5-1.4.4-2.6.6-3.6.6zm-8-67.6c.3 17.3 1.2 61 2 63.4.1.2 2 4.5 9.4 2.7.3 0 5.6-1 5.6-6.5 0-.4-3.4-40-2.5-60-2.3 0-11.7.1-14.5.4z"/><path d="M165.1 202.5s-.2 3.5-5.6 3.5c-5.1 0-8.8-1-9.6-1.6-.2-.2-.3-.5-.1-.7s.5-.3.7-.1c.6.4 4 1.4 9 1.4 4.4 0 5.3-4.6 5.3-4.7M165.4 214.7c0 .1-1.2 2.3-5.6 2.3-3.2-.1-6.4-.7-9.5-1.6-.3-.1-.4-.4-.3-.6.1-.3.4-.4.6-.3 3 .9 6.1 1.4 9.3 1.6 3.7 0 4.9-2 5.3-2.6M158.5 228.3c-3.8 0-7.5-1.2-7.7-1.3l.3-.9c.1 0 5.7 1.9 10.1 1 4.1-.9 4.2-2.4 4.3-3.9l1 1.4c0 .2-.1 2.4-5 3.5-1 .1-2 .2-3 .2zM158.2 237.7c-2.5 0-5.1-.6-7.4-1.7l.4-.9c3.6 1.7 7.6 2.1 11.4 1 2.8-.9 3.2-2.9 3.3-6.3l.6 3.8c0 .1 0 2.4-3.6 3.5-1.5.3-3.1.6-4.7.6zM159.6 249.2c-3.9 0-8.2-1.7-8.4-1.8l.4-.9c.1 0 6.3 2.4 10.2 1.5 2.1-.4 4.7-2.6 5.1-4.8l.6 1.5c-1 2.3-3.1 3.9-5.5 4.3-.8.2-1.6.2-2.4.2zM195.3 284.4l-.5-.9c8.2-4.9 12.3-2.5 12.5-2.4l-.5.9c-.1 0-3.9-2.1-11.5 2.4zM199.1 298.1l-.5-.9c5.9-3.3 9.3-3.4 11.1-2.9 1.6.5 2.2 1.5 2.2 1.6l-.9.5.4-.2-.4.2s-.4-.7-1.7-1.1c-1.6-.4-4.7-.3-10.2 2.8z"/><path d="M159 191.5h6.5v10s1 20 .9 29.3c.1 7.3.6 14.7 1.6 21.9-.5 4.2-5.5 5.8-5.5 5.8v-2c0-2 1-15 1-23s-4-40-4-40l-.5-2z" fill-opacity=".2"/></symbol>
<symbol id="body-02"><path d="M160.5 246.5s-14-3-27 13-22 45-22 45h108s-20-35-25-40-18-17-34-18z" fill="currentColor"/><path d="M121.5 303.5s5-24 10-33 3.3-8.1 7.6-8.5 15.1-1.2 23.8 2.7 8.2 3.2 8.2 3.2l13.1-12.1s-12.7-9.7-26.2-9.4-23.5 12.2-26.5 15.2-14.2 23.5-19.1 40.2l9.1 1.7z" fill="#fff" fill-opacity=".2"/><path d="M197.2 305h-87.4l.3-.7c.6-1.4 13.9-34.3 18.5-38.7 4.5-4.3 14.9-4.6 17-4.6.3 0 28.4 1.2 38.4 17.2 9.9 15.9 13 26 13.1 26.1l.1.7zm-86-1h84.6c-.8-2.5-4.3-11.7-12.7-25.2-9.7-15.5-37-16.7-37.6-16.8-2 0-12 .2-16.3 4.3-4.1 3.9-16 32.9-18 37.7z"/><path d="M121.5 303.5s5-24 10-33 3.3-8.1 7.6-8.5c22.4-1.5 31.9 5.9 31.9 5.9l13.1-12.1s-12.7-9.7-26.2-9.4-23.5 12.2-26.5 15.2-14.2 23.5-19.1 40.2l9.2 1.7z" fill="#fff" fill-opacity=".2"/><path d="M220.4 305H110.8l.2-.6c.1-.3 9.2-29.3 22.1-45.2 6.8-8.4 13.9-11.5 18.6-12.7 5-1.2 8.4-.6 8.8-.5 11.3.7 23.1 7 34.3 18.1 5 5 24.3 38.7 25.1 40.1l.5.8zm-108.2-1h106.5c-2.9-5.1-20-34.7-24.5-39.1-11-11-22.6-17.2-33.7-17.9h-.1c-.1 0-13.9-2.7-26.5 12.8-11.7 14.4-20.3 39.8-21.7 44.2z"/><path d="M149 192s1 62 2 64c2.4 2.4 5.7 3.6 9.1 3.2 5.4-.7 6.4-2.7 6.9-5.2 0 0-2.5-48.5-2.5-62.5l-15.5.5z" fill="#6d6e70"/><path d="M158.9 259.8c-3.1 0-6-1.2-8.2-3.4l-.1-.1c-1-2-2-57.9-2.1-64.2v-.5l16.5-.6v.5c0 13.8 2.5 62 2.5 62.5v.2c-.6 2.9-2 4.9-7.4 5.6-.4-.1-.8 0-1.2 0zm-7.5-4.1c2.3 2.2 5.4 3.3 8.6 3 5.2-.7 6-2.6 6.5-4.8-.1-2-2.4-47.7-2.5-61.9l-14.5.5c.4 24.4 1.2 60.8 1.9 63.2z"/><path d="M159.5 191.5s3 36 3 40 1 27 1 27l3-1-2-66h-5z" opacity=".2"/><path d="M158.9 206h-.4-.1c-5.1 0-8.2-.1-9.3-1.1l.4-1.1c.6 1.2 5.4 1.2 8.9 1.2 2.1.1 4.2-.6 5.8-2l.5.9c-1.5 1.4-3.6 2.1-5.8 2.1zM157.2 217c-2.6 0-5.6-.2-8-1.4l.5-.9c2.5 1.4 6 1.3 8.7 1.3h1.1c2-.1 4-.8 5.7-1.9l.5.9c-1.9 1.2-3.9 1.9-6.2 2.1h-1.1c-.3-.1-.7-.1-1.2-.1zM159.8 228h-.3c-3.8 0-7.8-.2-10.1-2.2l.7-.8c2.1 1.8 5.8 2 9.5 2 2.1 0 4.3-.6 6-1.9l.6.8c-1.9 1.4-4.2 2.1-6.4 2.1zM160.5 238c-3.5-.1-7-.4-10.4-1l.2-1c3.4.6 6.8.9 10.2 1 4.5 0 5-2.5 5-2.8l1 .3c0 .2-.6 3.5-6 3.5zM159.6 249c-3.2 0-6.4-.7-9.3-2.1l.4-.9c3 1.4 6.4 1.9 9.8 2 4.6 0 5.5-2.5 5.6-2.8l.9.5c0 .1-1.2 3.3-6.5 3.3h-.9z"/><path d="M195.6 301.9H218s-15-26.1-19.3-31.8-12.2-13.6-14.2-14.6l-13 12s8 4.7 10.5 8.8 10.7 17 13.6 25.6z" fill-opacity=".2"/><path d="M193.5 272.5c-2.4 1.9-3.2 5.2-2 8 2 5 8 6 8 6s7-6 15-2 9 7 9 15 14 3 14 3l2-2s4-21-19-31c0 0-11-4-27 3z" fill="#6d6e70"/><path d="M229.4 304.5c-1.7 0-3.3-.3-4.5-1.1-1.2-.9-1.8-2.2-1.8-3.9 0-8-1.1-10.7-8.7-14.6-7.6-3.8-14.4 1.9-14.5 1.9l-.2.2h-.2c-.3 0-6.3-1.1-8.4-6.3-1.3-3-.4-6.5 2.1-8.6l.1-.1c16-7 26.9-3.2 27.4-3 23.1 10.1 19.4 31.3 19.3 31.6v.2l-2.3 2.2c-.3.1-4.5 1.5-8.3 1.5zm-20.6-21.9c1.8 0 3.8.4 5.9 1.4 8.1 4 9.3 7.1 9.3 15.4 0 1.4.5 2.4 1.4 3.1 3.2 2.3 10.8-.2 11.8-.5l1.8-1.8c.1-.9.8-5.7-.9-11.4-1.7-5.8-6.1-13.8-17.8-18.9-.1 0-11-3.8-26.5 3-2.2 1.8-2.9 4.8-1.8 7.4 1.7 4.2 6.4 5.4 7.4 5.7.9-.7 4.6-3.4 9.4-3.4z"/><path d="M196.5 284.5c5.2-3.9 11.6-5.7 18-5 11 1 16 9 18 17s-4 10-4 10l-5-7s.1-13.9-10-15.4-14 2.4-14 2.4-4 0-3-2z" fill-opacity=".2"/><path d="M211.3 283.9c-3.3-1.5-7.3-4.8-7.3-12.4-.1-1.3.6-2.5 1.8-3.1l.5.9c-.8.4-1.3 1.3-1.2 2.2 0 5.7 2.3 9.5 6.7 11.5l-.5.9zM220.2 288.8c-.9-3.1.8-9.5 2.9-12.5 2.2-3.3 6.5-1.8 6.5-1.8l-.3.9c-.1-.1-3.6-1.2-5.4 1.4-1.9 2.8-3.5 8.9-2.7 11.7l-1 .3zM223.4 300.8l-.4-.5v-.1c.2-.7 1.8-3.2 6.4-3.2 3.6 0 7.1.8 10.3 2.4l-.5.9c-3-1.6-6.5-2.3-9.9-2.3-4.4 0-5.4 2.3-5.5 2.5l-.4.3zm.2-.5h.1-.1zm0 0l-.1-.5.1.5z"/><path d="M127.1 268.4s-18.6-4.9-28.6 11.1c0 0-5 9 1 20s7 4 7 4l7-5.2s-6-7.8-2-13.8c0 0 2.8-4.2 8.9-3.1l6.7-13z" fill="#6d6e70"/><path d="M104.8 306.2c-1.5 0-3.4-2.1-5.8-6.5-6.1-11.1-1-20.4-1-20.5 10.1-16.1 28.9-11.4 29.1-11.4l.6.2-7.1 13.9-.4-.1c-5.7-1.1-8.3 2.9-8.4 2.9-3.8 5.6 1.9 13.1 2 13.2l.3.4-7.2 5.4c-.1.6-.6 2.2-1.8 2.4 0 .1-.2.1-.3.1zm15.9-38c-6.2 0-15.7 1.8-21.8 11.6 0 .1-4.8 8.9 1 19.5 3.1 5.6 4.5 6 5 5.9.7-.1 1-1.4 1-1.8v-.2l6.8-5.1c-1.2-1.7-5.4-8.4-1.7-13.9.1-.2 2.9-4.3 9-3.4l6.2-12.1c-.8-.2-2.9-.5-5.5-.5z"/><path d="M119.5 281.5s2-7 1-10c-.5-1.7-1.8-3.1-3.6-3.6M111.5 284.5c-2-2.5-4.9-4.3-8-5-5-1-5.4.9-5.4.9M111 293.6c-2.5-.6-5.2-.3-7.5.9-4 2-4 5-4 5" fill="none" stroke="#000" stroke-miterlimit="10"/><path d="M123.5 274.9s-7-2.4-13 .6-9 7-9 12 5 12 7 14 4.8-3.9 4.8-3.9-3.8-5.1-2.8-11.1c0 0 1-6 10-5l3-6.6z" fill-opacity=".2"/><circle cx="145" cy="266" r="1.5"/><circle cx="160.5" cy="268.5" r="1.5"/><circle cx="173.5" cy="274.5" r="1.5"/><circle cx="182.5" cy="285.5" r="1.5"/><circle cx="188.5" cy="296.5" r="1.5"/><circle cx="133.5" cy="266.5" r="1.5"/></symbol>
<symbol id="mouth-09"><path d="M109.5 197.5c0 4 1 5 1 5h34c10 0 21-1 21-1v-23l-1-4h-2c-2 0-54.5.5-54.5.5v11z" fill="currentColor"/><path d="M163.5 174.5v25s-52 1.5-53.75 1l.61 1.79 28.9.21s19.65-.79 21.7-.65A9 9 0 00165 201l.41-22.84S164 174 163.5 174.5z" opacity=".4"/><path d="M109.5 197.5c0 4 1 5 1 5h34c10 0 21-1 21-1v-23l-1-4h-2c-2 0-54.5.5-54.5.5v11z" stroke-miterlimit="10" stroke="#000" fill="none"/><path d="M113.5 200.5h27c10 0 23-1 23-1v-24" stroke-width=".5" stroke-linecap="round" stroke-linejoin="round" stroke="#000" fill="none"/><path stroke-width=".5" stroke-miterlimit="10" stroke="#000" fill="none" d="M163.5 199.5l1.5 1.5"/><path d="M162 177v12" stroke-width=".5" stroke-linecap="round" stroke-linejoin="round" stroke="#000" fill="none"/><path d="M112.5 177.5h27c9 0 20-1 20-1v20l-54 1a34.21 34.21 0 012-11 44.27 44.27 0 015-9z" fill="#f6921e" stroke-width="1.2" stroke-linecap="round" stroke-linejoin="round" stroke="#000"/><path d="M159 176.5s-3 7.5-4 11.5a87 87 0 00-1.59 8.61l-12.91.19s-1-2.3 1-7.3 5-12 5-12 11-.5 12.5-1zM128.5 196.89h-11a19.28 19.28 0 012-11.22c3-6.12 3.75-8.16 3.75-8.16h11.56s-1.31 3.06-2.31 6.12-4 6.12-4 10.2z" stroke-width=".75" fill="#f9ec31" stroke-miterlimit="10" stroke="#000"/><path d="M135.13 177.5h11.37l-5.43 13.25a8.08 8.08 0 00-.82 4c.25 1.89 0 2.25 0 2.25H128.5a23.82 23.82 0 01.92-7.35c1.08-3.08 2.1-3 3.59-7.58s2.12-4.57 2.12-4.57z" fill="#f05a27" stroke-width=".75" stroke-linecap="round" stroke-linejoin="round" stroke="#000"/></symbol>
<symbol id="mouth-08"><path d="M148 175s-6.5.5-12.5 1.5a83.3 83.3 0 01-12 1v14c0 2 3 13 13 12s13-7 13-11-1-17-1-17 0-1-.5-.5z" fill="currentColor"/><path d="M148 175s-6.5.5-12.5 1.5a83.3 83.3 0 01-12 1v14c0 2 3 13 13 12s13-7 13-11-1-17-1-17h0s0-1-.5-.5z" stroke="#000" stroke-miterlimit="10" fill-opacity=".4"/><path d="M129.59 177.21L130 191s1 7 7 8 12-.83 12.5-4.92-1-19.58-1-19.58l-10.88 1.67c-2.12.33-8.03 1.04-8.03 1.04z" fill="#f6921e" stroke="#000" stroke-miterlimit="10"/><path d="M137.25 176.19l.22 22.88s-7-.57-7.39-7.64c-.58-4.93-.58-13.93-.58-13.93z" fill="#f9ec31" stroke-width=".75" stroke="#000" stroke-miterlimit="10"/><path d="M129.59 177.21L130 191s1 7 7 8 12-.83 12.5-4.92-1-19.58-1-19.58l-10.88 1.67c-2.12.33-8.03 1.04-8.03 1.04z" fill="none" stroke="#000" stroke-miterlimit="10"/></symbol>
<symbol id="mouth-01"><path d="M123 183l-1 9a26.74 26.74 0 003.5.5c2 .44 22 .35 23-1l-1-9s-15-1-24.5.5z" fill="currentColor"/><path d="M123 183l-1 9a26.74 26.74 0 003.5.5c2 .44 22 .35 23-1l-1-9s-15-1-24.5.5z" fill-opacity=".4" stroke="#000" stroke-linecap="round" stroke-linejoin="round"/><path d="M123.5 183.34s3.07 2.66 12.26 2.66 11.24-3.55 11.24-3.55a113.13 113.13 0 00-12.2-.28c-5.17.28-10.28.28-11.3 1.17z"/></symbol>
<symbol id="mouth-03"><path d="M170.5 168.5S151 177 141 179l-1 .2a112 112 0 01-32.68 1.74q-1.88-.18-3.82-.44l6 20a51.86 51.86 0 0026 5c15-1 35-7 41-15z" fill="currentColor"/><path d="M110.5 199.5l2-2s-3-10-4-13-1.87-3.63-1.87-3.63l-3.13-.37 3.38 11.26 2.5 8.33z" stroke="#000" stroke-linecap="round" stroke-linejoin="round" fill-opacity=".4"/><path d="M118 181s3.13 7.7 4.06 9.85 2.31 5.09 2.12 7.12l.19 4a72.8 72.8 0 017.93.57C135 203 144 201 144 201a14.36 14.36 0 01-.15-3c.15-1-3.27-16.16-3.27-16.16l-1-2.27-4.58.43-9.08 1.13z" fill="#ee4036"/><path d="M155.48 174.52l3.52 10.63 2 9.85v2s10.25-4.55 12.63-6.27L176 189l-3.63-13.65-1.85-6.79z" fill="#f05a28"/><path d="M113.5 198.5s2 3 14 4 35-6 35-6 12.06-5.5 13.5-7.73l.47 1.73s-7.38 11-40.69 15c0 0-16.31 1-26.31-5l3-3z" stroke="#000" stroke-linecap="round" stroke-linejoin="round" fill-opacity=".4"/><path d="M119.94 181.44s2.56 10.06 3.56 13.06a27.84 27.84 0 01.88 7.67s-7.88.33-11.88-4.67l-5-15a5.38 5.38 0 00-1-1.7 80.36 80.36 0 0013.44.64zM140.5 181.5c0 .14 4.14 18 3.56 19.5 0 0 15.93-2.76 17.18-4.13 0 0-1.75-10.37-2.75-13.37l-3-9s-7.82 3-10.4 3.47a54.09 54.09 0 00-5.58 1.51 6 6 0 01.99 2.02z" fill="#faaf40" stroke-width=".75" stroke="#000" stroke-linecap="round" stroke-linejoin="round"/><path d="M170.5 168.5S151 177 141 179l-1 .2a112 112 0 01-32.68 1.74q-1.88-.18-3.82-.44l6 20a51.86 51.86 0 0026 5c15-1 35-7 41-15z" fill="none" stroke="#000" stroke-linecap="round" stroke-linejoin="round"/></symbol>
<symbol id="mouth-02"><path d="M126 180a129.54 129.54 0 013 25 19.93 19.93 0 0010 1 24.23 24.23 0 008.5-3.5s-4-23-4-25c0 0-6 2-9 2-1.54 0-3.73.13-5.51.26S126 180 126 180z" fill="currentColor"/><path d="M126 180a129.54 129.54 0 013 25 19.93 19.93 0 0010 1 24.23 24.23 0 008.5-3.5s-4-23-4-25c0 0-6 2-9 2-1.54 0-3.73.13-5.51.26S126 180 126 180z" stroke="#000" stroke-linecap="round" stroke-linejoin="round" fill="none"/><path d="M131.5 190.71a113.49 113.49 0 011 12.25l-3 1.54s-1-14-2.28-18.07c-.72-2.86-1.15-6.11-1.15-6.11l3.43.18s1 2.05 2 10.21zM129.29 205.11l3.21-1.61a32 32 0 007-1 53.36 53.36 0 007.56-2.57l.44 2.57s-4.93 3.27-7 3.14-2.43 2.07-11.21-.53z" stroke-width=".75" fill-opacity=".4" stroke="#000" stroke-linecap="round" stroke-linejoin="round"/><path d="M131.81 193.42c.93.47 1.84.92 1.69-.92 0 0 0-2 1-2s7-1 7-1a1 1 0 011 1c0 1 0 3 1 2a3.44 3.44 0 012.12-1" stroke-width=".75" stroke="#000" stroke-linecap="round" stroke-linejoin="round" fill="none"/></symbol>
<symbol id="mouth-06"><path d="M149 179s-12 2-15 2-13.5 1.5-15.5 5.5-1 11.5 8 10.5 12-1.5 20-2.5 13-4 14-6 0-5-2-7-4-3-9.5-2.5z" fill="currentColor"/><path d="M149 179s-12 2-15 2-11.5.5-14.5 4.5c-4 4-2 11.5 7 11.5 8 0 12-1.5 20-2.5s13-4 14-6 0-5-2-7-4-3-9.5-2.5z" stroke="#000" fill-opacity=".4" stroke-miterlimit="10"/><path d="M121.5 184.5s-3 4-1 6 4 3 12 2 13-3 18-3 10.83-2.26 9.42-6.13-5.75-5.12-8.58-4.5-12.7 1.53-16.26 2.08-6.7-.1-10.63 1.73-2.95 1.82-2.95 1.82z" fill="#461917" stroke-linecap="round" stroke-linejoin="round" stroke-width=".5" stroke="#000"/></symbol>
<symbol id="mouth-07"><g fill="currentColor"><path d="M122 180s1 10 2 14 1.5 6.5 1.5 6.5 3 0 4-1-2-17-2-18v-2s-1.49 0-3 .11a12 12 0 00-2.5.39z"/><path d="M131 179s1 10 2 14 1.5 6.5 1.5 6.5 3 0 4-1-2-17-2-18v-2s-1.49 0-3 .11a12 12 0 00-2.5.39zM141 179s1 10 2 14 1.5 6.5 1.5 6.5 3 0 4-1-2-17-2-18v-2s-1.49 0-3 .11a12 12 0 00-2.5.39zM149 178s1 10 2 14 1.5 6.5 1.5 6.5 3 0 4-1-2-17-2-18v-2s-1.49 0-3 .11a12 12 0 00-2.5.39z"/></g><path d="M122 180s1 10 2 14 1.5 6.5 1.5 6.5 3 0 4-1-2-17-2-18v-2s-1.49 0-3 .11a12 12 0 00-2.5.39z" fill-opacity=".4"/><path d="M122 180s1 10 2 14 1.5 6.5 1.5 6.5 3 0 4-1-2-17-2-18v-2s-1.49 0-3 .11a12 12 0 00-2.5.39z" stroke="#000" stroke-linecap="round" stroke-linejoin="round" fill="none"/><path d="M124.5 180.5s1 11 2 14a15.77 15.77 0 011 4s2.34-.11 2.17.44a31 31 0 00-.82-8.63 59 59 0 01-1.35-10.07v-.75h-3zM125.85 200.49l1.65-1.99" fill="#461917" stroke-width=".5" stroke="#000" stroke-linecap="round" stroke-linejoin="round"/><path d="M131 179s1 10 2 14 1.5 6.5 1.5 6.5 3 0 4-1-2-17-2-18v-2s-1.49 0-3 .11a12 12 0 00-2.5.39z" fill-opacity=".4"/><path d="M131 179s1 10 2 14 1.5 6.5 1.5 6.5 3 0 4-1-2-17-2-18v-2s-1.49 0-3 .11a12 12 0 00-2.5.39z" stroke="#000" stroke-linecap="round" stroke-linejoin="round" fill="none"/><path d="M133.5 179.5s1 11 2 14a15.77 15.77 0 011 4s2.34-.11 2.17.44a31 31 0 00-.82-8.63 59 59 0 01-1.35-10.07v-.75h-3zM134.85 199.49l1.65-1.99" fill="#461917" stroke-width=".5" stroke="#000" stroke-linecap="round" stroke-linejoin="round"/><path d="M141 179s1 10 2 14 1.5 6.5 1.5 6.5 3 0 4-1-2-17-2-18v-2s-1.49 0-3 .11a12 12 0 00-2.5.39z" fill-opacity=".4"/><path d="M141 179s1 10 2 14 1.5 6.5 1.5 6.5 3 0 4-1-2-17-2-18v-2s-1.49 0-3 .11a12 12 0 00-2.5.39z" stroke="#000" stroke-linecap="round" stroke-linejoin="round" fill="none"/><path d="M143.5 179.5s1 11 2 14a15.77 15.77 0 011 4s2.34-.11 2.17.44a31 31 0 00-.82-8.63 59 59 0 01-1.35-10.07v-.75h-3zM144.85 199.49l1.65-1.99" fill="#461917" stroke-width=".5" stroke="#000" stroke-linecap="round" stroke-linejoin="round"/><path d="M149 178s1 10 2 14 1.5 6.5 1.5 6.5 3 0 4-1-2-17-2-18v-2s-1.49 0-3 .11a12 12 0 00-2.5.39z" fill-opacity=".4"/><path d="M149 178s1 10 2 14 1.5 6.5 1.5 6.5 3 0 4-1-2-17-2-18v-2s-1.49 0-3 .11a12 12 0 00-2.5.39z" stroke="#000" stroke-linecap="round" stroke-linejoin="round" fill="none"/><path d="M151.5 178.5s1 11 2 14a15.77 15.77 0 011 4s2.34-.11 2.17.44a31 31 0 00-.82-8.63 59 59 0 01-1.35-10.07v-.75h-3zM152.85 198.49l1.65-1.99" fill="#461917" stroke-width=".5" stroke="#000" stroke-linecap="round" stroke-linejoin="round"/></symbol>
<symbol id="mouth-05"><path d="M130.5 175.5v15a73.09 73.09 0 001 13s6 1 6 0-1-28-1-28c-2.32-.12-5.22-.44-6 0z" fill="currentColor"/><path d="M130.5 175.5v15a73.09 73.09 0 001 13s6 1 6 0-1-28-1-28c-2.32-.12-5.22-.44-6 0z" stroke="#000" stroke-linecap="round" stroke-linejoin="round" fill="none"/><path d="M131.65 203a75.68 75.68 0 01-1.4-15.06 102.33 102.33 0 01.48-12.27 3 3 0 011.25-.25 5.33 5.33 0 011 .1l.43.2s0 .16-.13.72a138.49 138.49 0 00-1 14.06 64.14 64.14 0 001 10.92z" opacity=".4"/><path d="M132 175.67a5 5 0 01.87.08l.25.11a3.34 3.34 0 01-.09.52v.05a139.54 139.54 0 00-1 14.06 64.67 64.67 0 001 10.83l-1.16 1.16a77 77 0 01-1.3-14.56 107.4 107.4 0 01.46-12.1 2.85 2.85 0 011-.17m0-.5a3.13 3.13 0 00-1.48.33s-.5 3-.5 12.44a72 72 0 001.5 15.56l2-2a62.68 62.68 0 01-1-11 138 138 0 011-14c.13-.56.15-.92 0-1l-.5-.23a5.57 5.57 0 00-1-.1z"/><path d="M137.19 201.56a5.59 5.59 0 00-2.48-.65 3.64 3.64 0 00-1.34.25 39.16 39.16 0 01-1.12-9c0-4.56 1.26-14.93 1.47-16.62l2.54.17.56 15.47z" fill="#461917"/><path d="M133.94 175.83l2.06.17.56 15.25.35 9.94a5.61 5.61 0 00-2.21-.5 4 4 0 00-1.17.17 39 39 0 01-1-8.64c0-4.37 1.16-14.11 1.44-16.36m-.44-.53s-1.5 11.86-1.5 16.89a38.68 38.68 0 001.2 9.31 3.33 3.33 0 011.51-.35 5.56 5.56 0 012.74.85l-.38-10.8-.57-15.7-3-.2z"/><path d="M137.5 201.5v2h-5.7l1.7-2s1-2 4 0z" fill-opacity=".4" stroke-width=".75" stroke="#000" stroke-linecap="round" stroke-linejoin="round"/></symbol>
<symbol id="mouth-10"><path d="M105.5 180.5s18 3 32 0 32-11 32-11h1.33a1.13 1.13 0 01.85.65l4.82 17.35v3a3.73 3.73 0 01-.94 1.67c-2.53 1.85-9.8 6.88-17.06 9.3a72.67 72.67 0 01-25 4c-8.1 0-21.07-4.05-23.57-4.86l-.43-.14-5-19a1 1 0 011-.97z" fill="currentColor"/><path d="M105.5 180.5s18 3 32 0 32-11 32-11h1.33a1.13 1.13 0 01.85.65l4.82 17.35v3a3.73 3.73 0 01-.94 1.67c-2.53 1.85-9.8 6.88-17.06 9.3a72.67 72.67 0 01-25 4c-8.1 0-21.07-4.05-23.57-4.86l-.43-.14-5-19a1 1 0 011-.97z" stroke-linecap="round" stroke-linejoin="round" stroke="#000" fill="none"/><path d="M105.5 180.5s18 3 32 0 32-11 32-11h1.33a1.13 1.13 0 01.85.65l4.82 17.35v3a3.73 3.73 0 01-.94 1.67c-2.53 1.85-9.8 6.88-17.06 9.3a72.67 72.67 0 01-25 4c-8.1 0-21.07-4.05-23.57-4.86l-.43-.14-5-19a1 1 0 011-.97z" opacity=".1" stroke-linecap="round" stroke-linejoin="round" stroke="#000"/><path d="M108.33 195.83c0-.11-2.8-10.45-3.4-12.94a6.79 6.79 0 01-.3-2 2.1 2.1 0 01.46 0 3 3 0 011.77.84c.32.85 3 8.16 4 11.88a31.56 31.56 0 011 5.64l-2.35.78z" opacity=".4"/><path d="M105.08 181.25h.09a2.55 2.55 0 011.36.68c.43 1.16 3 8.16 3.91 11.75a33.25 33.25 0 01.95 5.29l-1.7.57-1-3.8c0-.1-2.8-10.45-3.4-12.93a13.31 13.31 0 01-.31-1.55h.1m0-.75c-.92 0-1.11 0-.52 2.48s3.44 12.94 3.44 12.94l1.2 4.57 3-1a28 28 0 00-1-6c-1-4-4-12-4-12a3.49 3.49 0 00-2-1z"/><path d="M111.5 199.5s17 6 36 2 29-11.87 29-11.87v.88l-.36.94-.44.64-1.7 1.24-7 4.33-7.1 3.34-10.68 3-4.63.79-5.34.51-5.75.16-5.06-.39-7.44-1.37-6.43-1.7-5.07-1.54-.12-.67z" fill-opacity=".4" stroke-miterlimit="10" stroke-width=".75" stroke="#000"/><path d="M116.51 200.51c1-3 3-11 3-11s4 2 13 2 27-7 27-7 7 6 8 10" stroke-linecap="round" stroke-linejoin="round" stroke="#000" fill="none"/></symbol>
<symbol id="mouth-04"><path d="M104 173s5.5 23.5 5.5 27.5c0 0 6 5 24 5s41-10 43-14c0 0-4-29-5-30 0 0-25 11-45 12-10.61.62-16.74.27-19.85-.08A20.06 20.06 0 01104 173z" fill="currentColor"/><path d="M106.65 173.42s3.08 5.1 4.72 14.34 1 10.85 1 10.85S123 203 128 203a73 73 0 0018-1.77 131.07 131.07 0 0022.47-7.33l7.93-3.29-3.18-21.13-1.7-8s-26 11-45 12-20 0-20 0" fill="#f9ec31"/><path d="M142.5 181.5v8.5l17.5-4 1 6v4.9l15-5.9-3-20.5c.15.38-19.81 8.35-30.5 11zM142.4 190a38.22 38.22 0 002.1 11.5s-10.5 1.5-17 1S113 199 113 199l-2.5-15.5h11l1.5 7.5a122 122 0 0019.4-1zM118 174l3.5 9c7.62.33 21-1.5 21-1.5s-1.13-7.27-2.5-9.5z" fill="#faaf40"/><path d="M104 173s5.5 23.5 5.5 27.5c0 0 6 5 24 5s41-10 43-14c0 0-4-29-5-30 0 0-25 11-45 12-10.61.62-16.74.27-19.85-.08A20.06 20.06 0 01104 173z" stroke="#000" stroke-linecap="round" stroke-linejoin="round" fill="none"/><path d="M112.33 198.61S122 203 130 203s23.5-2.5 32.5-6.5 13.88-5.89 13.88-5.89l.12.89a31.45 31.45 0 01-8.77 5.75c-5.23 2.25-19.73 8.25-35.48 8.25s-22.75-5-22.75-5l2.83-1.89" stroke-width=".75" fill-opacity=".4" stroke="#000" stroke-linecap="round" stroke-linejoin="round"/><path d="M107.5 174.5a93.08 93.08 0 014 14 67.34 67.34 0 011 10l-3 2s-2.2-15.2-4.6-23.6l-.9-3.69 2.93.25z" stroke-width=".75" fill-opacity=".4" stroke="#000" stroke-linecap="round" stroke-linejoin="round"/><path d="M124.61 202.46c.11-5-2.11-16-4.11-22s-3.42-6.66-3.42-6.66M140.25 171.58s2.25 5.92 2.25 9.92v8s.33 10.83 2.67 11.92" stroke-width=".75" stroke="#000" stroke-linecap="round" stroke-linejoin="round" fill="none"/><path d="M112 191s17 1 30-1 30-7 30-7l3-1" stroke-width=".75" stroke="#000" stroke-linecap="round" stroke-linejoin="round" fill="none"/><path d="M142.5 181.5v8.42l17.51-3.7 1 8.28v-.5s-1-9-2-14-2.84-12.76-2.84-12.76" stroke-width=".75" stroke="#000" stroke-linecap="round" stroke-linejoin="round" fill="none"/><path d="M176.5 190.5L173 170c-1.23 1.23-7.76 4-15.16 6.6-4.63 1.64-9.61 3.24-13.84 4.4-11 3-33.55 2.5-33.55 2.5" stroke-width=".75" stroke="#000" stroke-linecap="round" stroke-linejoin="round" fill="none"/></symbol>
<symbol id="accessory-09"><path d="M135 83s-13 2-13 5c0 2.2.2 4.3.5 6.5 0 0 4 4 13 3 5.7-.8 11.2-2.8 16-6v-5l-3-4s-5-1-13.5.5z" fill="currentColor"/><path d="M123.5 88.5s2 3 10 2c4.1-.4 8-1.3 11.9-2.8-.4.2-4.1-2.4-4.1-2.4s1.4-3.1 2-3.2c-4.2.3-8.4.9-12.6 1.7-3.2.7-8.2 1.7-7.2 4.7z" fill="#fff" fill-opacity=".2"/><path d="M123.5 88.5s2 3 10 2 14-3 15-5 1.2-2.4-1.4-3.2-13.2.9-16.4 1.5-8.2 1.7-7.2 4.7z" fill="#fff" fill-opacity=".2" stroke="#000" stroke-miterlimit="10"/><path d="M135 83s-13 2-13 5c0 2.2.2 4.3.5 6.5 0 0 4 4 13 3 5.7-.8 11.2-2.8 16-6v-5l-3-4s-5-1-13.5.5z" fill="none" stroke="#000" stroke-miterlimit="10"/><path d="M139.5 66.5s-4-16 3-27c0 0-2-7-6-3 0 0-4 3-5 15-.6 7.4.1 14.8 2 22 0 0 5 0 6-7z" fill="#716558" stroke="#000" stroke-miterlimit="10"/><path d="M119.5 36.5s1 13 3 19 4 11 6 16 5 7 6 5 0-3-2-10-5-18-5-25v-7c-1.3-.6-2.6-.9-4-1-2 0-4 1-4 3z" fill="#9a8479" stroke="#000" stroke-miterlimit="10"/><path d="M110.5 50.5s8 8 10 13 5 13 6 10-3-18-6-22c-1.5-2.1-3.2-4.1-5-6 0 0-5 0-5 5z" fill="#716558" stroke="#000" stroke-miterlimit="10"/><path d="M136.5 86.5s-5-19-19-28-20-7-20-7-4 3 1 6 12 5 18 10 12 14 12 16 3 5 8 3z" fill="#c1b49a" stroke="#000" stroke-miterlimit="10"/><path d="M134.5 73.5s6-25 16-32 9 2 9 2v4s-4-2-8 5-9 19-9 23v8s-4 5-6 3c0 0-3.2-7.6-3.1-8.3s1.1-4.7 1.1-4.7z" fill="#c1b49a" stroke="#000" stroke-miterlimit="10"/><path d="M144.4 88.1v7.1l7.1-3.7.1-4.6L150 84c-1.4 1.9-3.4 3.4-5.6 4.1z" fill-opacity=".2"/></symbol>
<symbol id="accessory-08"><path d="M161.3 66.4h-.3l-20.1-7.5-25.1-9-32.2-12c-.4-.1-.6-.6-.4-1 .1-.4.6-.6 1-.4l32.2 11.9 25.1 9 20.2 7.6c.4.1.6.6.4 1-.2.2-.5.4-.8.4z"/><path d="M158.5 67.6c-.9 0-1.9-.1-2.5-.2-.2 0-.4-.1-.5-.1-1-.1-11.2-4.1-14.2-5.4l-29-10.7c-1-.4-25.1-9-27.1-10-1.3-.6-2-1.2-2.4-1.9-.5-.9-.5-1.9.1-3.1 1-2 3.6-1.8 4.9-1.4l32 12 21.5 7.4 17.6 6.7c.1.1 1.2.6 2.1 1.4 1.8 1.6 1.7 2.8 1.3 3.7-.7 1.2-2.3 1.6-3.8 1.6zM85.9 36c-.7 0-1.4.2-1.7.8-.5.9-.3 1.4-.2 1.7.3.4.8.8 1.8 1.3 1.6.8 18.3 6.9 26.9 10l29.1 10.7c4.9 2 13 5.1 13.9 5.3.1 0 .3 0 .5.1 1.1.2 4.1.6 4.7-.7.5-1-1.6-2.4-2.7-3l-17.5-6.6-21.5-7.4-32-12s-.6-.2-1.3-.2z"/><g fill="currentColor"><path d="M128.5 86.5c-.5.5-.9 1.2-1 2v3s3 3 9 3 12-4 12-4v-5s-1-1-6-1-11 0-14 2zM173.5 21.5l-35 17s-.6 2.4.2 3.7l.8 1.3 37-18s2.6-5.2-3-4zM96.5 58.5s-2 2-1 3 3 0 3 0l33.7-15.9c-.5-1-.7-2-.7-3.1l-35 16z"/><path d="M134.5 47.5l-1 37c.9 1.4 2.4 2.1 4 2 1.9 0 3.6-.7 5-2l-2-40s-5 0-6 3z"/><path d="M136.5 38.5l-4 2c-.4.4-.7 1-.8 1.5-.1.5-.2 1-.2 1.5 0 2 2 4 3 4 0 0-.2-.5 1.4-1.8 1.3-.8 2.8-1.2 4.3-1.2h.3s-2-2-2-3v-3h-2z"/></g><path d="M137.1 87c-1.6 0-3.2-.8-4.1-2.2-.1-.1-.1-.2-.1-.3l1-37v-.1c1.1-3.3 6.3-3.3 6.5-3.3.3 0 .5.2.5.5l2 40c0 .1-.1.3-.2.4-1.5 1.3-3.4 2.1-5.3 2.1 0-.1-.1-.1-.3-.1zm-3.1-2.6c.8 1.1 2.1 1.8 3.5 1.6 1.7 0 3.3-.6 4.5-1.7L140 45c-1.2.1-4.3.5-5 2.6l-1 36.8z"/><path d="M128.5 87.5s0 2 6 2 11-1 13-3c.5-.6.5-1.8-2.2-1.9h-3.1c-1.1 1-2.6 1.7-4.1 1.8-3.5.1-4.3-1.6-4.3-1.6s-5.3.7-5.3 2.7z" fill="#fff" fill-opacity=".2"/><path d="M134.5 89.9c-6.2 0-6.4-2.1-6.4-2.4 0-2.3 5-3 5.5-3 .2 0 .3.1.4.2 0 .1.8 1.5 4 1.4 1.4-.1 2.8-.7 3.9-1.7.1-.1.2-.1.3-.1h3.1c1.5.1 2.5.5 2.8 1.2.2.4.1.9-.2 1.3-2.1 1.9-6.9 3.1-13.4 3.1zm-5.6-2.4c0 .1.3 1.6 5.6 1.6 6.2 0 10.9-1.1 12.7-2.9.1-.1.2-.3.1-.5-.1-.1-.4-.6-2.1-.7h-3c-1.2 1-2.7 1.7-4.2 1.8-2.9.1-4.1-1.1-4.5-1.6-1.9.3-4.6 1.1-4.6 2.3z"/><path d="M136.5 95c-6.1 0-9.2-3-9.4-3.1-.1-.1-.1-.2-.1-.4v-3c.1-.9.5-1.7 1.1-2.4l.1-.1c1.6-1 3.4-1.6 5.2-1.8.2 0 .5.1.5.4.4 1.3 2.6 1.3 4.1 1.3 1.6-.1 3.1-.7 4.2-1.9.1-.1.2-.1.3-.1 5 0 6 1 6.2 1.2.1.1.1.2.1.3v5c0 .2-.1.3-.2.4-.1.3-6 4.2-12.1 4.2zm-8.5-3.7c.7.6 3.5 2.7 8.5 2.7 5.1 0 10.4-3.1 11.5-3.8v-4.5c-.3-.2-1.6-.7-5.1-.7-1.3 1.2-3 1.9-4.7 2-1.6 0-4.2 0-5-1.7-1.5.2-3 .7-4.3 1.6-.4.5-.7 1-.8 1.7l-.1 2.7z"/><path d="M173.5 21.5l-35 17s-.6 2.4.2 3.7l.8 1.3 37-18c1 0 3-5-3-4z" fill="#fff" fill-opacity=".2"/><path d="M139.5 44c-.2 0-.3-.1-.4-.2l-.8-1.3c-.9-1.5-.3-4-.3-4.1 0-.1.1-.3.3-.3l35-17h.1c2.1-.3 3.6 0 4.3 1 .7 1 .4 2.2 0 3-.3.6-.7.9-1.1 1l-36.9 18c-.1-.1-.1-.1-.2-.1zm-.6-5.2c-.1.8-.3 2.3.2 3.1l.5.9L176.2 25c.1 0 .2 0 .2-.1.2-.1.8-1.1.6-2-.3-1.3-2.3-1.2-3.4-1l-34.7 16.9zM136.5 94.9c-6.1 0-9.1-3-9.3-3.1-.1-.1-.1-.2-.1-.3v-3c.1-.9.5-1.7 1.1-2.3 1.1-1.1 5.2-1.7 5.6-1.8.2 0 .4.1.4.2 0 0 .6 1.4 4 1.2 1.5 0 2.9-.6 3.9-1.7.1-.1.2-.1.3-.1 4.4-.2 5.6.4 6.3 1.1.1.1.1.2.1.3v5c0 .1-.1.2-.2.3-.1.3-6.1 4.2-12.1 4.2zm-8.6-3.6c.6.5 3.5 2.8 8.6 2.8 5.3 0 10.6-3.2 11.6-3.8v-4.6c-.5-.5-1.7-.9-5.5-.8-1.2 1.1-2.7 1.8-4.3 1.8-3.1.2-4.3-.9-4.6-1.4-1.3.2-4.3.8-5 1.5-.5.5-.8 1.1-.9 1.8l.1 2.7zm.6-4.8z"/><path d="M134.5 48c-1.3 0-3.5-2.2-3.5-4.5 0-.5.1-1.1.2-1.6.2-.6.5-1.2.9-1.7 0 0 .1-.1.2-.1l4-2c.1 0 .1-.1.2-.1h2c.3 0 .5.2.5.5v3c0 .5 1 1.8 1.9 2.6.1.1.2.4.1.5-.1.2-.3.3-.5.3h-.3c-1.4 0-2.8.4-4.1 1.1-1 .8-1.2 1.2-1.2 1.3 0 .1 0 .2-.1.3 0 .3-.1.4-.3.4zm.5-.6zm0 0zm0 0zm-2.2-6.5c-.3.4-.5.8-.6 1.3-.1.4-.2.9-.2 1.3 0 1.5 1.3 3 2.1 3.4.2-.4.6-.9 1.5-1.6 1.2-.7 2.5-1.2 3.8-1.3-.6-.7-1.4-1.8-1.4-2.5V39h-1.4l-3.8 1.9z"/><path d="M96.5 58.5s-2 2-1 3 3 0 3 0l33.8-15.6c-.5-1.1-.8-2.2-.8-3.4l-35 16z" fill="#fff" fill-opacity=".2"/><path d="M96.7 62.4c-.6 0-1.1-.1-1.6-.6-1.3-1.3.8-3.5 1-3.7l.1-.1 35-16c.2-.1.3-.1.5 0 .1.1.2.3.2.4 0 1.1.3 2.2.7 3.2.1.1.1.3 0 .4s-.1.2-.3.3L98.7 62s-1 .4-2 .4zm.1-3.5c-.5.6-1.4 1.8-.9 2.2.6.6 2 .1 2.4-.1l33.4-15.4c-.3-.8-.5-1.6-.6-2.4L96.8 58.9zM137.5 5.5s-2 0 1 2 32 15 32 15l2-1-33-15-2-1z"/><path d="M56.7 44c.2.6.6 1 1.2 1.2l38.4 13.6 1.9-1.2-39.4-13.5s-2.4-1.1-2.1-.1z"/><circle cx="175.5" cy="23.5" r="2" fill-opacity=".2"/><path d="M175.5 26c-1.4 0-2.5-1.1-2.5-2.5s1.1-2.5 2.5-2.5 2.5 1.1 2.5 2.5-1.1 2.5-2.5 2.5zm0-4c-.8 0-1.5.7-1.5 1.5s.7 1.5 1.5 1.5 1.5-.7 1.5-1.5-.7-1.5-1.5-1.5zM114.5 17.5s-2 0 1 2 32 15 32 15l2-1-33-15-2-1zM102 26.5s-2 .1 1.1 1.9S133 40.2 133 40.2l1.9-.8-30.8-12-2.1-.9z"/><path d="M177.5 24.2L212 41c1 1 .4 1.4-2 1l-33.5-16.5s.5-.1 1-1.3zM155 35.4l35.5 14.3s1.5 1.2-1.9 1.1l-34.6-14 1-1.4zM102.9 59l31.4 9.7-.7 1.3L101 60zM142 42.5l35.6 13c2.4.9.5 2.5-2 1.2l-35.5-13 1.9-1.2z"/><path d="M136 38.8c-.4.9-.6 1.8-.5 2.8 0 2 2.2 3.4 2.2 3.4l1.8 40.8 4.5 2.6v4l4.5-1.9v-5c-2-.5-4-.8-6-1l-2-40c-1.1-.6-1.9-1.7-2-3v-3l-2.5.3z" fill-opacity=".2"/></symbol>
<symbol id="accessory-01"><path d="M141.5 79.5s-1 11-1 17v8s-11 3-15 3h-10s-1-11-1-15-2-10 6-13a138 138 0 0114-1c6 0 7 1 7 1z" fill="currentColor"/><path d="M141.5 79.5s-1 11-1 17v8s-11 3-15 3h-10s-1-11-1-15-2-10 6-13a138 138 0 0114-1c6 0 7 1 7 1z" stroke-linecap="round" stroke-linejoin="round" stroke="#000" fill="none"/><path d="M116.5 106.5s22-2.67 24-3.33v1.33s-11.42 2.74-13.21 2.87-11.79.13-11.79.13v-.94l1-.06" fill-opacity=".4" stroke-width=".75" stroke-linecap="round" stroke-linejoin="round" stroke="#000"/><circle cx="137.5" cy="100.5" r="1"/><circle cx="139" cy="81" r=".75"/><circle cx="117" cy="103" r=".75"/><path d="M117 88h3a3.49 3.49 0 012-1c1 0 9.5-1.5 9.5-1.5s-9 7-10 13v4l7-1s-1-6 2-10a22.28 22.28 0 017-6v-3l-1-1-18 2-1 1z" fill-opacity=".2" stroke-miterlimit="10" stroke-width=".5" stroke="#000"/></symbol>
<symbol id="accessory-03"><ellipse cx="133" cy="26" rx="7.5" ry="6.5" fill="#be1e2d"/><path d="M140 25c.2.7-5.5 8.1-11.6 6.3a8.8 8.8 0 007.9.5C141 30 140 25 140 25z" fill="#561317"/><path d="M133 33c-4.4 0-8-3.1-8-7s3.6-7 8-7 8 3.1 8 7-3.6 7-8 7zm0-13c-3.9 0-7 2.7-7 6s3.1 6 7 6 7-2.7 7-6-3.1-6-7-6z"/><ellipse transform="rotate(-29.888 130.731 23.02)" cx="130.7" cy="23" rx="4.5" ry="2.2" fill="#ed293b"/><path d="M122.5 94.5s4 3 13 3 16-6 16-6c0-2.4-.4-4.7-1-7-1-3-10.5-2.9-15.7-1.9s-11.3.9-12.3 3.9v8z" fill="currentColor"/><path d="M135.5 82.5s-13 1-13 4 9 4 13 4 15-2 15-6-15-2-15-2z" fill="#fff" fill-opacity=".2" stroke="#000" stroke-width=".75" stroke-linecap="round" stroke-linejoin="round"/><path d="M122.5 94.5s4 3 13 3 16-6 16-6c0-2.4-.4-4.7-1-7-1-3-10.5-2.9-15.7-1.9s-11.3.9-12.3 3.9v8z" fill="none" stroke="#000" stroke-linecap="round" stroke-linejoin="round"/><ellipse cx="133" cy="26" rx="7.5" ry="6.5" fill="none" stroke="#000" stroke-width=".75" stroke-miterlimit="10"/><path d="M148.2 93.8c.3-1.3-.7-6.3-.7-6.3s-7.4-2.6-8.2-2.3 1.9-.8 2-1.8.2-1.4.2-1.4 3.1 0 5.5.2 3.4 1.5 3.4 2.3l.6 2.6.4 4.3-3 2" fill-opacity=".2"/><path d="M133 29.2s-7.5 13.2-6.5 28.9c.5 8.9 1.5 17.7 3 26.4 0 0 0 2 4 2 2.5 0 4.9-.7 7-2 .5-.5.9-1.2 1-2 0-1-11-18.6-8-48.9 0 0 1-5.8-.5-4.4z" fill="#e6e7e8" stroke="#000" stroke-miterlimit="10"/><path d="M130.5 46.5c.1 6.1.8 12.1 2 18 1.6 6.5 3.6 12.8 6 19l.5 1.8s2.5-.8 2.5-2.8c0 0-6.4-14.4-7.2-22.7s-1.8-20.3-.8-26.3c0 0-.1-3.3.2-2.9s-3.7 7.4-3.2 15.9z" fill="#d0d2d3"/><path d="M133 29.2s-7.5 13.2-6.5 28.9c.5 8.9 1.5 17.7 3 26.4 0 0 0 2 4 2 2.5 0 4.9-.7 7-2 .5-.5.9-1.2 1-2 0-1-11-18.6-8-48.9 0 0 1-5.8-.5-4.4z" fill="none" stroke="#000" stroke-miterlimit="10"/><path d="M126 46s-9 1-9 6 10 5 13 5 12-1 12-6-8-5-8-5" fill="none" stroke="#000" stroke-linecap="round" stroke-linejoin="round"/></symbol>
<symbol id="accessory-02"><path d="M103.5 165.5s11-4 15-6a59.46 59.46 0 017-3s5 0 6 3 0 5-1 6-23 8-23 8a4.45 4.45 0 01-5-2c-3-5 1-6 1-6z" fill="currentColor"/><path d="M102 167c-1.07 1.3 1.29 6.38 2.64 6.19s6.07.81 4.36-4.12c-1.82-4.07-5.95-3.35-7-2.07z" fill="#fff" fill-opacity=".2"/><path d="M103.5 165.5s11-4 15-6a59.46 59.46 0 017-3s5 0 6 3 0 5-1 6-23 8-23 8a4.45 4.45 0 01-5-2c-3-5 1-6 1-6z" fill="none" stroke="#000" stroke-linecap="round" stroke-linejoin="round"/><path d="M106.5 173.5c3-1 3-3 2-5-3-4-6-2-6-2.24M109.1 163.4s4.4.1 5.4 3.1a5.22 5.22 0 01-.78 5" stroke-width=".75" fill="none" stroke="#000" stroke-linecap="round" stroke-linejoin="round"/><circle cx="128" cy="161" r="1"/></symbol>
<symbol id="accessory-06"><path d="M125.5 157.5s8-4 15-3 20 8 26 5l8-4s-3 13-14 14-29-3-35-2-25 7-30 6-10-1-12-11c0 0-1-3 3 0s11 4 18-1 15-8 21-4z" fill="currentColor"/><path d="M125.5 157.5s8-4 15-3 20 8 26 5l8-4s-3 13-14 14-29-3-35-2-25 7-30 6-10-1-12-11c0 0-1-3 3 0s11 4 18-1 15-8 21-4z" stroke="#000" stroke-linecap="round" stroke-linejoin="round" fill="#fff" fill-opacity=".4"/><ellipse cx="107.5" cy="165.25" rx="1" ry="1.25"/><ellipse cx="99.5" cy="168.25" rx="1" ry="1.25"/><ellipse cx="91.75" cy="168.94" rx=".75" ry=".94"/><ellipse cx="115.5" cy="163.25" rx="1" ry="1.25"/><ellipse cx="134.5" cy="162.25" rx="1" ry="1.25"/><ellipse cx="145.5" cy="163.25" rx="1" ry="1.25"/><ellipse cx="154.5" cy="164.25" rx="1" ry="1.25"/><ellipse cx="161.5" cy="163.25" rx="1" ry="1.25"/><circle cx="125" cy="162" r="2.5" fill="none" stroke-width=".75" stroke="#000" stroke-linecap="round" stroke-linejoin="round"/><circle cx="125" cy="162" r=".5"/></symbol>
<symbol id="accessory-07"><path d="M131 59s-13 1-14 6c-.3.9-.1 1.8.5 2.5 1 1 3 5 4 8s2 5 0 5-8 2-10 4-1 5-1 5l1 9c5.4 3.4 11.6 5.1 18 5 16.5.5 34-9 35-10s-1-11-1-11c.2-.2-2.8-5.2-4-5-1 .1-12 0-12 0s0-15-1-16-5-3-15.5-2.5z" fill="currentColor"/><path d="M151.5 88.5s1.1 9.5.6 10.8c0 0 12.4-4.8 12.4-5.8s0-9-1-11c-1.1-1.8-2.5-3.5-4-5 0 0 1.6 1.4-.2 3.7s-5.4 6.3-8.1 6.3l.3 1z" fill-opacity=".2"/><path d="M121.5 80.5s-7.3 1.2-8.7 3.1.2 5.7 3.9 6.3 12.3 2.1 27-.6l7.4-1.8-10.7-4c-5.9-2.6-12.4-3.6-18.9-3z" fill="#fff" fill-opacity=".2"/><path d="M121.5 75.5s0 2 6 3 13-2 16-4 3.3-3.4 3.3-3.4l.7 6.4c-1.5 3.2-4.5 5.5-8 6-13 3-16.9-3.6-16.9-3.6l-1.1-4.4z" fill="#ec1c24"/><path d="M133.1 84.7c-8 0-10.7-4.3-10.8-4.6V80l-1-4.1c-.1-.2-.1-.3-.1-.4l-.3-2.2 1.1 2.3c.2.4 1.1 1.7 5.6 2.5 5.8 1 12.6-1.8 15.7-3.9 2.8-1.9 3.2-3.2 3.2-3.2l.5-2 .9 8.5v.1c-1.6 3.3-4.7 5.6-8.3 6.2-2.5.6-4.6.9-6.5.9zm-10.2-4.9c.4.5 4.5 6.1 16.5 3.4 3.4-.5 6.2-2.7 7.7-5.7l-.5-5.1c-.5.6-1.4 1.5-2.9 2.5-3.3 2.2-10.3 5.1-16.3 4.1-2.7-.5-4.3-1.1-5.2-1.7l.7 2.5z"/><path d="M137 67l3.9 16.2s6.5-3.3 6.3-6.2c-.2-3.1-.1-13.7-.1-13.7s-2 3.7-10.1 3.7z" fill-opacity=".2"/><path d="M136.2 59l.8 8s-18 2-20-2 13.4-7 19.2-6z" fill="#fff" fill-opacity=".2"/><path d="M130.8 104c-5.7-.1-11.3-1.2-16.6-3.4-1.1-.3-2.1-.9-3-1.7-.1-.1-.1-.2-.2-.3l-1.2-10c-.2-2.4 1-4.7 3.1-5.8.2-.1.5-.1.6.1.2.2.2.4 0 .6 0 .1-1 1.5-.2 3 1 1.8 5.3 4.6 23 3.3 13.7-.9 19.3-4.5 21.6-7.4 2-2.4 1.7-4.4 1.7-4.5 0-.2.1-.4.3-.5.2-.1.5 0 .6.2l3.4 4.6c0 .1.1.1.1.2.6 3.1 1.9 10.4.9 11.5-1.2 1.1-18.2 10.1-34.1 10.1zM112 98.3c.7.6 1.6 1.1 2.5 1.4 5.2 2.1 10.7 3.2 16.3 3.3 15.3 0 32.3-8.8 33.3-9.9.5-.7-.2-5.9-1.1-10.4l-2.5-3.4c-.2 1-.7 2.3-1.9 3.8-2.4 3-8.3 6.8-22.3 7.7-13.9 1-21.9-.2-23.9-3.8-.5-.8-.5-1.6-.4-2.3-.9 1-1.4 2.4-1.3 3.8l1.3 9.8zM128.5 68.1c-4 0-9.6-.4-11.3-2.2-.4-.5-.6-1.1-.5-1.7.8-4.5 14.2-5.6 15.7-5.7 1.4 0 13.5-.3 14.5 3.9.2.6 0 1.2-.4 1.7-2.2 3-12.9 3.8-14.1 3.9-.3 0-1.9.1-3.9.1zm5.3-8.7h-1.3c-3.9.3-14.2 1.7-14.8 4.9-.1.3 0 .6.3.9 1.9 2.1 11.1 2 14.4 1.8 3.2-.2 11.7-1.2 13.3-3.5.2-.3.3-.6.2-.9-.5-2.6-8.1-3.2-12.1-3.2z"/><path d="M129.5 104c-12 0-18.1-4.9-18.3-5.1l-.2-.1-1-9.2c-.1-.5-.9-3.4 1.1-5.5 2.1-2.1 8.1-4.1 10.4-4.1.2 0 .5 0 .6-.2.3-.4-.2-1.7-.7-3-.1-.4-.3-.7-.4-1.1-1.1-3.2-3-6.9-3.9-7.8-.7-.9-1-2-.6-3 1-5.3 13.9-6.3 14.4-6.3 12-.6 15.3 2.1 15.9 2.6 1 1 1.1 11 1.1 15.8 2.8-.2 11.5 0 11.6.1 1.1.2 3.4 3.7 4.3 5.2l.1.2c.6 3.1 1.9 10.4.9 11.5-1.3 1.2-17.7 10-35.3 10zM112 98.2c1 .7 6.9 4.8 17.5 4.8 18.2 0 33.9-9.1 34.6-9.9.5-.7-.2-5.9-1.1-10.5-1.4-2.2-3.1-4.5-3.6-4.7-.8-.2-10.9-.2-11.7 0l-.1-.5-.4-.1c0-7.1-.4-14.8-1-15.6-.3-.3-3.3-2.9-15.1-2.3-3.5.3-12.8 1.8-13.5 5.6-.2.8-.1 1.5.4 2.1 1 1 3.1 5.1 4.1 8.2.1.4.3.8.4 1.1.7 1.9 1.1 3.2.5 4-.3.4-.7.6-1.4.6-1.8 0-7.7 1.9-9.6 3.9-1.8 1.8-.9 4.5-.9 4.5v.1l.9 8.7z"/></symbol>
<symbol id="accessory-05"><path d="M139.5 51.5s-24-2-32 33c0 0-6 25 20 25s32-17 34-32-12-26-22-26z" fill="currentColor"/><path d="M139.5 51.5c-15.9.1-26.8 10.6-32 33 0 0-5 26 20 25s34-18 34-32c0-17-12-26-22-26z" fill="none" stroke="#000" stroke-linecap="round" stroke-linejoin="round"/><path d="M143.5 53.5s14 7 10 29-26 25-33 24-18-7-10.3-30.8c4.3-16.2 20.3-28.2 33.3-22.2z" fill="none" stroke="#000" stroke-width=".75" stroke-linecap="round" stroke-linejoin="round"/><path d="M121.5 63.5c-3 1.9-8 6-9 11s-1 14 0 16 4 1 4-2 0-17 5-21 1.9-5.2 0-4zM128.5 57.5s-6 4-3 5 6-3 6-3 2-3-3-2z" fill="#fff" fill-opacity=".4"/><path d="M125.5 71.5s-7-2-10 1c-1.9 2.1 0 8 5 10s8-1 9-4-2-7-4-7z" fill="#ec1c24" stroke="#000" stroke-width=".75" stroke-miterlimit="10"/><path fill="#fff" fill-opacity=".2" d="M131 79l4 2-.4-2.3-4.2-2.1-.3 2z"/><path d="M130.1 76.5l4.5 2s.9 2 0 3c-.7.6-1.7 1-2.7 1l-2.9-1.7c1-1.2 1.4-2.8 1.1-4.3z" fill="none" stroke="#000" stroke-width=".75" stroke-linecap="round" stroke-linejoin="round"/><ellipse cx="120" cy="75.5" rx="2.5" ry="2" fill="#fff" fill-opacity=".4"/><path d="M123.5 71.5s5 2 4 6-6.5 4.8-8.2 4.4 7.5 3.3 9.9-2.5c2.3-5.9-3-8.1-5.7-7.9z" fill-opacity=".2"/></symbol>
<symbol id="accessory-04"><path d="M136.5 83.5c-3.4.3-11 2-13 4-.7.8-1.1 1.9-1 3v5c3.8 2.6 8.4 3.7 13 3 8-1 16-6 16-6s0-6-1-7-1-2-5-2-6.8-.2-9 0z" fill="currentColor"/><path d="M125.7 86.2s-2.2 1.3-1.2 3.3 7 3 12 2c2.9-.6 5.8-1.4 8.6-2.5-1.1-2-8.4-5.9-8.4-5.9s-7.2 1-11 3.1z" fill="#fff" fill-opacity=".2"/><path d="M125.7 86.2s-2.2 1.3-1.2 3.3 7 3 12 2c3.8-.9 7.5-2.3 11-4 0 0 3.6-2.1 1.3-3.5s-16.9-1.2-23.1 2.2z" fill="#fff" fill-opacity=".2" stroke="#000" stroke-width=".75" stroke-linecap="round" stroke-linejoin="round"/><path d="M136.5 83.5c-3.4.3-11 2-13 4-.7.8-1.1 1.9-1 3v5c3.8 2.6 8.4 3.7 13 3 8-1 16-6 16-6s0-6-1-7-1-2-5-2-6.8-.2-9 0z" fill="none" stroke="#000" stroke-linecap="round" stroke-linejoin="round"/><path d="M134.5 73.5s-5 1-5 6 1 7 1 7c2.6.6 5.4.6 8 0 4-1 5-3 5-3s-1-10-9-10z" fill="#ec1c24" stroke="#000" stroke-linecap="round" stroke-linejoin="round"/><path d="M139.5 75.5s2 3 1 6-6 5-6 5 4.9 1.7 9-3c.2-.2-1.3-5.9-4-8z" fill-opacity=".1"/><path d="M134.5 73.5s-5 1-5 6 1 7 1 7c2.6.6 5.4.6 8 0 4-1 5-3 5-3s-1-10-9-10z" fill="none" stroke="#000" stroke-linecap="round" stroke-linejoin="round"/><path d="M144.5 88.5c1 1 0 7.3 0 7.3l7-3.3s0-6.1-1.5-7.6c-2 3.1-3 3.1-5.5 3.6z" fill-opacity=".2"/><path d="M133.5 75.5c.6 0 1 .4 1 1 0 1 0 6-2 6s-2.5 0-2-4c.6-4.1 3-3 3-3z" fill="#fff" fill-opacity=".4"/></symbol>
<symbol id="accessory-10"><path d="M122.5 88.5v6s3 4 13 3c12.5-.5 16-5 16-5v-6l-2-3c-5-.6-10-.6-15 0-8 1-12 2-12 5z" fill="currentColor"/><path d="M142.5 89.5c.2-.1 1.3-.4 1.5-.5-.6-1.8-4.5-5.6-5.5-5.7-7-.4-11.7 1-13.2 2-1.8 1.2-3.8 2.2 1.2 4.2 3 1 12 1 16 0z" fill="#fff" fill-opacity=".2"/><path d="M122.5 88.5v6s2 3 13 3 16-5 16-5v-6l-2-3c-5-.6-10-.6-15 0-8 1-12 2-12 5z" fill="none" stroke="#000" stroke-miterlimit="10"/><path d="M142.5 89.5c4-1 10.8-4.9 3.9-5.9s-19.4.6-21.1 1.8-3.8 2.2 1.2 4.2c3 .9 12 .9 16-.1z" fill="none" stroke="#000" stroke-miterlimit="10"/><path d="M130.5 52.5L128.2 84s1.3 3.5 7.3 2.5 7.3-3.4 7.3-3.4l-10.3-28.5c0-.1-1-3.1-2-2.1z" fill="#fff" stroke="#000" stroke-miterlimit="10"/><path d="M131.5 55.5l7.1 30.3s3.7-.5 3.9-2.3c.3-2-10-29-10-29s-2-4-1 1z" fill="#d0d2d3"/><path d="M130.5 52.5L128.2 84s1.3 3.5 7.3 2.5 7.3-3.4 7.3-3.4l-10.3-28.5c0-.1-1-3.1-2-2.1z" fill="none" stroke="#000" stroke-miterlimit="10"/><path d="M144.1 88.7v8l7.4-4.3v-6l-2-3c.5 2.5-1.7 4.1-5.4 5.3z" fill-opacity=".4"/></symbol>
<symbol id="eyes-04"><path d="M127.5 127.5c11.08-.53 43-2 43 11 1 15-16.69 15-23.34 15.52s-37.66 1.48-47.66.48-15-4-15-12 8-11 17-13 19.5-1.69 26-2z" fill="currentColor"/><path d="M94.39 132.09s2.78-4.25 37.95-4.92 37.17 6.33 38.17 11.33-3 10.76-6 11.88c0 0 5.52-6.38-2.24-11.63s-22.72-6.58-29.74-6.91-24.86-.88-27.94-.61-8.31.44-10.2.86z" fill-opacity=".4" fill="#fff"/><path d="M127.5 127.5c11.08-.53 43-2 43 11 1 15-16.69 15-23.34 15.52s-37.66 1.48-47.66.48-15-4-15-12 8-11 17-13 19.5-1.69 26-2z" stroke="#000" stroke-miterlimit="10" fill-opacity=".2" fill="#fff"/><path d="M121.5 131.5c-19 0-36-3-37 11s19 12 40 12 42 0 42-9c0-11-26-14-45-14z" stroke-width=".75" fill="none" stroke="#000" stroke-miterlimit="10"/><path d="M121.5 140.5s29 0 32 1 2 4-1 4-22-1-31-1-22 1-26 0-1-2 11-3 15-1 15-1z" fill="red" stroke-width=".75" stroke="#000" stroke-miterlimit="10"/></symbol>
<symbol id="eyes-10"><path d="M129.5 123.5s-30 3-31 15 8 13 15 14 20-2 26-3 25 1 27-13-17-14-17-14z" fill="currentColor"/><path d="M116.92 125.8s-15.42 2.7-16.42 12.7 15.5 13 24.25 10.5a97.37 97.37 0 0125.25-3.56c6.5.06 16.78-3.69 16.64-11.31s-9.14-11.63-17.14-11.63-21.12 1.13-21.12 1.13z" fill-opacity=".4" fill="#fff"/><path d="M130.5 123.5l-8 25.5c1.6-.06 5.38-.65 9-1.2l7-24.8a47.26 47.26 0 01-8 .5zM120.77 124.91L113 150h5l7.41-25.94-4.64.85z" fill-opacity=".4" fill="#fff"/><path d="M129.5 123.5s-30 3-31 15 8 13 15 14 20-2 26-3 25 1 27-13-17-14-17-14z" stroke="#000" stroke-linecap="round" stroke-linejoin="round" fill="none"/><path d="M106.61 129.46s-6.11 3-6.11 9 5 13 20 11 23-4 28-4 17.29-2.5 18.15-10.25c0 0 .3 10.92-14.42 13.09s-16.25 1.2-21 2.68-28.06 4.23-32.4-7.15c.01.04-3.12-9.4 7.78-14.37z" stroke-width=".75" stroke="#000" stroke-linecap="round" stroke-linejoin="round" fill-opacity=".4"/></symbol>
<symbol id="eyes-05"><path d="M131.5 119.5c-5 0-19 2-19 16 0 15 10 18 18 18s17-7 16-19-10-15-15-15z" fill="currentColor"/><path d="M131.5 119.5c-5 0-19 2-19 16 0 15 10 18 18 18s17-7 16-19-10-15-15-15z" stroke-width=".75" stroke="#000" fill-opacity=".4" stroke-miterlimit="10"/><path d="M132 124h-.5c-2.51 0-13.61.38-14.5 11-1 12 8.5 13.5 12.5 13.5s13-3 13-13c0-11-10.5-11.5-10.5-11.5z" stroke-width=".75" stroke="#000" fill-opacity=".4" stroke-miterlimit="10"/><path d="M130.5 124.5s-10 1-10 10 5 11 11 11a11.1 11.1 0 0011-11c0-6-6-10-12-10z" stroke-width=".5" fill="#461917" stroke-linecap="round" stroke-linejoin="round" stroke="#000"/><ellipse cx="131.5" cy="134.5" rx="2" ry="3" fill="#ec1c24"/><path d="M147.5 133.5h6s1 0 0 1a7.69 7.69 0 01-3 2h-4v-2zM112.49 135.15a29.28 29.28 0 01-3.29.35c-1.1 0-1.7 1-2.2 2a.79.79 0 00.2.57 1.56 1.56 0 00.94.36 18.66 18.66 0 002.15.07c2.2 0 2.32-.35 2.32-.35z" fill="#461917" stroke-linecap="round" stroke-linejoin="round" stroke-width=".75" stroke="#000"/></symbol>
<symbol id="eyes-07"><path d="M99.5 142.5s0-10 12-14 26-4 26-4 20-1 25 2 5 9 5 11-2 11-19 13-33 3-33 3-16 0-16-11z" fill="currentColor"/><path d="M99.5 142.5s0-10 12-14 26-4 26-4 20-1 25 2 5 9 5 11-2 11-19 13-33 3-33 3-16 0-16-11z" stroke-linecap="round" stroke-linejoin="round" stroke="#000" fill-opacity=".6"/><path d="M107.16 130.47S105 133 105 138s2 9 8 10 20.5-1.5 20.5-1.5 11-2 18-2 15.74-2.78 15.87-5.89-.17-7.11-2.52-10.11-7.12-3.56-10.24-3.78-12.52-.54-14.82-.38-10.17.47-12.23.81-7.31 1.1-7.31 1.1l-7.61 1.87s-4.81 1.32-5.48 2.35z" stroke-width=".5" fill="#461917" stroke-linecap="round" stroke-linejoin="round" stroke="#000"/><path d="M109 135s-1 11 10 10 10-10 10-10 0-6-3-8-2.85-1.25-2.85-1.25-11.28 2.64-12.21 2.94S109 133 109 135z" fill="#f9ec31" stroke-width=".5" stroke-linecap="round" stroke-linejoin="round" stroke="#000"/><path d="M142 125s-3 2-3 7 3.5 10.5 9.5 10.5 12-4 12-10-3.66-7.5-3.66-7.5l-4.78-.47-4.22-.16h-3.44l-1.91.13z" stroke-miterlimit="10" fill="#f9ec31" stroke-width=".5" stroke="#000"/><path d="M119.42 133s-1.17 0-1.17 2.5 1.17 2.5 1.17 2.5a2.51 2.51 0 000-5zM150.08 130a1.8 1.8 0 00-1.82 1.94c-.07 2 .78 3 1.65 3.06s1.78-.94 1.85-2.94a1.8 1.8 0 00-1.68-2.06"/><path d="M99.5 142.5s0-10 12-14 26-4 26-4 20-1 25 2 5 9 5 11-2 11-19 13-33 3-33 3-16 0-16-11z" fill="none" stroke-linecap="round" stroke-linejoin="round" stroke="#000"/></symbol>
<symbol id="eyes-06"><g fill="currentColor"><path d="M112.71 130h-.49c-2.46 0-13.35.38-14.22 11-1 12 8.33 13.5 12.26 13.5s12.75-3 12.75-13c-.01-11-10.3-11.5-10.3-11.5zM156.71 130h-.49c-2.46 0-13.35.38-14.22 11-1 12 8.33 13.5 12.26 13.5s12.75-3 12.75-13c-.01-11-10.3-11.5-10.3-11.5z"/></g><path d="M112.71 130h-.49c-2.46 0-13.35.38-14.22 11-1 12 8.33 13.5 12.26 13.5s12.75-3 12.75-13c-.01-11-10.3-11.5-10.3-11.5z" stroke="#000" fill-opacity=".55" stroke-miterlimit="10" stroke-width=".75"/><path d="M111.23 130.5s-9.8 1-9.8 10 4.9 11 10.78 11a11 11 0 0010.78-11c.01-6-5.87-10-11.76-10z" fill="#461917" stroke-linecap="round" stroke-linejoin="round" stroke-width=".5" stroke="#000"/><ellipse cx="112.22" cy="140.5" rx="1.96" ry="3" fill="#ec1c24"/><path d="M156.71 130h-.49c-2.46 0-13.35.38-14.22 11-1 12 8.33 13.5 12.26 13.5s12.75-3 12.75-13c-.01-11-10.3-11.5-10.3-11.5z" stroke="#000" fill-opacity=".55" stroke-miterlimit="10" stroke-width=".75"/><path d="M155.23 130.5s-9.8 1-9.8 10 4.9 11 10.78 11a11 11 0 0010.78-11c.01-6-5.87-10-11.76-10z" fill="#461917" stroke-linecap="round" stroke-linejoin="round" stroke-width=".5" stroke="#000"/><ellipse cx="156.22" cy="140.5" rx="1.96" ry="3" fill="#ec1c24"/></symbol>
<symbol id="eyes-02"><g fill="currentColor"><path d="M110.5 122.5c-4 0-17 2-17 17s10 17 17 17 15-5 15-18-11-16-15-16z"/><path d="M153.5 121.5c-4 0-17.5 2.5-17.5 17.5s10.5 16.5 17.5 16.5 16-5 16-18c-2.5-15.5-12-16-16-16z"/></g><path d="M110.5 126.5s-13 0-13 12 10 13 13 13 12-2 12-14.52c0 .02-1-9.48-12-10.48z" stroke-width=".5" stroke="#000" stroke-linecap="round" stroke-linejoin="round" fill-opacity=".2"/><path d="M154.5 121.5s-20 0-19 18 19 16 19 16 16-2 15-17-11-17-15-17zM110.5 122.5c-4 0-17 2-17 17s10 17 17 17 15-5 15-18-11-16-15-16z" fill-opacity=".4" stroke="#000" stroke-linecap="round" stroke-linejoin="round"/><path d="M140.1 137.73s-2 13.2 12.18 13.2 14.22-10.15 14.22-13.2-3-12.18-12.18-12.18-14.22 7.1-14.22 12.18z" fill-opacity=".4" stroke-width=".5" stroke="#000" stroke-linecap="round" stroke-linejoin="round"/><path d="M109 127s-9 1-9 9 2.5 12.5 10.5 12.5 12-5 12-10-5-12-13.5-11.5zM154 126s-10.5.52-11 9.4 4 13.6 11 13.6 12-6.26 12-11.49-4.5-12-12-11.51z" fill="#461917" stroke-width=".5" stroke="#000" stroke-linecap="round" stroke-linejoin="round"/><path d="M110.26 134.06a.92.92 0 00-.24.05c-.36.13-1 .61-1 2.31 0 2.36 0 3.54 1.26 3.54s2.51 0 2.51-3.54c-.02-2.36-1.67-2.56-2.53-2.36zM154.26 134.06a.92.92 0 00-.24.05c-.36.13-1 .61-1 2.31 0 2.36 0 3.54 1.26 3.54s2.51 0 2.51-3.54c-.02-2.36-1.67-2.56-2.53-2.36z" fill="#faaf40"/></symbol>
<symbol id="eyes-03"><path d="M135.5 123.5s-34 1-35 17 23 12 23 12 23-2 28-3 18-5 18-14-8-13-17-13-13 1-17 1z" fill="currentColor"/><path d="M117.31 152.44c-4.51 0-10.59-.74-13.91-4.27a9.8 9.8 0 01-2.41-7.64c1-15.37 34.18-16.52 34.52-16.53 1.61 0 3.25-.16 5.15-.35a107.89 107.89 0 0111.84-.65c8 0 16.5 3.28 16.5 12.5 0 9.71-15.8 13.15-17.6 13.51-4.92 1-27.72 3-27.95 3a42 42 0 01-6.14.44z" opacity=".4"/><path d="M152.5 123.5c7.73 0 16 3.15 16 12 0 7.56-10.81 11.74-17.2 13-4.89 1-27.66 3-27.89 3h-.08a41.19 41.19 0 01-6 .43c-4.41 0-10.35-.71-13.54-4.12a9.32 9.32 0 01-2.27-7.27c.93-14.91 33.7-16.05 34-16.06 1.65 0 3.3-.17 5.22-.36a107.45 107.45 0 0111.78-.64m0-1c-9 0-13 1-17 1 0 0-34 1-35 17-.67 10.67 9.78 12.44 16.81 12.44a41.73 41.73 0 006.19-.44s23-2 28-3 18-5 18-14-8-13-17-13z"/><path d="M106.5 132.5s-2 2-1 6 2 9 16 8a306.78 306.78 0 0031-4c6-1 16-1.5 17-6.25s-2.18-11.89-12.09-13.32-12.93-.11-16.92.23-8.25.45-11.62.89-16.37 2.44-22.37 8.44" stroke-width=".5" stroke-linecap="round" stroke-linejoin="round" stroke="#000" fill="#461917"/><path d="M134 124s-4 2-4 6 3.5 11.5 10.5 10.5 9-5 9-11-6.58-6.54-6.58-6.54-3.42.54-4.42.54-4.5.5-4.5.5z" fill="#ec1c24" stroke-miterlimit="10" stroke-width=".5" stroke="#000"/><ellipse cx="140" cy="130.5" rx="2" ry="2.5"/><path d="M107.5 131.5s-3 2-2 7c1 4 2 9 16 8a306.78 306.78 0 0031-4c6-1 16-1.5 17-6.25s-2.18-11.89-12.09-13.32-12.93-.11-16.92.23-8.25.45-11.62.89-15.37 1.44-21.37 7.44" fill="none" stroke-width=".75" stroke-linecap="round" stroke-linejoin="round" stroke="#000"/></symbol>
<symbol id="eyes-01"><g fill="currentColor"><path d="M144.5 141.5s5 9 9 7 13-9 13-9v-9s-2-1-7 0-14 5-14 5-3 2-1 6zM118 141l-5 10s-7.5-2.5-10.5-4.5-4-3-4-6l1-3a13.6 13.6 0 017 0c4 1 11 2 11 2s1 0 .5 1.5z"/></g><path d="M144.5 141.5s5 9 9 7 13-9 13-9v-9s-2-1-7 0-14 5-14 5-3 2-1 6z" stroke="#000" stroke-linecap="round" stroke-linejoin="round" fill-opacity=".4"/><path d="M144.5 139.5s2 2 6 1 10-6 12-7a18.66 18.66 0 004-3s-3.22-1-9.11.52a67.92 67.92 0 00-11.89 4.48s-3 2-1 4z" fill="#461917" stroke-width=".5" stroke="#000" stroke-linecap="round" stroke-linejoin="round"/><path d="M118 141l-5 10s-7.5-2.5-10.5-4.5-4-3-4-6l1-3a13.6 13.6 0 017 0 37.46 37.46 0 008 1s4 1 3.5 2.5z" stroke="#000" stroke-linecap="round" stroke-linejoin="round" fill-opacity=".4"/><path d="M100.5 139.5l6 3c2 1 9.7 2.6 11.35-1.2s-11.6-4.69-16-4.24c0 0-3-.17-2.67.94a2.3 2.3 0 001.32 1.5z" fill="#461917" stroke-width=".5" stroke="#000" stroke-linecap="round" stroke-linejoin="round"/></symbol>
<symbol id="eyes-08"><path d="M110 135s-1.5 6.5.5 6.5h45v-6s0-2-3-2h-38c-3 0-4 0-4.5 1.5z" fill="currentColor"/><path d="M110 135s-1.5 6.5.5 6.5h45v-6s0-2-3-2h-38c-3 0-4 0-4.5 1.5z" stroke="#000" fill-opacity=".4" stroke-miterlimit="10"/><path d="M110.83 133.88a25.17 25.17 0 002.67 4.62c1 1 5 0 9 0h31s2-.12 2 .94v-3.94s0-2-3-2h-39.19z" stroke-width=".5" fill="#461917" stroke-linecap="round" stroke-linejoin="round" stroke="#000"/><path stroke-width=".75" fill="#461917" stroke-linecap="round" stroke-linejoin="round" stroke="#000" d="M113.5 138.5l-3.6 2.71"/></symbol>
<symbol id="eyes-09"><path d="M127.5 124.5s-43-1-45 16c-1.5 15.5 25 13 25 13h35s27 0 27-13-11-17-42-16z" fill="currentColor"/><path d="M127.5 124.5s-43-1-45 16c-1 15 21 13 25 13h35s27 0 27-13-11-17-42-16z" stroke-width=".75" stroke="#000" stroke-linecap="round" stroke-linejoin="round" fill="none"/><path d="M126 132c-15.5.5-28.5-1.5-30.5 6.5-2 9 16 7 22 7s27-1 30-1 10-1 10-3c0-8-15-10-31.5-9.5z" fill="#461917" stroke-width=".5" stroke="#000" stroke-linecap="round" stroke-linejoin="round"/><path d="M90.5 140.5c0 1-5 9 32 8s35-4.33 35-7.67-8.64-9.23-21.32-8.78-40.68-3.55-45.68 8.45z" fill-opacity=".4" stroke-width=".75" stroke="#000" stroke-linecap="round" stroke-linejoin="round"/><ellipse cx="112" cy="139" rx="2.5" ry="3.5" fill="#fff100"/><ellipse cx="138" cy="139" rx="2.5" ry="3.5" fill="#fff100"/><path d="M93.5 129.5s27-3 41-2c11 0 24 3 29 10s1.39 10.59-.3 11.8 6.3-2.8 6.3-8.8-1.61-11.29-14.3-14.65-30.2-1.18-33.95-1.26-22.75 1.91-27.75 4.91z" fill="#fff" fill-opacity=".2" stroke-width=".75" stroke="#000" stroke-linecap="round" stroke-linejoin="round"/></symbol>
</svg>
