<?xml version="1.0" encoding="utf-8"?>
<!-- Generator: Adobe Illustrator 23.0.4, SVG Export Plug-In . SVG Version: 6.00 Build 0)  -->
<svg version="1.1" id="Layer_1" xmlns="http://www.w3.org/2000/svg" xmlns:xlink="http://www.w3.org/1999/xlink" x="0px" y="0px"
	 viewBox="0 0 300 300" style="enable-background:new 0 0 300 300;" xml:space="preserve">
<style type="text/css">
	.st0{fill:#26A9E0;}
	.st1{fill:#FFFFFF;fill-opacity:0.4;}
	.st2{fill-opacity:0.2;}
	.st3{fill:#6D6E70;}
</style>
<title>body</title>
<g id="body-03">
	<g id="fill_color">
		<path class="st0" d="M180.4,252.2c0,0-17.9-2.7-29.9,2.3s-15,8-16,24c0,0,1,27,1,28s49,1,49,1v-9c-2.1-4-3.1-8.5-3-13
			c0-8,7-6.2,7-6.2s-11.5-0.3-11.3-16.1C176.9,259.3,178.1,255.4,180.4,252.2z"/>
		<path class="st0" d="M133.5,277.5c0,0-6.9-1.5-8-5.2l-0.7-1.6c-0.4-6.7,1.1-12,5.7-15c0,0,5.2-4.4,11.6-4.2c0,0,5.4,0.1,7.4,3.1
			c0,0-9,3.6-12,9.3s-3.1,13.3-3,14L133.5,277.5z"/>
		<path class="st0" d="M188.5,247.5c0,0-8,2-10,8s-3,19,8,23s19-7,19-17S201.5,245.5,188.5,247.5z"/>
	</g>
	<path class="st1" d="M134.5,254.5c0,0,3-1,3,0s-6,5-7,10s0,8-2,8s-4.7,0.1-2.8-10.5C127.3,258.3,130.5,255.5,134.5,254.5z"/>
	<path d="M135.1,278.5l-1.7-0.6c-0.6-0.1-7.2-1.7-8.3-5.6l-0.7-1.7c-0.4-7.5,1.5-12.6,5.9-15.4c0.2-0.1,5.4-4.4,11.8-4.3
		c0.2,0,5.7,0.2,7.8,3.4l0.3,0.5l-0.6,0.2c-0.1,0-8.9,3.6-11.7,9.1c-2.9,5.6-3,13.1-2.9,13.7L135.1,278.5z M125.3,270.5l0.6,1.5
		c1,3.5,7.6,4.9,7.6,5l0.3,0.1c0-2.2,0.5-8.5,3.1-13.5c2.6-5,9.5-8.3,11.6-9.3c-2.1-2.3-6.5-2.4-6.6-2.4c-6.1-0.1-11.2,4.1-11.2,4.1
		C126.7,258.7,124.9,263.4,125.3,270.5z"/>
	<path class="st2" d="M189.5,248.5c0,0,9,0,9,10s-4,16-9,17s-7,0.8-7,0.8c2.2,1.9,5.1,3,8,3.1c5,0.2,15-4.8,15-17.8
		s-7.3-14.6-14.1-14.3S188.5,248.5,189.5,248.5z"/>
	<path d="M191.1,279.8c-1.5,0-3.1-0.3-4.7-0.9c-10.6-3.8-10.8-16.2-8.3-23.6c2.1-6.2,10-8.2,10.4-8.3l0,0c6.1-0.9,10.5-0.2,13.4,2.3
		c2.8,2.4,4.1,6.4,4.1,12.2c0,6.3-3.1,12.8-7.8,16C196,279.1,193.6,279.8,191.1,279.8z M188.6,248c-0.4,0.1-7.8,2.1-9.6,7.7
		c-1.6,4.9-3.4,18.3,7.7,22.4c3.9,1.4,7.7,1,11-1.3c4.4-3.1,7.3-9.2,7.3-15.2c0-5.5-1.2-9.2-3.8-11.4
		C198.5,247.8,194.4,247.1,188.6,248z"/>
	<g>
		<path class="st3" d="M201.9,273.2c0,0,9.6,10.3,9.6,28.3h-13c0,0,2.7-14.3-7.1-22.1C195.8,279.4,199.8,277,201.9,273.2z"/>
		<path d="M212,302h-14.1l0.1-0.6c0-0.1,2.6-14.1-6.9-21.7l-1.2-0.9l1.5,0c4.2,0.1,8.1-2.2,10-5.9l0.3-0.6l0.5,0.5
			c0.1,0.1,9.8,10.7,9.8,28.7V302z M199.1,301H211c-0.2-15.1-7.2-24.7-9.1-27c-2,3.3-5.4,5.4-9.3,5.8
			C200.4,286.9,199.4,298.3,199.1,301z"/>
	</g>
	<path class="st2" d="M197.5,279.5c0,0,5,8,6,15s0,9,0,9h8c0,0,1.5-10.5-4.7-22.8c0,0-3.3-6.2-5.3-7.2c-1.3,1.8-2.9,3.3-4.7,4.6
		L197.5,279.5z"/>
	<path d="M185,308h-0.5c-0.1,0-12.4,0-24.5-0.1c-25-0.3-25-0.7-25-1.4c0-1-1-27.7-1-28c1-16.4,4.2-19.4,16.3-24.5
		c12-5,30-2.4,30.2-2.3l0.8,0.1l-0.5,0.7c-2.3,3.1-3.4,6.9-3.1,10.7c-0.1,6.3,1.8,11,5.3,13.6c1.6,1.1,3.2,1.7,4.2,1.9
		c0.7,0,1.3,0.2,1.3,0.2l4.2,1.1l-4.4-0.1c0,0-0.5,0-1.2-0.2c-1-0.1-2.4,0-3.5,0.9c-1.2,0.9-1.8,2.6-1.8,4.9
		c-0.1,4.4,0.9,8.8,2.9,12.8l0.1,0.1V308z M136,306.2c3.1,0.6,29.9,0.8,48,0.8v-8.4c-2.1-4-3.1-8.6-3-13.1c0-2.7,0.7-4.6,2.2-5.7
		c0.5-0.4,1.1-0.7,1.7-0.8c-3.5-1.5-8.3-5.4-8.2-15.7c-0.3-3.7,0.7-7.5,2.8-10.6c-3.6-0.4-18.6-1.9-28.9,2.4
		c-11.8,4.9-14.7,7.7-15.7,23.6C135,279.5,135.9,303,136,306.2z"/>
	<g>
		<path class="st2" d="M169.5,304.5c0,0-7-21,0-42c0,0,3.4-7.8,10.2-10.4l0.8,0.4c0,0-3.6,3.1-3.3,10.1c0.3,7,2.2,14.4,9.7,16.2
			c-2.3,0-4.4,1.5-5,3.8c-1.4,4,0.4,11.3,1.5,13.6c0.7,1.5,1.1,3.2,1.1,4.9L169.5,304.5z"/>
		<path d="M169.2,305.1l-0.1-0.4c-0.1-0.2-7-21.4,0-42.3c0.2-0.4,3.6-8.1,10.5-10.7l0.2,0l1.4,0.6l-0.5,0.5c0,0-3.3,3.2-3,9.8
			c0.4,9.2,3.5,14.3,9.4,15.7l4.3,1l-4.4,0c0,0,0,0,0,0c-2.1,0-3.9,1.4-4.5,3.4c-1.4,4,0.5,11.2,1.4,13.3c0.7,1.6,1.1,3.3,1.2,5.1
			l0,0.4L169.2,305.1z M179.6,252.7c-6.4,2.6-9.6,10-9.7,10c-6.3,18.9-1.1,38.1-0.1,41.2l14.1-3.3c-0.1-1.5-0.4-2.9-1-4.3
			c-1-2.3-3-9.7-1.5-14c0.5-1.7,1.8-3.1,3.4-3.7c-5.1-2.1-7.8-7.4-8.2-16C176.4,257,178.6,253.9,179.6,252.7z"/>
	</g>
	<path class="st1" d="M142.5,259.5c1.1-0.6,2.4-0.2,3,0.9c0,0,0,0.1,0,0.1c1,2,0,5-3,9s-3,14-2,19s2,10,2,13h-7.2
		c0,0-1.3-17.5-0.6-26.2s2.5-12.4,6.1-15.6L142.5,259.5z"/>
	<path d="M135.1,279h-0.6c-0.7,0-5-1.2-7.9-4.4c-2-2.3-2.9-5-2.6-8.1c1.1-9.6,9.8-14.5,15.4-15.4c6.2-1,10.7,3.2,10.9,3.3l0.6,0.6
		l-0.8,0.2c-16.9,5-15.2,23.1-15.1,23.3L135.1,279z M141.3,251.8c-0.6,0-1.2,0-1.8,0.1c-5.3,0.9-13.6,5.5-14.6,14.6
		c-0.3,2.8,0.5,5.3,2.3,7.3c2.2,2.5,5.4,3.7,6.7,4c-0.1-3.3,0.1-18.4,15-23.4C147.7,253.6,144.9,251.8,141.3,251.8z"/>
	<g>
		<path class="st3" d="M130.2,276.8c-0.2,3.7-0.7,7.3-1.5,10.9c-1.2,5.2-3.3,11-7.2,13.8l13.8-0.6c0,0-0.8-21.4-0.8-22.4
			L130.2,276.8z"/>
		<path d="M119.9,302.1l1.3-1c3-2.3,5.5-6.9,7-13.5c0.8-3.5,1.3-7.2,1.5-10.8l0-0.7l5.3,2.1v0.3c0,1,0.8,22.2,0.8,22.4l0,0.5
			L119.9,302.1z M130.6,277.5c-0.2,3.5-0.7,6.9-1.5,10.3c-1.4,6.1-3.5,10.5-6.2,13.1l11.8-0.5c-0.1-3.1-0.7-18.9-0.8-21.6
			L130.6,277.5z"/>
	</g>
	<path d="M134.1,290.9c0,0-2.7-2.7-5.5-2.3l-0.1-1c3.3-0.5,6.2,2.5,6.4,2.6L134.1,290.9z"/>
	<path d="M132.6,301.4c-3.2-3.2-8.5-1.9-8.5-1.9l-0.3-1c0.2-0.1,5.9-1.5,9.5,2.1L132.6,301.4z"/>
	<g>
		<path class="st3" d="M150,192c0,0,1,61,2,64c0,0,2,5,10,3c0,0,6-1,6-7c0,0-3.5-40.5-2.5-60.5C165.5,191.5,152.5,191.5,150,192z"/>
		<path d="M158.5,260c-5.4,0-6.9-3.7-7-3.8c-1-3.1-2-61.7-2-64.2l0-0.4l0.4-0.1c2.5-0.5,15.1-0.5,15.6-0.5h0.5l0,0.5
			c-1,19.7,2.5,60,2.5,60.4c0,6.4-6.4,7.5-6.4,7.5C160.7,259.8,159.5,260,158.5,260z M150.5,192.4c0.3,17.3,1.2,61,2,63.4
			c0.1,0.2,2,4.5,9.4,2.7c0.3,0,5.6-1,5.6-6.5c0-0.4-3.4-40-2.5-60C162.7,192,153.3,192.1,150.5,192.4z"/>
	</g>
	<path d="M165.1,202.5c0,0-0.2,3.5-5.6,3.5c-5.1,0-8.8-1-9.6-1.6c-0.2-0.2-0.3-0.5-0.1-0.7s0.5-0.3,0.7-0.1c0.6,0.4,4,1.4,9,1.4
		c4.4,0,5.3-4.6,5.3-4.7"/>
	<path d="M165.4,214.7c0,0.1-1.2,2.3-5.6,2.3c-3.2-0.1-6.4-0.7-9.5-1.6c-0.3-0.1-0.4-0.4-0.3-0.6c0.1-0.3,0.4-0.4,0.6-0.3
		c3,0.9,6.1,1.4,9.3,1.6c3.7,0,4.9-2,5.3-2.6"/>
	<path d="M158.5,228.3c-3.8,0-7.5-1.2-7.7-1.3l0.3-0.9c0.1,0,5.7,1.9,10.1,1c4.1-0.9,4.2-2.4,4.3-3.9l1,1.4c0,0.2-0.1,2.4-5,3.5
		C160.5,228.2,159.5,228.3,158.5,228.3z"/>
	<path d="M158.2,237.7c-2.5,0-5.1-0.6-7.4-1.7l0.4-0.9c3.6,1.7,7.6,2.1,11.4,1c2.8-0.9,3.2-2.9,3.3-6.3l0.6,3.8c0,0.1,0,2.4-3.6,3.5
		C161.4,237.4,159.8,237.7,158.2,237.7z"/>
	<path d="M159.6,249.2c-3.9,0-8.2-1.7-8.4-1.8l0.4-0.9c0.1,0,6.3,2.4,10.2,1.5c2.1-0.4,4.7-2.6,5.1-4.8l0.6,1.5
		c-1,2.3-3.1,3.9-5.5,4.3C161.2,249.2,160.4,249.2,159.6,249.2z"/>
	<path d="M195.3,284.4l-0.5-0.9c8.2-4.9,12.3-2.5,12.5-2.4l-0.5,0.9C206.7,282,202.9,279.9,195.3,284.4z"/>
	<path d="M199.1,298.1l-0.5-0.9c5.9-3.3,9.3-3.4,11.1-2.9c1.6,0.5,2.2,1.5,2.2,1.6l-0.9,0.5l0.4-0.2l-0.4,0.2c0,0-0.4-0.7-1.7-1.1
		C207.7,294.9,204.6,295,199.1,298.1z"/>
	<path class="st2" d="M159,191.5h6.5v10c0,0,1,20,0.9,29.3c0.1,7.3,0.6,14.7,1.6,21.9l0,0c-0.5,4.2-5.5,5.8-5.5,5.8v-2
		c0-2,1-15,1-23s-4-40-4-40L159,191.5z"/>
</g>
</svg>
