<?xml version="1.0" encoding="utf-8"?>
<!-- Generator: Adobe Illustrator 23.0.4, SVG Export Plug-In . SVG Version: 6.00 Build 0)  -->
<svg version="1.1" id="Layer_1" xmlns="http://www.w3.org/2000/svg" xmlns:xlink="http://www.w3.org/1999/xlink" x="0px" y="0px"
	 viewBox="0 0 300 300" style="enable-background:new 0 0 300 300;" xml:space="preserve">
<style type="text/css">
	.st0{fill:#26A9E0;}
	.st1{fill-opacity:0.2;}
	.st2{fill:#6D6E70;}
	.st3{fill:#FFFFFF;fill-opacity:0.4;}
	.st4{fill:#FFFFFF;fill-opacity:0.2;}
</style>
<title>body</title>
<g id="body-05">
	<g id="fill_color">
		<path class="st0" d="M194.5,244.5c0,0-19,1-19,17s11,21,17,21s20-2,19-20S194.5,244.5,194.5,244.5z"/>
		<path class="st0" d="M181.5,247.5c-7.4-3.8-15.8-5.2-24-4c-14,2-28,14-30,19s-3,9,0,17s3,20,1,22h68c0,0,0.7-18.4-0.7-19.2
			c0,0-21.3,1.2-20.3-19.8c-0.8-5.5,1.8-11,6.7-13.9L181.5,247.5z"/>
		<path class="st0" d="M137.4,252.1c0,0-0.9-4.6-11.9-3.6s-13,12-13,18s4,13,12,14c0,0,3,0,3-1c0,0-3.2-6.4,0.4-16.7
			C127.9,262.8,133.3,254.8,137.4,252.1z"/>
	</g>
	<path d="M192.5,283c-2.9,0-7.4-1.2-11.1-4.6c-2.9-2.7-6.4-7.8-6.4-16.9c0-16.3,19.3-17.5,19.5-17.5l0,0c0.2,0,16.5,0.2,17.5,18.5
		c0.4,6.4-1.1,11.5-4.5,15C203,282.3,196.2,283,192.5,283z M194.5,245c-0.3,0-4.8,0.3-9.3,2.5c-6.1,2.9-9.2,7.6-9.2,14
		c0,16.8,11.9,20.5,16.5,20.5c3.5,0,10-0.7,14.3-5.2c3.1-3.3,4.5-8.1,4.2-14.2C210,245.3,195.3,245,194.5,245z"/>
	<path class="st1" d="M194.9,244.9c0,0,8.6,5.6,6.6,18.6s-9.8,17.8-14.4,17.9c0,0,21.4,6.8,24.4-15.5
		C211.5,265.8,211.9,244.9,194.9,244.9z"/>
	<path d="M197,302h-69.7l0.9-0.9c1.8-1.8,1.9-13.5-1.1-21.5c-3.1-8.3-2-12.4,0-17.4c2.2-5.4,16.5-17.3,30.4-19.3
		c8.4-1.3,16.8,0.1,24.3,4.1l0.1,0.1l1,1.7l-0.4,0.3c-4.7,2.8-7.2,8-6.4,13.4c-0.3,6.1,1.3,10.8,4.6,14.1c5.8,5.7,15.1,5.3,15.2,5.3
		l0.2,0l0.1,0.1c1.4,0.8,1.2,12.7,0.9,19.6L197,302z M129.4,301H196c0.3-8.1,0.2-16.8-0.4-18.2c-1.6,0-10.1,0-15.7-5.6
		c-3.5-3.5-5.2-8.5-4.9-14.7c-0.8-5.5,1.8-11,6.5-14l-0.3-0.6c-7.3-3.8-15.4-5.1-23.6-3.9c-13.3,1.9-27.6,13.6-29.6,18.7
		c-1.9,4.7-3,8.7,0,16.6C130.7,286.6,131,297.4,129.4,301z"/>
	<g>
		<path class="st2" d="M195.5,282.5c0,0,7,11,6,19h12c0,0,2.6-14.7-7.1-23.2C206.4,278.3,203.5,282.5,195.5,282.5z"/>
		<path d="M213.9,302h-13l0.1-0.6c1-7.7-5.9-18.6-5.9-18.7l-0.5-0.8h0.9c7.6,0,10.5-4,10.5-4l0.3-0.5l0.4,0.4
			c9.9,8.6,7.3,23.5,7.3,23.7L213.9,302z M202.1,301h11c0.3-2.4,1.5-14.5-6.6-22c-1,1.1-4,3.7-10.1,4
			C197.9,285.6,202.6,294.1,202.1,301z"/>
	</g>
	<path d="M202.2,292.2c-0.8,0-1.6,0-2.4-0.1l0.1-1c4.6,0.4,7.9-0.4,9.7-2.1c1.6-1.6,1.4-3.4,1.4-3.5l1-0.1c0,0.1,0.2,2.3-1.7,4.3
		C208.7,291.3,206,292.2,202.2,292.2z"/>
	<path class="st3" d="M136.5,260.5c-0.8,0.1-1.5,0.4-2,1c-1,1-3,5,0,5s4-1,4-3S137.5,260.5,136.5,260.5z"/>
	<path class="st3" d="M133.5,270.5c-1.4,0.9-2.1,2.4-2,4c0,3,1,6,2,12s0.7,14-1.7,15s6.7,0,6.7,0s4-16,0-25
		C138.5,276.5,136.5,269.5,133.5,270.5z"/>
	<path class="st1" d="M161.5,253.5c0,0,9,2,11,10s2,28,2,28v12l22,1v-19c0.1-1.1-0.3-2.2-1-3c0,0-22-1-20-21c0,0,0-9,7-13
		c-4.3-2.7-9.1-4.4-14.1-5.1l0.1,5.1C167,251.1,164.4,252.9,161.5,253.5z"/>
	<path d="M157.5,261c-6.9,0-11.1-3.1-13.3-5.7c-2.5-2.8-3.3-5.6-3.3-5.7l1-0.3c0.1,0.4,3.2,10.7,15.7,10.7c7.1,0,11.6-3,14.2-5.6
		c3-3.1,4.4-6.7,4.3-8.9l1,0c0,2.9-1.8,6.7-4.6,9.6C169.7,257.8,165,261,157.5,261z"/>
	<path d="M168.9,301.7l-0.9-0.4c0.7-1.3,0.4-11.5,0-18.3l-22,1c0.8,6.1-1,17.1-1.1,17.6l-1-0.2c0-0.1,2-12,1-17.8l-0.1-0.6l24.1-1
		l0,0.5C169.1,284.2,170,299.7,168.9,301.7z"/>
	<path class="st4" d="M118.5,252.5c0,0,5-3,3,1s-5,5-6,11s4,11,4,11s2,2-1,2s-7.7-8-5.3-17C114.1,257.4,116,254.6,118.5,252.5z"/>
	<path d="M124.5,281c-8.2-1-12.5-8.1-12.5-14.5c0-4.1,1-17.4,13.5-18.5c11.3-1,12.4,3.8,12.4,4.1l0.1,0.3l-0.3,0.2
		c-6.2,4-10.3,9.5-11.5,15.6c-0.8,4.1-0.2,8.3,1.7,11.1l0.1,0.1v0.2C128,280.9,125.6,281,124.5,281z M128.4,248.9
		c-0.9,0-1.8,0-2.9,0.1c-11.6,1.1-12.5,13.7-12.5,17.5c0,6,4,12.6,11.6,13.5c1.1,0,2.1-0.2,2.4-0.4c-2-3-2.6-7.3-1.7-11.6
		c1.2-6.2,5.4-11.8,11.6-16C136.4,251.1,134.7,248.9,128.4,248.9z"/>
	<g>
		<path class="st2" d="M119.4,278.8c0,0-3.9,5.7-4.9,10.7s1,12,1,12h10c0,0-1-7,1-12s2.5-4.7,2.5-4.7l-1.5-5.3c0,0-1.3,1.4-4.6,0.7
			s-3.9-1.4-3.9-1.4"/>
		<path d="M126.1,302h-11l-0.1-0.4c-0.1-0.3-2-7.2-1-12.2c1-5,4.8-10.7,4.9-10.9l0.2,0.2l0.2-0.2c0,0,0,0,0,0c0,0,0.6,0.6,3.6,1.2
			c3,0.6,4.1-0.5,4.2-0.6l0.6-0.6l2.1,7.5l-0.8-0.6c-0.3,0.3-0.9,1.3-2,4.3c-1.9,4.8-1,11.7-1,11.7L126.1,302z M115.9,301h9.1
			c-0.2-1.8-0.6-7.4,1.1-11.7c1.3-3.2,2-4.3,2.4-4.7l-1.2-4.3c-0.7,0.4-2.2,0.8-4.4,0.4c-1.7-0.4-2.8-0.7-3.4-1
			c-1,1.6-3.6,6-4.4,9.9C114.2,293.8,115.5,299.5,115.9,301z"/>
	</g>
	<path d="M122.6,290.5c-5.4,0-7.7-3.1-7.8-3.3l0.8-0.6c0.1,0.2,3.2,4.3,10.8,2.4l0.2,1C125.1,290.4,123.8,290.5,122.6,290.5z"/>
	<circle cx="158.5" cy="257.5" r="1"/>
	<circle cx="150" cy="255" r="1"/>
	<circle cx="146" cy="251" r="1"/>
	<circle cx="168" cy="254" r="1"/>
	<circle cx="172" cy="247" r="1"/>
	<path class="st1" d="M125,280.4c0,0-4.5,3.6-3.2,21.1h3.2c0,0-1-11.5,4-16.5l-1.6-5.1L125,280.4z"/>
	<path class="st1" d="M202,281.3c0,0,7,11.7,7,20.7s4.8-1.4,4.8-1.4S215,286,206,278C205.2,279.6,203.7,280.8,202,281.3z"/>
	<g>
		<path class="st2" d="M147,200c0,0-1,42,2,50c0,0,12,9,20-2c0,0-3.5-26.5-3.5-48.5C159.3,198.9,153.1,199.1,147,200z"/>
		<path d="M159,254c-5.5,0-10.1-3.4-10.3-3.6l-0.1-0.1l-0.1-0.1c-3-8-2.1-48.5-2-50.2l0-0.4l0.4-0.1c6.2-0.9,12.4-1.1,18.6-0.5
			l0.5,0v0.5c0,21.7,3.5,48.2,3.5,48.4l0,0.2l-0.1,0.2c-2.3,3.2-5.2,5-8.5,5.5C160.3,253.9,159.6,254,159,254z M149.4,249.7
			c0.8,0.6,6,4,11.3,3.2c3-0.5,5.6-2.1,7.7-5c-0.3-2.5-3.4-27.2-3.5-47.9c-5.8-0.5-11.7-0.3-17.5,0.5
			C147.4,204.8,146.7,242,149.4,249.7z"/>
	</g>
	<path d="M157.3,215c-7.6,0-10.6-1.4-10.7-1.4l0.4-0.9c0,0,2.9,1.3,10.3,1.3c7.1,0,8.2-2.7,8.2-2.7l0.8,0.5
		C166.2,211.9,165.2,215,157.3,215z"/>
	<path d="M157.3,227c-7.6,0-10.6-1.4-10.7-1.4l0.4-0.9c0,0,2.9,1.5,10.3,1.3c8.1-0.1,8.6-3.9,8.6-4l0.5,1.6
		C166.4,223.8,165.2,227,157.3,227z"/>
	<path d="M155.1,241c-2.7,0-5.4-0.7-7.8-2.1l0.5-0.9c2.4,1.3,5,2,7.7,1.9c5.1,0,11-1.6,11.7-3.9l1,0.3c-1,3.2-8,4.6-12.6,4.6
		C155.4,241,155.2,241,155.1,241z"/>
	<path class="st1" d="M158.7,199.2c0,0,0.8,11.3,1.8,18.3s2,15,2,20s0.3,13.9-1.3,16c0,0,4.5,0.3,7.5-5.7c0,0-3.1-26.3-3.1-33.3v-15
		L158.7,199.2z"/>
	<circle cx="148" cy="286" r="0.5"/>
	<circle cx="165.5" cy="285.5" r="0.5"/>
</g>
</svg>
