<?xml version="1.0" encoding="utf-8"?>
<!-- Generator: Adobe Illustrator 23.0.4, SVG Export Plug-In . SVG Version: 6.00 Build 0)  -->
<svg version="1.1" id="Layer_1" xmlns="http://www.w3.org/2000/svg" xmlns:xlink="http://www.w3.org/1999/xlink" x="0px" y="0px"
	 viewBox="0 0 300 300" style="enable-background:new 0 0 300 300;" xml:space="preserve">
<style type="text/css">
	.st0{fill:#26A9E0;}
	.st1{fill:#FFFFFF;fill-opacity:0.2;}
	.st2{fill-opacity:0.2;}
	.st3{fill:#6D6E70;}
</style>
<title>body</title>
<g id="body-06">
	<path id="fill_color" class="st0" d="M145.5,301.5c0,0-1-18-1-23c0,0,0.4-3.4,15.7-2.2s10.1-0.3,10.1-0.3s5.2-0.5,5.2,2.5
		s0,19,3,23L145.5,301.5z"/>
	<g>
		<path class="st1" d="M159.5,286.5c0,0,16-1,16-8c0,0,4-3-14-2h-12c0,0-5,0-5,2S143.5,285.5,159.5,286.5z"/>
		<path d="M159.5,287L159.5,287c-15.7-1-15.6-5.8-15.5-8.2l0-0.3c0-2.4,4.9-2.5,5.5-2.5h12c12.5-0.7,14.5,0.5,14.8,1.5
			c0.2,0.5-0.1,0.9-0.3,1.2C175.7,285.9,160.2,287,159.5,287L159.5,287z M167.9,276.8c-1.7,0-3.8,0.1-6.4,0.2l-12,0
			c-1.8,0-4.5,0.5-4.5,1.5l0,0.3c0,2-0.2,6.2,14.5,7.2c0.8-0.1,15.5-1.2,15.5-7.5v-0.2l0.2-0.2c0.1-0.1,0.2-0.2,0.2-0.3
			C175.3,277.7,174.7,276.8,167.9,276.8z"/>
	</g>
	<path d="M179.5,302H145l0-0.5c0-0.2-1-18.1-1-23c0.1-0.7,1.2-3.9,16.2-2.7c5.1,0.4,7.7,0.5,9.1,0.5l-1.6-0.5l2.6-0.3
		c0.1,0,3.4-0.3,4.9,1.1c0.5,0.5,0.8,1.1,0.8,1.9c0,12,1.1,20.2,2.9,22.7L179.5,302z M146,301h31.6c-2.3-4.4-2.6-15.8-2.6-22.5
		c0-0.5-0.2-0.9-0.5-1.2c-0.7-0.6-1.9-0.8-2.8-0.8c0,0,0,0,0,0.1c-0.1,0.6-0.2,1.1-11.5,0.2c-14.2-1.1-15.1,1.8-15.1,1.8
		C145,283,145.8,298.1,146,301z"/>
	<path class="st2" d="M167.5,282.5l4.8,0.7l0.6,18.3h5.7c0,0-2.6-3-2.8-15l-0.2-8c0,0-1-3-4-2.5v3.5
		C170.6,281,169.2,282,167.5,282.5z"/>
	<circle cx="164" cy="291" r="1.5"/>
	<circle cx="155.5" cy="291.5" r="1.5"/>
	<circle cx="148.5" cy="288.5" r="1.5"/>
	<circle cx="171.5" cy="288.5" r="1.5"/>
	<g>
		<path class="st3" d="M146,200c0,0,3,68,2,79c0,0,2,6,12,5s11.5-4.5,11.5-4.5s-3-75-2-80C169.5,199.5,151.5,199.5,146,200z"/>
		<path d="M157.8,284.6c-8.4,0-10.2-5.2-10.3-5.5l0-0.1l0-0.1c1-10.8-2-78.3-2-78.9l0-0.5l0.5,0c5.5-0.5,23.4-0.5,23.5-0.5h0.6
			l-0.1,0.6c-1,4.9,2,79.1,2,79.9l0,0.1l0,0.1c-0.1,0.2-1.7,3.8-11.9,4.8C159.3,284.6,158.5,284.6,157.8,284.6z M148.5,278.9
			c0.3,0.7,2.5,5.5,11.4,4.6c8.6-0.9,10.7-3.6,11-4.1c-0.2-4.5-2.8-71-2.1-79.4c-3,0-17.1,0.1-22.4,0.5
			C146.8,206.6,149.4,268.2,148.5,278.9z"/>
	</g>
	<path class="st2" d="M161.5,200.5c0,0,0,20,1,27s3,24,4,35c0.6,6.6,0.8,13.3,0.6,20c0,0,4.4-2,4.4-3s-1.4-41.7-1.7-48.3
		s-0.3-31.7-0.3-31.7h-8V200.5z"/>
	<path d="M159.5,214c-4.6-0.1-9.2-1.2-13.3-3.3l0.4-0.9c4,2,8.4,3.1,12.9,3.2c6.6,0,9.4-3,9.4-3.1l0.8,0.7
		C169.6,210.7,166.6,214,159.5,214z"/>
	<path d="M160.5,226c-4.6-0.1-9.2-1.2-13.3-3.3l-0.2-1.2c4,2,9,3.4,13.5,3.5c6.6,0,9.4-3,9.4-3.1l-0.1,1
		C170,223.2,167.6,226,160.5,226z"/>
	<path d="M160.5,238c-4.6-0.1-9.2-1.2-13.3-3.3l0.4-0.9c4,2,8.4,3.1,12.9,3.2c6.6,0,9.4-3,9.4-3.1l0.1,1
		C169.7,235.1,167.6,238,160.5,238z"/>
	<path d="M160.5,250c-4.6-0.1-9.2-1.2-13.3-3.3l0.4-0.9c4,2,8.4,3.1,12.9,3.2c6.6,0,9.4-3,9.4-3.1l0.8,0.7
		C170.6,246.7,167.6,250,160.5,250z"/>
	<path d="M161.5,263c-4.6-0.1-9.2-1.2-13.3-3.3l0.2-1c4,2,8.7,3.2,13.1,3.3c6.6,0,9.4-3,9.4-3.1l0.2,1.2
		C170.4,260.6,168.6,263,161.5,263z"/>
	<path d="M161.5,275c-4.6-0.1-9.2-1.2-13.3-3.3l0.4-0.9c4,2,8.4,3.1,12.9,3.2c6.6,0,9.4-3,9.4-3.1l0.8,0.7
		C171.6,271.7,168.6,275,161.5,275z"/>
	<path class="st2" d="M144.5,281.5l1,20h34c-1.8,0.5-4.1-6-4-23c0,0-1,8-15,8S145.5,282.5,144.5,281.5z"/>
</g>
</svg>
