<?xml version="1.0" encoding="utf-8"?>
<!-- Generator: Adobe Illustrator 23.0.4, SVG Export Plug-In . SVG Version: 6.00 Build 0)  -->
<svg version="1.1" id="Layer_1" xmlns="http://www.w3.org/2000/svg" xmlns:xlink="http://www.w3.org/1999/xlink" x="0px" y="0px"
	 viewBox="0 0 300 300" style="enable-background:new 0 0 300 300;" xml:space="preserve">
<style type="text/css">
	.st0{fill:#26A9E0;}
	.st1{fill:#FFFFFF;fill-opacity:0.4;}
	.st2{fill-opacity:0.2;}
	.st3{fill:#6D6E70;}
</style>
<title>body</title>
<g id="body-04">
	<path id="fill_color" class="st0" d="M148.5,242.8c0,0-35,5.7-33,23.7c0,0-1,7,9,20s13,20,13,20l51-2c0,0,1-7,9-18s11-13,11-24
		S195.4,237.1,148.5,242.8"/>
	<path class="st1" d="M131.8,247.8c0,0-6.3,4.7-7.3,12.7c0,0-3,7,4,14s13,18,14,25s-7.6,2.2-7.6,2.2s-5.7-8.9-11.1-16
		s-10.8-14.2-7.6-25.2C116.3,260.5,118.2,254.2,131.8,247.8z"/>
	<path d="M137.1,307l-0.1-0.3c0-0.1-3.1-7.1-12.9-19.9c-9.6-12.5-9.2-19.5-9.1-20.3c-0.8-7.6,4.7-14.2,16.1-19
		c8.5-3.7,17.3-5.1,17.4-5.1l0,0c33.2-4,48,2.1,54.6,7.9c3.8,3.4,6,7.7,6,12.2c0,9.5-2.3,12.5-7.8,19.8c-1,1.3-2.1,2.8-3.3,4.5
		c-7.8,10.7-8.9,17.7-8.9,17.8l-0.1,0.4l-0.4,0L137.1,307z M148.5,243.3c-0.7,0.1-34.5,5.9-32.6,23.1l0,0.1l0,0.1
		c0,0.1-0.8,7,8.9,19.6c8.8,11.4,12.2,18.3,12.9,19.8l50.3-2c0.3-1.7,2-8.2,9-17.8c1.2-1.7,2.3-3.2,3.3-4.5
		c5.5-7.3,7.6-10.1,7.6-19.2c0-3-1-7.4-5.6-11.5C195.9,245.3,181.3,239.3,148.5,243.3z"/>
	<circle cx="155.5" cy="267.5" r="1"/>
	<circle cx="144" cy="268" r="1"/>
	<circle cx="132" cy="270" r="1"/>
	<circle cx="122" cy="274" r="1"/>
	<circle cx="170" cy="267" r="1"/>
	<circle cx="183" cy="270" r="1"/>
	<circle cx="194" cy="275" r="1"/>
	<path class="st2" d="M193.3,245.2c0,0-1.8,5.3,1.2,8.3s4,4,2,8c-1.4,1.2-2.7,2.5-3.7,4c-1.3,2,0.7,4-1.3,9s-15,28-15,28l12.7-0.8
		c0,0-0.7-2.2,8.3-15.2s13-17.3,10-29.2C207.5,257.3,204.2,249.8,193.3,245.2z"/>
	<path d="M200.7,282.8l-0.8-0.6c1.1-1.4,1.8-3,2.1-4.8c0.2-2.7-0.7-5.2-2.8-7.5c-5.6-6.1-19.7-9.9-36.7-9.9c-20,0-30.9,2.7-38.8,4.7
		l-1,0.3c-2.5,0.6-4.3,1.8-5.2,3.4c-1.2,2.1-0.5,4.3-0.5,4.3l-0.9,0.3c0-0.1-0.9-2.7,0.5-5.1c1-1.9,3-3.1,5.8-3.8l1-0.3
		c8-2,18.9-4.8,39.1-4.8c17.3,0,31.6,3.9,37.5,10.3c2.3,2.5,3.3,5.2,3,8.3C202.7,279.5,201.9,281.3,200.7,282.8z"/>
	<g>
		<path class="st3" d="M166.5,205.5h-14c-1.7,0-3.4,0.3-5,1l1,38c0,0,0,11,10,11s11-9,11-9s-3-17-3-27V205.5z"/>
		<path d="M158.5,256c-10.4,0-10.5-11.4-10.5-11.5l-1-38.3l0.3-0.1c1.7-0.7,3.4-1.1,5.2-1H167v14.5c0,9.8,3,26.7,3,26.9l0,0.1l0,0.1
			C170,246.6,168.8,256,158.5,256z M148,206.8l1,37.7c0,0.4,0.1,10.5,9.5,10.5c9.1,0,10.4-7.6,10.5-8.5c-0.2-1.2-3-17.4-3-27V206
			h-13.5C150.9,206,149.4,206.3,148,206.8z"/>
	</g>
	<path d="M156.8,216c-7.3,0-9.5-1.5-9.5-1.6l0.6-0.8c0,0,2.1,1.5,9,1.4c8-0.1,9-3.2,9.3-4l0.4,1.7C166.3,212.9,164.1,216,156.8,216z
		"/>
	<path d="M156.8,228c-7.3,0-9-1.6-9.1-1.6l0.2-0.8c0,0,2.1,1.2,9,1.4c7.3,0.2,9.7-3.7,9.7-3.7l-0.1,1.5
		C166.3,224.9,164.1,228,156.8,228z"/>
	<path d="M157.8,242c-7.3,0-9.5-1.5-9.5-1.6l0.6-0.8c0,0,2.1,1.4,9,1.4c6.8,0,9.3-3.4,9.8-3.9l0.8,0.6
		C168,238.2,165.1,242,157.8,242z"/>
	<path class="st2" d="M159.2,205.5c0,0-0.7,9,1.3,15s4,15,3,21s-1,12.7-3,13.9c-2,1.1,8-0.9,9-8.9c-1.8-9.5-2.8-19.2-3-28.9v-12.1
		H159.2z"/>
	<g>
		<path class="st3" d="M197.5,286.5c0,0,12,3,14,13s16,4,16,4s4-1-2-15c-3.4-8.2-10-14.5-18.3-17.5c-1.1,3.5-2.9,6.7-5.2,9.6
			C200.3,282.4,198.8,284.4,197.5,286.5z"/>
		<path d="M219.2,305.8c-1.6,0-3.2-0.3-4.6-1c-1.9-1-3.1-2.8-3.6-5.2c-1.9-9.6-13.5-12.6-13.6-12.6l-0.6-0.2l0.3-0.6
			c1.3-2.2,2.8-4.2,4.6-6c2.3-2.8,4.2-5.8,5.3-9.2l0.2-0.6l0.3,0.2c8.4,3,15.2,9.5,18.6,17.8c3.9,9,3.7,12.9,2.9,14.5
			c-0.5,0.9-1.1,1.1-1.2,1.2C227.4,304.1,223.4,305.8,219.2,305.8z M198.3,286.2c2.6,0.8,12,4.4,13.7,13.2c0.4,2.1,1.5,3.6,3.1,4.5
			c4.5,2.4,12.1-0.8,12.2-0.9c0.1,0,0.4-0.1,0.7-0.7c0.6-1.2,0.9-4.7-2.9-13.6c-3.2-7.9-9.6-14-17.5-17c-1.1,3.4-2.9,6.5-5.1,9.2
			C200.8,282.5,199.4,284.3,198.3,286.2z"/>
	</g>
	<path d="M208.1,292.3l-1,0c0.1-8.5,11.8-13,12.3-13.2l0.4,0.9C219.6,280,208.1,284.5,208.1,292.3z"/>
	<path d="M211.9,300.8l-0.7-0.7c4.5-4.8,11.4-6.4,17.5-4.1l-0.4,0.9C222.5,294.8,216.1,296.3,211.9,300.8z"/>
	<path class="st2" d="M224,304.6l4.8-4.1c0,0-2.1-16.5-11-23s-10.3-6-10.3-6l-3.3,6C204.2,277.5,222.5,286.8,224,304.6z"/>
	<g>
		<path class="st3" d="M117.3,275.6c0,0-13.8,6.9-16.8,25.9s17,0,17,0s1.8-8.7,8.9-12.3C126.4,289.2,118.1,278.6,117.3,275.6z"/>
		<path d="M103.5,310.4c-0.6,0-1.2-0.1-1.7-0.4c-2-1-2.6-3.9-1.8-8.6c1.6-9.9,6.1-16.6,9.7-20.4c3.8-4.1,7.3-5.9,7.4-5.9l0.5-0.3
			l0.2,0.6c0.8,2.9,8.9,13.3,9,13.4l0.4,0.5l-0.5,0.3c-6.8,3.5-8.6,11.9-8.7,12l0,0.2l-0.1,0.1C117.4,302.3,108.8,310.4,103.5,310.4
			z M117,276.3c-2.5,1.5-13.4,8.8-16,25.3c-0.7,4.2-0.2,6.8,1.3,7.6c3.4,1.8,11.7-5,14.8-7.9c0.3-1.2,2.3-8.6,8.6-12.2
			C124.1,287,118.4,279.5,117,276.3z"/>
	</g>
	<path d="M120.5,295c-4.3,0-11.2-10.6-12-11.8l0.8-0.5c2,3.2,8,11.3,11.1,11.3c0,0,0,0,0,0L120.5,295C120.6,295,120.6,295,120.5,295
		z"/>
	<path d="M112.4,303.1c-4.7,0-10.5-6.5-10.8-6.8l0.7-0.7c0.1,0.1,6.7,7.5,11,6.3l0.3,1C113.2,303.1,112.8,303.1,112.4,303.1z"/>
	<path class="st2" d="M119.5,283.5c0,0-13,7-12,21s10.6-5.1,10.6-5.1s1.9-6.7,8.4-9.9l-5.5-7L119.5,283.5z"/>
</g>
</svg>
