<?xml version="1.0" encoding="utf-8"?>
<!-- Generator: Adobe Illustrator 23.0.4, SVG Export Plug-In . SVG Version: 6.00 Build 0)  -->
<svg version="1.1" id="Layer_1" xmlns="http://www.w3.org/2000/svg" xmlns:xlink="http://www.w3.org/1999/xlink" x="0px" y="0px"
	 viewBox="0 0 300 300" style="enable-background:new 0 0 300 300;" xml:space="preserve">
<style type="text/css">
	.st0{fill:#26A9E0;}
	.st1{fill:#FFFFFF;fill-opacity:0.2;}
	.st2{fill:#6D6E70;}
	.st3{opacity:0.2;enable-background:new    ;}
	.st4{fill-opacity:0.2;}
	.st5{fill:none;stroke:#000000;stroke-miterlimit:10;}
</style>
<title>body</title>
<g id="body-02">
	<path id="fill_color" class="st0" d="M160.5,246.5c0,0-14-3-27,13s-22,45-22,45h108c0,0-20-35-25-40S176.5,247.5,160.5,246.5z"/>
	<path class="st1" d="M121.5,303.5c0,0,5-24,10-33s3.3-8.1,7.6-8.5s15.1-1.2,23.8,2.7s8.2,3.2,8.2,3.2l13.1-12.1
		c0,0-12.7-9.7-26.2-9.4s-23.5,12.2-26.5,15.2s-14.2,23.5-19.1,40.2L121.5,303.5z"/>
	<path d="M197.2,305h-87.4l0.3-0.7c0.6-1.4,13.9-34.3,18.5-38.7c4.5-4.3,14.9-4.6,17-4.6h0c0.3,0,28.4,1.2,38.4,17.2
		c9.9,15.9,13,26,13.1,26.1L197.2,305z M111.2,304h84.6c-0.8-2.5-4.3-11.7-12.7-25.2c-9.7-15.5-37-16.7-37.6-16.8
		c-2,0-12,0.2-16.3,4.3C125.1,270.2,113.2,299.2,111.2,304z"/>
	<path class="st1" d="M121.5,303.5c0,0,5-24,10-33s3.3-8.1,7.6-8.5c22.4-1.5,31.9,5.9,31.9,5.9l13.1-12.1c0,0-12.7-9.7-26.2-9.4
		s-23.5,12.2-26.5,15.2s-14.2,23.5-19.1,40.2L121.5,303.5z"/>
	<path d="M220.4,305H110.8l0.2-0.6c0.1-0.3,9.2-29.3,22.1-45.2c6.8-8.4,13.9-11.5,18.6-12.7c5-1.2,8.4-0.6,8.8-0.5
		c11.3,0.7,23.1,7,34.3,18.1c5,5,24.3,38.7,25.1,40.1L220.4,305z M112.2,304h106.5c-2.9-5.1-20-34.7-24.5-39.1
		c-11-11-22.6-17.2-33.7-17.9l-0.1,0c-0.1,0-13.9-2.7-26.5,12.8C122.2,274.2,113.6,299.6,112.2,304z"/>
	<g>
		<path class="st2" d="M149,192c0,0,1,62,2,64c2.4,2.4,5.7,3.6,9.1,3.2c5.4-0.7,6.4-2.7,6.9-5.2c0,0-2.5-48.5-2.5-62.5L149,192z"/>
		<path d="M158.9,259.8c-3.1,0-6-1.2-8.2-3.4l-0.1-0.1c-1-2-2-57.9-2.1-64.2l0-0.5L165,191v0.5c0,13.8,2.5,62,2.5,62.5l0,0.1l0,0.1
			c-0.6,2.9-2,4.9-7.4,5.6C159.7,259.7,159.3,259.8,158.9,259.8z M151.4,255.7c2.3,2.2,5.4,3.3,8.6,3c5.2-0.7,6-2.6,6.5-4.8
			c-0.1-2-2.4-47.7-2.5-61.9l-14.5,0.5C149.9,216.9,150.7,253.3,151.4,255.7z"/>
	</g>
	<path class="st3" d="M159.5,191.5c0,0,3,36,3,40s1,27,1,27l3-1l-2-66H159.5z"/>
	<path d="M158.9,206c-0.1,0-0.3,0-0.4,0c0,0,0,0-0.1,0c-5.1,0-8.2-0.1-9.3-1.1l0.4-1.1c0.6,1.2,5.4,1.2,8.9,1.2
		c2.1,0.1,4.2-0.6,5.8-2l0.5,0.9C163.2,205.3,161.1,206,158.9,206z"/>
	<path d="M157.2,217c-2.6,0-5.6-0.2-8-1.4l0.5-0.9c2.5,1.4,6,1.3,8.7,1.3l1.1,0c2-0.1,4-0.8,5.7-1.9l0.5,0.9
		c-1.9,1.2-3.9,1.9-6.2,2.1l-1.1,0C158.1,217,157.7,217,157.2,217z"/>
	<path d="M159.8,228c-0.1,0-0.2,0-0.3,0c0,0,0,0,0,0c-3.8,0-7.8-0.2-10.1-2.2l0.7-0.8c2.1,1.8,5.8,2,9.5,2c2.1,0,4.3-0.6,6-1.9
		l0.6,0.8C164.3,227.3,162,228,159.8,228z"/>
	<path d="M160.5,238c-3.5-0.1-7-0.4-10.4-1l0.2-1c3.4,0.6,6.8,0.9,10.2,1c4.5,0,5-2.5,5-2.8l1,0.3C166.5,234.7,165.9,238,160.5,238z
		"/>
	<path d="M159.6,249c-3.2,0-6.4-0.7-9.3-2.1l0.4-0.9c3,1.4,6.4,1.9,9.8,2c4.6,0,5.5-2.5,5.6-2.8l0.9,0.5c0,0.1-1.2,3.3-6.5,3.3
		C160.2,249,159.9,249,159.6,249z"/>
	<path class="st4" d="M195.6,301.9H218c0,0-15-26.1-19.3-31.8s-12.2-13.6-14.2-14.6l-13,12c0,0,8,4.7,10.5,8.8
		S192.7,293.3,195.6,301.9z"/>
	<g>
		<path class="st2" d="M193.5,272.5c-2.4,1.9-3.2,5.2-2,8c2,5,8,6,8,6s7-6,15-2s9,7,9,15s14,3,14,3l2-2c0,0,4-21-19-31
			C220.5,269.5,209.5,265.5,193.5,272.5z"/>
		<path d="M229.4,304.5c-1.7,0-3.3-0.3-4.5-1.1c-1.2-0.9-1.8-2.2-1.8-3.9c0-8-1.1-10.7-8.7-14.6c-7.6-3.8-14.4,1.9-14.5,1.9
			l-0.2,0.2l-0.2,0c-0.3,0-6.3-1.1-8.4-6.3c-1.3-3-0.4-6.5,2.1-8.6l0.1-0.1c16-7,26.9-3.2,27.4-3c23.1,10.1,19.4,31.3,19.3,31.6
			l0,0.2l-2.3,2.2C237.4,303.1,233.2,304.5,229.4,304.5z M208.8,282.6c1.8,0,3.8,0.4,5.9,1.4c8.1,4,9.3,7.1,9.3,15.4
			c0,1.4,0.5,2.4,1.4,3.1c3.2,2.3,10.8-0.2,11.8-0.5l1.8-1.8c0.1-0.9,0.8-5.7-0.9-11.4c-1.7-5.8-6.1-13.8-17.8-18.9
			c-0.1,0-11-3.8-26.5,3c-2.2,1.8-2.9,4.8-1.8,7.4c1.7,4.2,6.4,5.4,7.4,5.7C200.3,285.3,204,282.6,208.8,282.6z"/>
	</g>
	<path class="st4" d="M196.5,284.5c5.2-3.9,11.6-5.7,18-5c11,1,16,9,18,17s-4,10-4,10l-5-7c0,0,0.1-13.9-10-15.4s-14,2.4-14,2.4
		S195.5,286.5,196.5,284.5z"/>
	<path d="M211.3,283.9c-3.3-1.5-7.3-4.8-7.3-12.4c-0.1-1.3,0.6-2.5,1.8-3.1l0.5,0.9c-0.8,0.4-1.3,1.3-1.2,2.2
		c0,5.7,2.3,9.5,6.7,11.5L211.3,283.9z"/>
	<path d="M220.2,288.8c-0.9-3.1,0.8-9.5,2.9-12.5c2.2-3.3,6.5-1.8,6.5-1.8l-0.3,0.9c-0.1-0.1-3.6-1.2-5.4,1.4
		c-1.9,2.8-3.5,8.9-2.7,11.7L220.2,288.8z"/>
	<path d="M223.4,300.8l-0.4-0.5c0,0,0-0.1,0-0.1h0h0c0.2-0.7,1.8-3.2,6.4-3.2c3.6,0,7.1,0.8,10.3,2.4l-0.5,0.9
		c-3-1.6-6.5-2.3-9.9-2.3c-4.4,0-5.4,2.3-5.5,2.5v0c0,0,0,0,0,0l0,0L223.4,300.8z M223.6,300.3l0.1,0L223.6,300.3L223.6,300.3z
		 M223.6,300.3l-0.1-0.5L223.6,300.3z"/>
	<g>
		<path class="st2" d="M127.1,268.4c0,0-18.6-4.9-28.6,11.1c0,0-5,9,1,20s7,4,7,4l7-5.2c0,0-6-7.8-2-13.8c0,0,2.8-4.2,8.9-3.1
			L127.1,268.4z"/>
		<path d="M104.8,306.2c-1.5,0-3.4-2.1-5.8-6.5c-6.1-11.1-1-20.4-1-20.5c10.1-16.1,28.9-11.4,29.1-11.4l0.6,0.2l-7.1,13.9l-0.4-0.1
			c-5.7-1.1-8.3,2.9-8.4,2.9c-3.8,5.6,1.9,13.1,2,13.2l0.3,0.4l-7.2,5.4c-0.1,0.6-0.6,2.2-1.8,2.4
			C105.1,306.2,104.9,306.2,104.8,306.2z M120.7,268.2c-6.2,0-15.7,1.8-21.8,11.6c0,0.1-4.8,8.9,1,19.5c3.1,5.6,4.5,6,5,5.9
			c0.7-0.1,1-1.4,1-1.8l0-0.2l6.8-5.1c-1.2-1.7-5.4-8.4-1.7-13.9c0.1-0.2,2.9-4.3,9-3.4l6.2-12.1
			C125.4,268.5,123.3,268.2,120.7,268.2z"/>
	</g>
	<path class="st5" d="M119.5,281.5c0,0,2-7,1-10c-0.5-1.7-1.8-3.1-3.6-3.6"/>
	<path class="st5" d="M111.5,284.5c-2-2.5-4.9-4.3-8-5c-5-1-5.4,0.9-5.4,0.9"/>
	<path class="st5" d="M111,293.6c-2.5-0.6-5.2-0.3-7.5,0.9c-4,2-4,5-4,5"/>
	<path class="st4" d="M123.5,274.9c0,0-7-2.4-13,0.6s-9,7-9,12s5,12,7,14s4.8-3.9,4.8-3.9s-3.8-5.1-2.8-11.1c0,0,1-6,10-5
		L123.5,274.9z"/>
	<circle cx="145" cy="266" r="1.5"/>
	<circle cx="160.5" cy="268.5" r="1.5"/>
	<circle cx="173.5" cy="274.5" r="1.5"/>
	<circle cx="182.5" cy="285.5" r="1.5"/>
	<circle cx="188.5" cy="296.5" r="1.5"/>
	<circle cx="133.5" cy="266.5" r="1.5"/>
</g>
</svg>
