<?xml version="1.0" encoding="utf-8"?>
<!-- Generator: Adobe Illustrator 23.0.4, SVG Export Plug-In . SVG Version: 6.00 Build 0)  -->
<svg version="1.1" id="Layer_1" xmlns="http://www.w3.org/2000/svg" xmlns:xlink="http://www.w3.org/1999/xlink" x="0px" y="0px"
	 viewBox="0 0 300 300" style="enable-background:new 0 0 300 300;" xml:space="preserve">
<style type="text/css">
	.st0{fill:#26A9E0;}
	.st1{fill-opacity:0.2;}
	.st2{fill:#FFFFFF;fill-opacity:0.4;}
	.st3{fill:#FFFFFF;fill-opacity:0.2;}
	.st4{fill:#F9EC31;}
	.st5{fill:#6D6E70;}
</style>
<title>body</title>
<g id="body-07">
	<g id="fill_color">
		<path class="st0" d="M158.7,234.2c0,0-59,1-84,42s23,42,23,42l132-13c0,0-5-16,5-27s19-6,19-6S219.7,231.2,158.7,234.2z"/>
		<path class="st0" d="M277.5,301.5c-0.3-7.3-4.1-15.6-12-25c0,0-11.5-8-25.3-2.7c-7.7,4.7-13.7,11.7-11.7,28.7L277.5,301.5z"/>
		<path class="st0" d="M74.5,276.5c-11,0-21.1,6.2-26,16c-9,17,10,17,10,17l8.8-9.5C67.3,300,64.5,293.5,74.5,276.5z"/>
	</g>
	<path d="M97.5,319c-0.2,0-5.5-0.1-11.7-1.8c-8.2-2.2-14.1-6.1-16.9-11.4c-4.1-7.4-2.3-17.4,5.2-29.6c24.8-40.6,83.4-42.2,84.4-42.2
		c60.5-3,95.1,36.8,95.4,37.2c0.2,0.2,0.2,0.4,0,0.6c-0.1,0.2-0.4,0.3-0.6,0.2c-0.4-0.2-8.8-3.7-18.4,6.9
		c-9.7,10.7-4.9,26.4-4.9,26.5c0,0.1,0,0.3-0.1,0.4c-0.1,0.1-0.2,0.2-0.4,0.2L97.5,319C97.5,319,97.5,319,97.5,319z M164.9,234.8
		c-2.1,0-4.2,0.1-6.4,0.2c0,0,0,0,0,0c-0.6,0-59,1.5-83.6,41.8c-7.3,11.9-9,21.6-5.1,28.6c6.6,12,27.5,12.6,27.7,12.6l131.4-12.9
		c-0.8-3-3.7-17,5.3-26.9c7.5-8.3,14.6-8.2,17.8-7.6C245.7,264.1,215,234.8,164.9,234.8z M158.5,234.5L158.5,234.5L158.5,234.5z"/>
	<path class="st1" d="M215,245c0,0,6.5,1.5-0.5,16.5c-7,15-13,26-10,41s24.3,0,24.3,0s-3.6-15.8,7-25.4c12.9-11.6,20-3.9,16.9-5.9
		C253.1,270.8,235.5,253.6,215,245z"/>
	<path d="M97.5,319c-0.2,0-5.5-0.1-11.7-1.8c-8.2-2.2-14.1-6.1-16.9-11.4c-4.1-7.4-2.3-17.4,5.2-29.6c24.8-40.6,83.4-42.2,84.4-42.2
		c60.5-3,95.1,36.8,95.4,37.2c0.1,0.2,0.2,0.4,0.1,0.6c-0.1,0.2-0.3,0.3-0.5,0.2c-0.1,0-11.8-1.8-18.5,6.8
		c-9.7,10.7-5,26.4-4.9,26.5c0,0.1,0,0.3-0.1,0.4c-0.1,0.1-0.2,0.2-0.4,0.2L97.5,319C97.5,319,97.5,319,97.5,319z M164.9,234.8
		c-2.1,0-4.2,0.1-6.4,0.2c0,0,0,0,0,0c-0.6,0-59,1.5-83.6,41.8c-7.3,11.9-9,21.6-5.1,28.6c6.6,12,27.5,12.6,27.7,12.6l131.4-12.9
		c-0.8-3-3.7-17,5.3-26.9c5.7-7.3,14.7-7.5,18.1-7.3C246.8,265.1,215.9,234.8,164.9,234.8z M158.5,234.5L158.5,234.5L158.5,234.5z"
		/>
	<path class="st2" d="M62.5,280.5c0,0,5,0,0,9s-8,11-9,14s-6.5-2.3-6.5-2.3s-3.2-4.8,5.6-14.7C52.6,286.4,57.5,280.5,62.5,280.5z"/>
	<path d="M58.7,310h-0.2c-0.4,0-8.7-0.1-11.8-5.2c-1.9-3.1-1.4-7.3,1.4-12.5c5-10,15.2-16.3,26.4-16.3c0,0,0,0,0,0l0.9,0l-0.4,0.8
		c-9.7,16.5-7.2,23-7.2,23.1l0.1,0.3l-0.2,0.2L58.7,310z M73.6,277c-10.5,0.3-19.9,6.3-24.7,15.7c-2.6,4.9-3.1,8.8-1.4,11.5
		c2.6,4.2,9.4,4.7,10.7,4.7l8.4-9.1C66.3,298.4,65.2,291.7,73.6,277z"/>
	<path class="st2" d="M77.5,301.5c0,0,0-19,13-30s16-5,15-2s-14,24-14,32S77.5,301.5,77.5,301.5z"/>
	<path d="M228.1,303l-0.1-0.5c-2.1-18,4.9-24.9,12-29.2l0.1,0c8.9-3.1,16.6-2.7,22.9,1.1c12.5,7.7,15,26.8,15.1,27l0.1,0.6
		L228.1,303z M240.4,274.3c-6.8,4.1-13.4,10.6-11.5,27.7l48-1c-0.5-3.2-3.6-19-14.5-25.7C256.4,271.6,249,271.3,240.4,274.3z"/>
	<path class="st1" d="M261.5,304.5c0,0,4-7,3-15s-8.4-17-8.4-17c8.6,1.9,15.7,8.4,18.8,16.7c2.3,4.7,3.2,10.1,2.6,15.3L261.5,304.5z
		"/>
	<g>
		<path class="st3" d="M103.5,303.5c0,0,2-30,41-29s41,29,41,29h-11.2c-0.8-2-12.1-18.6-30.8-18c-15.9-0.4-26.9,4.6-30.5,18H103.5z"
			/>
		<path d="M186,304h-12.1l-0.1-0.3c-0.7-1.9-12-18.3-30.3-17.7c-17-0.4-26.8,5.4-30,17.6l-0.1,0.4H103l0-0.5
			c0-0.3,2.5-30.5,41.5-29.5c11.2,0.3,26.5,3.1,35.5,15.1c5.4,7.2,6,14.1,6,14.4L186,304z M174.5,303h10.4
			c-0.6-3.9-5.4-27.1-40.4-28c-15.8-0.4-27.8,4.4-34.7,13.9c-4.4,6.1-5.5,12.3-5.7,14.1h8.6c3.5-12.5,13.6-18.4,30.9-18
			C162.4,284.4,173,300.5,174.5,303z"/>
	</g>
	<g>
		<path class="st1" d="M113.5,301.5c0,0,3-16,28-16s32,17,32,17L113.5,301.5z"/>
		<path d="M174.3,303l-61.4-1l0.1-0.6c0-0.2,3.4-16.4,28.5-16.4c13.1,0,21.2,4.7,25.7,8.6c4.9,4.3,6.7,8.5,6.8,8.7L174.3,303z
			 M114.1,301l58.5,1c-1.7-3.2-9.8-16-31.2-16C119.9,286,115,298.2,114.1,301z"/>
	</g>
	<g>
		<path class="st4" d="M118.5,300.5c0,0,9-12,24-11s24,12,24,12L118.5,300.5z"/>
		<path d="M167.6,302l-50.1-1l0.6-0.8c0.1-0.1,9.3-12.2,24.4-11.2c15,1,24.3,12.1,24.4,12.2L167.6,302z M119.5,300l45.8,1
			c-2.5-2.6-10.7-10.2-22.9-11C130.1,289.2,121.9,297.4,119.5,300z"/>
	</g>
	<circle cx="125.5" cy="283.5" r="1"/>
	<circle cx="113" cy="291" r="1"/>
	<circle cx="148" cy="280" r="1"/>
	<circle cx="170" cy="289" r="1"/>
	<g>
		<path class="st5" d="M147,200c0,0,0,44,1,45c3.6,3.8,9,5.3,14,4c8-2,7-7,7-7c-1.5-8.1-2.4-16.3-2.5-24.5v-19
			C166.5,198.5,148.5,198.5,147,200z"/>
		<path d="M158.4,250c-4,0-7.9-1.6-10.8-4.6c-1-1-1.1-28.8-1.1-45.3v-0.2l0.1-0.1c1.6-1.6,16.8-1.6,19.9-1.6h0.5v19.5
			c0.1,8.2,1,16.4,2.5,24.4c0,0,1,5.5-7.4,7.6C160.9,249.8,159.7,250,158.4,250z M148.4,244.7c3.5,3.6,8.6,5.1,13.5,3.8
			c7.5-1.9,6.6-6.4,6.6-6.4c-1.5-8.1-2.4-16.4-2.5-24.6V199c-8.2,0-17.1,0.5-18.5,1.3C147.5,217.3,147.7,242.9,148.4,244.7z"/>
	</g>
	<path class="st1" d="M159.5,202.5c0,0,1,17,2,23s2,22.8-2,23.9c0,0,9.6-0.9,9.3-8.4s-2.4-19.2-2.4-30.3s0.1-12.2,0.1-12.2l-7,0.1
		V202.5z"/>
	<path d="M152.4,237c-4.6,0-5.5-3.1-5.5-3.2l0.6-0.4c0,0.1,1,2.7,4.9,2.7c4.1,0,12.5-1.3,14.6-4.4l0.8,0.5
		C165.4,235.8,156.4,237,152.4,237z"/>
	<path d="M152.5,222.5c-4.3,0-5.4-2.9-5.5-3l0.5-2.7c-0.2,1.4,1.4,4.7,5,4.7c4.5,0,11.8-1.4,13.5-3.9l0.8,0.6
		C164.6,221.4,156.2,222.5,152.5,222.5z"/>
	<path d="M152.5,210.5c-4.3,0-5.4-2.1-5.4-2.2l0.9-0.5l-0.4,0.2v-3.4c0.1,3.1,1.4,4.8,5,4.8c4.6,0,11.8-1,13.6-2.8l0.7,0.7
		C164.5,209.7,156.2,210.5,152.5,210.5z"/>
</g>
</svg>
