<?xml version="1.0" encoding="utf-8"?>
<!-- Generator: Adobe Illustrator 23.0.4, SVG Export Plug-In . SVG Version: 6.00 Build 0)  -->
<svg version="1.1" id="Layer_1" xmlns="http://www.w3.org/2000/svg" xmlns:xlink="http://www.w3.org/1999/xlink" x="0px" y="0px"
	 viewBox="0 0 300 300" style="enable-background:new 0 0 300 300;" xml:space="preserve">
<style type="text/css">
	.st0{fill:#26A9E0;}
	.st1{fill:#020202;fill-opacity:0.4;}
	.st2{fill-opacity:0.2;}
	.st3{fill:#FFFFFF;fill-opacity:0.4;}
	.st4{fill-opacity:0.4;}
	.st5{fill:#6D6E70;}
</style>
<title>body</title>
<g id="body-08">
	<g id="fill_color">
		<path class="st0" d="M125.5,286.5c0,0-5,5-4,15l83,1c0,0-2-19-13-22s-16-2-16-2h-0.4l0.4,4c0,0-4.6,7.2-15.8,7.1
			s-13.6-2.8-15.9-5.9c0,0-1.3-4.5-0.8-6.8C143,276.9,135.5,277.5,125.5,286.5z"/>
		<path class="st0" d="M143.5,272.5c-0.1,0.5-0.2,0.9-0.2,1.4c0,2.5,1.7,7.6,15.2,7.6c18,0,16-9,16-9s-1-5-13-5
			S145.5,268.5,143.5,272.5z"/>
		<path class="st0" d="M143.5,282.5c0,0,0,6,14,7s18-7,18-7l-1-10c0,0-0.1-5-15.6-5s-14.4,4-15.4,6c-0.4,1.3-0.6,2.7-0.4,4
			C143.1,280,143.5,282.5,143.5,282.5z"/>
	</g>
	<path class="st1" d="M166,276l4,3c0,0,1.2-0.5,2.2-1.4c1.5-1.4,3-3.8,1.8-5.6c-2-3-2.4-2.1-2.4-2.1l-0.8,3.9L166,276z"/>
	<path class="st2" d="M143.5,282.5c0,0,0,6,14,7s18-7,18-7l-1-10c-2.8,12.9-32.5,10.7-31,1c-0.3,1.3-0.4,2.7-0.4,4
		C143.1,280,143.5,282.5,143.5,282.5z"/>
	<g>
		<path class="st3" d="M143.5,272.5c-0.1,0.5-0.2,0.9-0.2,1.4c0,2.5,1.7,7.6,15.2,7.6c18,0,16-9,16-9s-1-5-13-5
			S145.5,268.5,143.5,272.5z"/>
		<path d="M158.5,282c-4.7,0-15.7-0.8-15.7-8.1c0-0.5,0.1-1,0.2-1.5l0-0.1c2.1-4.1,6-5.3,18.4-5.3c12.3,0,13.4,5.2,13.5,5.4
			c0,0.1,0.5,2.6-1.4,5C171.1,280.5,166.1,282,158.5,282z M144,272.7c-0.1,0.4-0.2,0.8-0.2,1.2c0,6.4,10.3,7.1,14.7,7.1
			c9,0,12.7-2.3,14.3-4.2c1.7-2.1,1.2-4.1,1.2-4.2c0-0.1-1.2-4.6-12.5-4.6C149.6,268,145.8,269,144,272.7z"/>
	</g>
	<path d="M159.9,290.1c-0.8,0-1.6,0-2.4-0.1c-13.9-1-14.4-6.9-14.5-7.5c0-0.3-0.4-2.7-0.4-5c-0.1-1.4,0-2.8,0.5-4.2
		c0.1-0.3,0.2-0.6,0.3-0.9c0.8-2.3,1.8-5.5,15.6-5.5c15.7,0,16.1,5.3,16.1,5.5l1,10.1l-0.1,0.1C175.8,283,172.1,290.1,159.9,290.1z
		 M144,282.5c0,0.1,0.3,5.6,13.5,6.5c12.5,0.9,16.9-5.6,17.5-6.6l-1-9.8c0-0.1-0.5-4.5-15.1-4.5c-13.1,0-14,2.9-14.6,4.8
		c-0.1,0.3-0.2,0.6-0.4,0.9c-0.4,1.2-0.5,2.4-0.4,3.7C143.6,279.9,144,282.4,144,282.5L144,282.5z"/>
	<path class="st3" d="M134.5,281.5c0,0,5-1,3,2s-7,4-9,9c-1.2,2.9-1.6,6-1.2,9.1l-5.8-0.1c0,0-1.5-12.9,8.2-18.5
		C131.2,282.2,132.8,281.7,134.5,281.5z"/>
	<path class="st4" d="M168.2,288.6c0,0,15.3-5.1,20.3-1.1s5,12,5,14s10.8,0.7,10.8,0.7s-2.5-18-10.7-20.8c-5.8-2-12-3-18.1-2.8l0,0
		v4C175.5,282.5,169.9,288.7,168.2,288.6z"/>
	<path d="M205.1,303l-84-1l0-0.4c-1-10.1,3.9-15.2,4.1-15.4l0,0c10.2-9.2,17.8-9.8,17.8-9.8h0.6l-0.1,0.6c-0.4,2,0.6,5.9,0.8,6.5
		c2,2.7,4.1,5.6,15.4,5.6c0.1,0,0.1,0,0.2,0c9.8,0,14.4-5.7,15.1-6.7l-0.4-4.3h0.9c0.6-0.1,5.7-0.9,16.2,2
		c11.2,3.1,13.3,21.6,13.4,22.4L205.1,303z M122,301l82,1c-0.4-3.1-3.1-18.4-12.6-21c-10.1-2.8-15.1-2.1-15.7-2l0.4,3.6l-0.1,0.1
		c-0.2,0.3-4.9,7.3-16,7.3c-0.1,0-0.1,0-0.2,0c-11-0.1-13.7-2.6-16.3-6.1l-0.1-0.2c0-0.2-1.1-3.8-0.9-6.4c-1.9,0.4-8.4,2.1-16.6,9.4
		C125.6,287.1,121.2,291.9,122,301z"/>
	<path class="st4" d="M170.3,279.3v7.9c0,0,5.2-3.7,5.2-4.7s-0.9-9.4-0.9-9.4S175.2,277.2,170.3,279.3z"/>
	<g>
		<path class="st5" d="M143,201c0,0,8,21,7,38s-2,35-2,35s0.5,3.5,10.5,3.5s13-5,13-5s0-37-3-53s-8-22-8-22S147.5,200.5,143,201z"/>
		<path d="M158.5,278c-10.1,0-10.9-3.5-11-3.9c0-0.1,1-18.1,2-35.1c1-16.7-6.9-37.6-7-37.8l-0.2-0.6l0.6-0.1
			c4.4-0.5,17.3-3.5,17.4-3.5l0.3-0.1l0.2,0.2c0.2,0.2,5.1,6.3,8.1,22.2c3,15.9,3,52.7,3,53.1v0.1l-0.1,0.1
			C171.8,273,168.7,278,158.5,278z M148.5,274c0.1,0.3,1.3,3,10,3c8.8,0,12-4,12.5-4.7c0-2.6-0.1-37.5-3-52.8
			c-2.6-13.9-6.8-20.3-7.7-21.5c-2,0.4-12.1,2.7-16.6,3.4c1.3,3.6,7.7,22.3,6.8,37.6C149.5,255.4,148.6,272.7,148.5,274z"/>
	</g>
	<path class="st2" d="M153.9,199c0,0,6.6,15.5,8.6,28.5s4,24,4,33v15.6c0,0,5-1.6,5-3.6s1.2-37.5-5.4-62.8c0,0-3.6-10.2-5.6-12.2
		L153.9,199z"/>
	<path d="M153.4,227.2c-2,0-3.4-0.2-3.5-0.2l-0.2-1c0.1,0,14.8,2.2,18-7.9l1,0.3c-1.4,4.6-5.2,7.5-10.8,8.5
		C156.3,227.1,154.7,227.2,153.4,227.2z"/>
	<path d="M156.4,241.2c-5.4,0-6.3-3.4-6.3-3.5l0.6-1.9c0.3,1.6,1.4,5.2,7.8,4.3c6.9-1,10.7-4,11.6-5.7l0.5,0.8
		c-1.2,2.3-5.1,5-12,5.9C157.8,241.1,157,241.2,156.4,241.2z"/>
	<path d="M156.5,255c-6.3,0-7.3-4.1-7.4-4.3l1-0.2l-0.5,0.1l0.3-1.5c0.6,1.9,1.1,4.9,6.6,4.9c5.8,0,13.2-3.4,14.3-5.5l0.7,0.8
		C170,251.9,162.5,255,156.5,255z"/>
	<path d="M153.5,216c-5.2,0-6.4-2.2-6.4-2.3l-1.8-7.6c2.1,6.3,3.7,8.9,8.2,8.9c4.1,0,10.2-3.2,11.7-5.1c0.3-0.4,0.3-0.6,0.3-0.6
		l1-0.2c0.1,0.4-0.1,0.9-0.5,1.4C164.3,212.6,157.9,216,153.5,216z"/>
	<path d="M155.1,267.1c-2.2,0-3.9-0.5-5.1-1.6c-1.5-1.3-1.5-3-1.5-3.1l1,0l-0.5,0l0.3-2.2c0.1,1.7,0.3,3.5,1.4,4.5
		c1.3,1.1,3.5,1.5,6.4,1.2c7.2-0.9,12.3-3.1,13.7-6l0.9,0.4c-1.5,3.2-6.9,5.7-14.5,6.6C156.5,267.1,155.8,267.1,155.1,267.1z"/>
</g>
</svg>
