<?xml version="1.0" encoding="utf-8"?>
<!-- Generator: Adobe Illustrator 23.0.4, SVG Export Plug-In . SVG Version: 6.00 Build 0)  -->
<svg version="1.1" id="body-01" xmlns="http://www.w3.org/2000/svg" xmlns:xlink="http://www.w3.org/1999/xlink" x="0px" y="0px"
	 viewBox="0 0 300 300" style="enable-background:new 0 0 300 300;" xml:space="preserve">
<style type="text/css">
	.st0{fill:#26A9E0;}
	.st1{fill:#FFFFFF;fill-opacity:0.4;}
	.st2{fill:none;stroke:#000000;stroke-width:1.2;stroke-miterlimit:10;}
	.st3{fill-opacity:0.2;stroke:#000000;stroke-miterlimit:10;}
	.st4{fill:none;stroke:#000000;stroke-width:1.25;stroke-miterlimit:10;}
	.st5{fill-opacity:0.2;stroke:#000000;stroke-width:0.75;stroke-miterlimit:10;}
	.st6{fill:none;stroke:#000000;stroke-miterlimit:10;}
	.st7{fill:#6D6E70;stroke:#000000;stroke-miterlimit:10;}
	.st8{fill-opacity:0.2;}
</style>
<title>body</title>
<g id="fill_color">
	<path class="st0" d="M106,247.5c0,0-34.5,3-50.5,32c0,0-5,9-6,23h27C76.5,302.5,77.4,272.5,106,247.5z"/>
	<path class="st0" d="M226.5,236.5c0,0-6-10-26-12s-56-2-81,13s-43,44-43,65h115c0,0,3-31,22-53c0,0,8.9-7.4,14.4-9.2
		C227.9,240.3,228.5,239.5,226.5,236.5z"/>
	<path class="st0" d="M286.5,302.5c0,0,4-50-16-59s-44-8-57,6s-22,43-22,53H286.5z"/>
</g>
<path class="st1" d="M91.2,264c0,0,5.3,0.5,3.3,9.5s-5,7-7,17s-2.5,12-2.5,12h-8.5C76.5,302.5,75.8,285.5,91.2,264z"/>
<path class="st2" d="M286.5,302.5c0,0,4-50-16-59s-44-8-57,6s-22,43-22,53H286.5z"/>
<path class="st3" d="M268.5,247.5c0,0-8,8-11,26s-2.2,29-2.2,29h31.2c0,0,3.8-41.8-12.6-56.9C273.9,245.6,271.5,244.5,268.5,247.5z"
	/>
<path class="st4" d="M226.5,236.5c0,0-6-10-26-12s-56-2-81,13s-43,44-43,65h115c0,0,3-31,22-53c0,0,8.9-7.4,14.4-9.2
	C227.9,240.3,228.5,239.5,226.5,236.5z"/>
<path class="st5" d="M218.2,229.6c0,0-18.7,0.9-31.7,20.9s-17,37-17.5,52h22.5c-1.4,0.1,8.1-36.8,16-45.5c10-15.5,21-16.5,21-16.5
	S228.9,235.6,218.2,229.6z"/>
<path class="st6" d="M106,247.5c0,0-34.5,3-50.5,32c0,0-5,9-6,23h27C76.5,302.5,77.4,272.5,106,247.5z"/>
<path class="st1" d="M80.6,255.5c0,0,2.9,2-6.1,12c-7.1,7.7-12.8,16.5-17,26c-3,7-1.8,9-1.8,9h-6.2
	C49.5,302.5,50.7,270.5,80.6,255.5z"/>
<path class="st2" d="M106,247.5c0,0-34.5,3-50.5,32c0,0-5,9-6,23h27C76.5,302.5,77.4,272.5,106,247.5z"/>
<path class="st6" d="M153.5,251.5c7.6-0.1,26-2,27-14s-27-8-27-8s-22,1-22,11S147.4,251.6,153.5,251.5z"/>
<path class="st7" d="M138.5,166.5c0,0,12,33,4,72c0,0,1,6,12,5s12-5,12-5s6-37-10-75C156.5,163.5,145.5,166.5,138.5,166.5z"/>
<path class="st6" d="M161,176c-2.1,1.8-4.7,3-7.5,3.5c-5,1-9,1-11.5,0"/>
<path class="st6" d="M163.7,185.4c-1.2,2.5-2.4,7.7-20,5.4"/>
<path class="st6" d="M166.3,200.7c0,0-4.6,7.8-21.2,3.3"/>
<path class="st6" d="M167.4,213.4c0,0-3.7,9.1-22.3,4.1"/>
<path class="st6" d="M167.4,227.2c0,0-7.8,9.4-23.3,1.9"/>
<circle cx="154.5" cy="247.5" r="1.5"/>
<circle cx="166.5" cy="244.5" r="1.5"/>
<circle cx="174.5" cy="237.5" r="1.5"/>
<circle cx="168.5" cy="232.5" r="1.5"/>
<circle cx="142.5" cy="245.5" r="1.5"/>
<circle cx="137.5" cy="240.5" r="1.5"/>
<path class="st8" d="M150.5,164.5c0,0,10.5,29.5,11,45c0.2,11-0.1,22-1,33l5.5-2.8c3-11.9,4-40.9-9.5-76.2L150.5,164.5z"/>
</svg>
