<?xml version="1.0" encoding="utf-8"?>
<!-- Generator: Adobe Illustrator 23.0.4, SVG Export Plug-In . SVG Version: 6.00 Build 0)  -->
<svg version="1.1" id="Layer_1" xmlns="http://www.w3.org/2000/svg" xmlns:xlink="http://www.w3.org/1999/xlink" x="0px" y="0px"
	 viewBox="0 0 300 300" style="enable-background:new 0 0 300 300;" xml:space="preserve">
<style type="text/css">
	.st0{fill:#26A9E0;}
	.st1{fill-opacity:0.6;stroke:#000000;stroke-miterlimit:10;}
	.st2{fill:none;stroke:#000000;stroke-linecap:round;stroke-linejoin:round;}
	.st3{fill:#FFFFFF;fill-opacity:0.2;stroke:#000000;stroke-miterlimit:10;stroke-opacity:0;}
	.st4{fill:#FFFFFF;fill-opacity:0.1;}
	.st5{fill:#6D6E70;stroke:#000000;stroke-miterlimit:10;}
	.st6{fill:#58595B;}
	.st7{fill:none;stroke:#000000;stroke-miterlimit:10;}
	.st8{fill-opacity:0.4;}
	.st9{fill:#FFFFFF;fill-opacity:0.5;}
	.st10{fill:#FFFFFF;fill-opacity:0.2;}
	.st11{fill-opacity:0.4;stroke:#000000;stroke-miterlimit:10;}
	.st12{fill:none;stroke:#000000;stroke-width:0.75;stroke-miterlimit:10;}
	.st13{fill:none;stroke:#000000;stroke-width:0.75;stroke-linecap:round;stroke-linejoin:round;}
</style>
<title>body</title>
<g id="body-10">
	<g id="fill_color">
		<path class="st0" d="M222.5,301.5c0,0-10-35,11-53s58-15,70,2s2,51,2,51H222.5z"/>
		<path class="st0" d="M83.5,254.5c0,0-6,28,67,26s77-30,76-36s-12.3-10.1-26-13c0,5,1,22,1,22s-8,13-46,17c-29,1-45-9-45-9
			s-1.5-16-2.5-23.1C96.5,241.8,85.5,247.5,83.5,254.5z"/>
		<path class="st0" d="M110.5,261.5c0,0,20,11,44,9s36-7,47-17l-1-24c0.2,1.5,0.1,3-0.3,4.4c-0.7,1.6-4.6,16.8-42.2,19.7
			s-47-4.1-50-16.1L110.5,261.5z"/>
		<rect x="83.5" y="250" class="st0" width="143.5" height="58.5"/>
		<path class="st0" d="M87.5,247.5c0,0-19-10-37-5s-29,20-32,37c-1,11,1,16,3,20h64c0,0,2-5,0-16s-3-23-2-29S87.5,247.5,87.5,247.5z
			"/>
		<path class="st0" d="M108,237c0,0-1,20,45,17s48.5-20.5,47.5-24.5c-0.9-3.6-13.7-10.6-39-9.6c0,0.6,0.3,3.3,0.3,3.3
			c1.7,9.3,0.7,15.3-9.3,16.3c-3.4,0.3-10-5-10-5s-1-8-1-13C120.4,224.6,108.4,230,108,237z"/>
	</g>
	<path class="st1" d="M108,237c0,0-1,20,45,17s48.5-20.5,47.5-24.5c-0.9-3.6-13.7-10.6-39-9.6c0,0.6,0.3,3.3,0.3,3.3
		c1.7,9.3,0.7,15.3-9.3,16.3c-3.4,0.3-10-5-10-5s-1-8-1-13C120.4,224.6,108.4,230,108,237z"/>
	<path class="st2" d="M110.5,261.5c0,0,20,11,44,9s36-7,47-17l-1-24c0.2,1.5,0.1,3-0.3,4.4c-0.7,1.6-4.6,16.8-42.2,19.7
		s-47-4.1-50-16.1L110.5,261.5z"/>
	<path class="st3" d="M193.4,260.1c-6.7,3.8-18.3,8.3-37.9,10.4c-29,1-45-9-45-9s-1.5-16-2.5-23.1c-11.5,3.4-22.5,9.1-24.5,16.1
		c0,0-6,28,67,26c29.6-0.8,47.8-5.9,59-12"/>
	<path class="st4" d="M83.5,254.5c0,0-6,28,67,26c29.6-0.8,47.8-5.9,59-12c-5.5-2.5-10.5-5.5-16.1-8.4c-6.7,3.8-18.3,8.3-37.9,10.4
		c-29,1-45-9-45-9s-1.5-16-2.5-23.1C96.5,241.8,85.5,247.5,83.5,254.5z"/>
	<path class="st5" d="M141.5,190.5v29c0.1,5,0.4,10,1,15c2,3.6,5.9,5.6,10,5c7-1,11-4,10-11c-0.4-2.5-0.7-5-1-7.6
		c-0.7-5.8-1-11.6-1-17.4v-14C154.2,189,147.8,189.3,141.5,190.5z"/>
	<path class="st6" d="M152.5,190.5c0,0,0,7,2,12c2,5.6,3,11.4,3.1,17.3c-0.1,3.7,0.9,15.7-3.1,17.7s-2,2-2,2s7-1.6,8.5-3.8
		s1.9-3.2,1.2-9.2c-1.2-8.2-1.7-16.5-1.7-24.9v-12.1c-2-0.3-4.1-0.3-6.2-0.2l-1.8,0.2L152.5,190.5z"/>
	<path class="st7" d="M141.5,190.5v29c0.1,5,0.4,10,1,15c2,3.6,5.9,5.6,10,5c7-1,11-4,10-11c-0.4-2.5-0.7-5-1-7.6
		c-0.7-5.8-1-11.6-1-17.4v-14C154.2,189,147.8,189.3,141.5,190.5z"/>
	<path class="st2" d="M161.2,222.2c0,0-2.7,3.2-9.5,3.2s-10.1-2-10.1-2"/>
	<path class="st2" d="M160,208.5c0,0-3,3-9.1,3S142,210,142,210"/>
	<path class="st2" d="M160,197.5c0,0-2,2-8.1,2c-3.3,0-6.6-0.1-9.9-0.5"/>
	<path class="st8" d="M188,246.5l1.5,15.5c0,0,6.6-4,9.1-6l2.4-2c0,0,0.7,0.2,0.4-3.9s-0.8-17.9-0.8-17.9S200,240,188,246.5z"/>
	<path class="st9" d="M84,273.6c0,0,13,3.4,13,11.4s-1,9,0,14s0,4,0,4H84c0,0,3.3-3,2.4-11.3S85,279.5,85,279.5L84,273.6z"/>
	<path class="st8" d="M83.8,283.3c2,11,0,16,0,16l-4.5,0.1l-53.5,1.8c-0.2-0.3-0.4-0.9-0.6-1.8h1.5c0,0-2.1-14,2.6-25
		c4.8-11,16.2-16,26.2-21s10-6,10-9c0-1.7-1.3-3.2-3.1-3.4c-0.3,0-0.7,0-1,0c-0.2-0.1-0.5-0.2-0.7-0.3c8.7,0.4,17.2,2.6,25.1,6.4
		c0,0-3,1-4,7c-1,5.8-0.1,17.2,1.8,27.8L83.8,283.3z"/>
	<path class="st10" d="M65.5,244.5c0,3,0,4-10,9s-21.5,10-26.2,21c-4.8,11-2.6,25-2.6,25h-5.2l-3-20c0,0,8.7-37,42.9-38.3
		c0.3,0,0.7,0,1,0C64.2,241.3,65.5,242.8,65.5,244.5z"/>
	<path class="st8" d="M83.8,299.3l-4.5,0.1l-9.9-0.1c4.7-1.5,8.7-4.6,11.1-8.8c1.4-2.7,2.5-5.5,3.1-8.4l0.2,1.2
		C85.8,294.3,83.8,299.3,83.8,299.3z"/>
	<path class="st11" d="M222.5,301.5c0,0-10-35,11-53s58-15,70,2s2,51,2,51H222.5z"/>
	<path class="st12" d="M33.5,299.5c0,0-7-19-3-35c1.8-9.4,8.2-17.3,17-21.1"/>
	<path class="st13" d="M292.5,241.5c0,0-12-1-13,15c-1,14,4,41,7,45"/>
	<path class="st8" d="M226.5,244.5l0.7,11c-4.9,7.1-7.4,15.6-7.1,24.2c0.4,14.8,2.4,21.8,2.4,21.8h-12c0,0,1-9,0.5-14.5
		s-1.5-18.5-1.5-18.5S227.5,259.5,226.5,244.5z"/>
	<path class="st7" d="M209.5,268.5c0,0,18-9,17-24l0.7,11c-4.9,7.1-7.4,15.6-7.1,24.2c0.4,14.8,2.4,21.8,2.4,21.8h-12"/>
	<path class="st8" d="M293.9,242.2c-1.9-1.2,6.6,6.3,7.6,15.3s7.1,6.4,7.1,6.4s-0.1-8.4-5.1-13.4S295.8,243.4,293.9,242.2z"/>
	<circle cx="154" cy="262" r="1.5"/>
	<circle cx="170.5" cy="259.5" r="1.5"/>
	<circle cx="183.5" cy="255.5" r="1.5"/>
	<circle cx="194.5" cy="250.5" r="1.5"/>
	<circle cx="138.5" cy="261.5" r="1.5"/>
	<circle cx="125.5" cy="259.5" r="1.5"/>
	<circle cx="115.5" cy="255.5" r="1.5"/>
	<path class="st7" d="M83.5,254.5c0,0-6,28,67,26s77-30,76-36s-12.3-10.1-26-13c0,5,1,22,1,22s-8,13-46,17c-29,1-45-9-45-9
		s-1.5-16-2.5-23.1C96.5,241.8,85.5,247.5,83.5,254.5z"/>
	<path class="st7" d="M87.5,247.5c0,0-19-10-37-5s-29,20-32,37c-1,11,1,16,3,20h64c0,0,2-5,0-16s-3-23-2-29S87.5,247.5,87.5,247.5z"
		/>
</g>
</svg>
