<?xml version="1.0" encoding="utf-8"?>
<!-- Generator: Adobe Illustrator 23.0.4, SVG Export Plug-In . SVG Version: 6.00 Build 0)  -->
<svg version="1.1" id="Layer_1" xmlns="http://www.w3.org/2000/svg" xmlns:xlink="http://www.w3.org/1999/xlink" x="0px" y="0px"
	 viewBox="0 0 300 300" style="enable-background:new 0 0 300 300;" xml:space="preserve">
<style type="text/css">
	.st0{fill:#26A9E0;}
	.st1{fill:#FFFFFF;fill-opacity:0.4;}
	.st2{fill-opacity:0.4;}
	.st3{fill:#6D6E70;}
	.st4{opacity:0.2;enable-background:new    ;}
	.st5{fill-opacity:0.2;}
</style>
<title>body</title>
<g id="body-09">
	<g id="fill_color">
		<path class="st0" d="M95.1,227.7c0,0-20.6,4.8-21.6,20.8c-0.4,7.1,4.2,12.1,9.6,15.5c4.6,2.8,9.6,4.9,14.8,6.1
			c0,0-3.2-18.7-2.8-30.7S95.1,227.7,95.1,227.7z"/>
		<path class="st0" d="M97.5,301.5c0,0,2-21,0-35s-2-29-2-36s14-26.1,46-28.1s59-1.9,63,18.1s3,30,3,30s2,53,0,55
			S97.5,301.5,97.5,301.5z"/>
		<g>
			<path class="st0" d="M204.5,220.5c0,0,28,1,29,23S216.6,267,208,268.2C208,268.2,209.5,233.5,204.5,220.5z"/>
			<path d="M207.5,268.8l0-0.6c0-0.3,1.4-34.8-3.5-47.5l0-0.7l0.5,0c0.3,0,28.5,1.3,29.5,23.5c1,21.5-15.8,23.8-24.8,25.1
				L207.5,268.8z M205.2,221.1c4.4,12.6,3.5,41.9,3.3,46.6l0.6-0.1c8.7-1.2,24.9-3.5,23.9-24.1C232.1,224.2,209.7,221.4,205.2,221.1
				z"/>
		</g>
	</g>
	<path d="M145,254.3c-3.1,0-6.3-0.1-9.5-0.3c-14.1-0.9-32.2-4-38.6-13.7c-3.4-5.1-2-9.6-1.8-10c5.2-18.8,25.2-28.4,61.1-29.2
		c23.5-0.5,38.1,2.5,44.8,9.3c3.3,3.3,4.8,7.5,4.6,12.8c-0.2,5.5-3.2,11.1-8.6,16C186.1,248.9,167.5,254.3,145,254.3z M161.4,202.1
		c-1.7,0-3.5,0-5.3,0.1c-35.4,0.8-55,10.2-60.1,28.5l0,0c0,0-1.4,4.3,1.7,9.1c3.4,5.1,12.8,11.6,37.8,13.2
		c26.5,1.7,48.6-3.6,60.7-14.6c5.2-4.7,8.1-10.1,8.3-15.3c0.2-5-1.2-8.9-4.3-12C194.2,205,181.5,202.1,161.4,202.1z"/>
	<path class="st1" d="M87.5,232.5c0,0-9,9-9,14s6,16,2,15s-7.6-12-5.8-18.5S86.5,229.5,87.5,232.5z"/>
	<path d="M199.9,306.4c-22.8,0-87.5-3.5-102.5-4.4l-0.5,0l0-0.5c0-0.2,2-21.1,0-34.9c-2-14-2-28.9-2-36.1c0-7.1,14.3-26.6,46.5-28.5
		c32.3-2,59.4-1.9,63.5,18.5c4,19.8,3,30,3,30.1c0.3,8.8,1.9,53.3-0.1,55.3C207.5,306.2,204.6,306.4,199.9,306.4z M98,301
		c42.6,2.4,106.5,5.4,109.2,4.1c1.3-1.8,0.6-34.4-0.2-54.6c0-0.2,0.9-10.2-3-29.9c-3.9-19.6-30.6-19.6-62.5-17.6
		C110,204.9,96,223.7,96,230.5c0,7.1,0,22,2,35.9C99.8,279.1,98.3,297.7,98,301z"/>
	<g>
		<path class="st2" d="M102.5,227.5c0,0-4,22,38,21c0,0,56,2,57-26s-69-14-69-14S106.5,214.5,102.5,227.5z"/>
		<path d="M137.7,249c-15.6,0-26.3-3.3-31.9-9.8c-4.8-5.6-3.8-11.5-3.8-11.8l0-0.1c2.1-6.9,9.2-11.8,14.7-14.7
			c6-3.1,11.5-4.6,11.6-4.7c0.2,0,12.5-2.5,26.5-3.3c18.9-1.1,31.8,1.2,38.3,6.7c3.3,2.8,5,6.6,4.8,11c-0.4,11.7-10.5,20-29.3,24
			c-14,3-28.1,2.5-28.2,2.5C139.5,249,138.6,249,137.7,249z M103,227.6c-0.1,0.4-0.8,5.9,3.6,11c5.6,6.6,17.4,9.8,33.9,9.4
			c0.6,0,55.5,1.7,56.5-25.5c0.1-4.2-1.3-7.6-4.4-10.2c-15.1-12.8-63.5-3.4-64-3.3C128.4,209,106.9,215.1,103,227.6z"/>
	</g>
	<path d="M145,254.3c-3.1,0-6.3-0.1-9.5-0.3c-14.1-0.9-32.2-4-38.6-13.7c-3.4-5.1-2-9.6-1.8-10c5.2-18.8,25.2-28.4,61.1-29.2
		c23.5-0.5,38.1,2.5,44.8,9.3c3.3,3.3,4.8,7.5,4.6,12.8c-0.2,5.5-3.2,11.1-8.6,16C186.1,248.9,167.5,254.3,145,254.3z M161.4,202.1
		c-1.7,0-3.5,0-5.3,0.1c-35.4,0.8-55,10.2-60.1,28.5l0,0c0,0-1.4,4.3,1.7,9.1c3.4,5.1,12.8,11.6,37.8,13.2
		c26.5,1.7,48.6-3.6,60.7-14.6c5.2-4.7,8.1-10.1,8.3-15.3c0.2-5-1.2-8.9-4.3-12C194.2,205,181.5,202.1,161.4,202.1z"/>
	<path d="M95.8,227.3c0.3,0.2,0.2,0.4-0.2,12.3c-0.4,11.8,2.8,30.4,2.8,30.6l0,0.7l-0.6-0.2c-5.3-1.3-10.3-3.4-14.9-6.2
		c-6.9-4.4-10.3-9.8-9.9-16c1-15.7,21.5-21.2,22.8-21.5 M94.7,228.3c-1.4,0.4-5.6,1.7-9.8,4.2c-6.8,4.2-10.5,9.5-10.9,16
		c-0.4,5.8,2.8,10.9,9.4,15.1c4.3,2.6,9,4.6,13.9,5.9c-0.6-3.6-3-19.5-2.7-30C94.9,231.8,94.8,229.2,94.7,228.3z"/>
	<path d="M207.5,268.8l0-0.6c0-0.3,1.4-34.8-3.5-47.5l0-0.7l0.5,0c0.3,0,28.5,1.3,29.5,23.5c1,21.5-15.8,23.8-24.8,25.1L207.5,268.8
		z M205.2,221.1c4.4,12.6,3.5,41.9,3.3,46.6l0.6-0.1c8.7-1.2,24.9-3.5,23.9-24.1C232.1,224.2,209.7,221.4,205.2,221.1z"/>
	<path class="st1" d="M104.5,263.5c-0.5,1.9,0.3,4,2,5c3,2,7,0,6-2S106.5,260.5,104.5,263.5z"/>
	<path class="st1" d="M109.5,276.5c0,0-5-1-5,9c0,6,0.3,12,1,18l11,1c0,0-3-5-3-14S112.5,278.5,109.5,276.5z"/>
	<g>
		<path class="st3" d="M224.9,263.3c0,0-1.4,20.2,16.6,39.2h-22c0,0-7.4-6.3-11.2-20.7l0.2-13.3
			C208.5,268.5,218.3,268.1,224.9,263.3z"/>
		<path d="M242.7,303h-23.3l-0.1-0.1c-0.3-0.3-7.5-6.6-11.3-20.9l0-0.1L208,268l0.5,0c0.1,0,9.7-0.5,16.1-5.1l0.9-0.6l-0.1,1.1
			c0,0.2-1.2,20.2,16.5,38.8L242.7,303z M219.7,302h20.7c-8.8-9.6-12.7-19.5-14.4-26.1c-1.4-5.6-1.6-9.8-1.6-11.6
			c-5.8,3.8-13.4,4.6-15.4,4.7l-0.2,12.8C212.3,294.7,218.7,301.1,219.7,302z"/>
	</g>
	<path d="M208.7,282.1l-0.6-0.8c2.1-4.4,6.7-6.9,11.5-6.3c4.2,0.5,6.9,1.4,7.8,2.6c0.4,0.5,0.3,0.8,0.3,0.9l-1-0.1l0,0
		c0,0-0.4-1.6-7.3-2.4C215,275.4,210.5,278,208.7,282.1z"/>
	<path d="M216,298.4l-0.7-0.7c0.2-0.2,5-4.7,11.2-4.7c3.3-0.1,6.7,0.7,9.7,2.3l-0.5,0.9c-2.8-1.5-5.9-2.3-9.2-2.2
		C220.8,294,216.1,298.3,216,298.4z"/>
	<path class="st4" d="M217.9,223.4c0,0,9.6,6.1,7.6,17.1s-8,16.1-17,18.5v9.5c0,0,24.1-0.1,25-22.5
		C233.5,246,236.2,233.4,217.9,223.4z"/>
	<g>
		<path class="st3" d="M76.5,302.5c0,0,9-10,8-24l-1-14l14,6c0,0,2,24,0,31S76.5,302.5,76.5,302.5z"/>
		<path d="M90.1,305.4c-6,0-13.4-2.3-13.8-2.4l-0.7-0.2l0.5-0.6c0.1-0.1,8.8-10,7.9-23.6l-1.1-14.8l15,6.4l0,0.3
			c0.1,1,2,24.2,0,31.2c-0.3,1.2-1.1,2.1-2.3,2.7C94.3,305.1,92.3,305.4,90.1,305.4z M77.4,302.2c2.8,0.8,13.4,3.6,17.9,1.2
			c0.9-0.5,1.5-1.2,1.8-2.1c1.8-6.4,0.2-27.7,0-30.5l-13-5.6l0.9,13.2C85.9,290.6,79.3,299.9,77.4,302.2z"/>
	</g>
	<path d="M97.9,283.4c0,0-4.6-3.4-13.3-1.5l-0.2-1c9.2-2,13.9,1.5,14.1,1.6L97.9,283.4z"/>
	<path d="M97.3,299.8c-0.3-0.7-2.7-6.2-16.4-3.5l-0.2-1c14.6-2.8,17.1,2.8,17.2,3L97.3,299.8z"/>
	<path class="st5" d="M90.5,270.5c0,0,7,25,0,32l7-1l0.9-14.2l-0.9-14.6v-2.1l-8.8-3.8L90.5,270.5z"/>
	<path class="st5" d="M85.5,273.5c0,0,5,22-2,29s-4.6-3.3-4.6-3.3s4.7-4.7,5.7-15.2L85.5,273.5"/>
	<path class="st5" d="M225.8,272.9c0,0-12.3-6.4-12.3,0.6s11,28,14,31s-6,0-6,0s-8-6.9-12.4-19.9c-2.3-6.9-0.8-15.5-0.8-15.5
		l16.4-5.2L225.8,272.9z"/>
	<path class="st5" d="M197.5,304.5c0,0,4-34,0-53c-2.4-11.4-2.6-11.5-2.6-11.3c0,0,8.6-4.4,10.1-17c0.4-3.3,0.5,0,1.2,2.4
		c3.4,11.1,2.2,42.9,2.2,42.9v37L197.5,304.5z"/>
	<circle cx="104" cy="254" r="1.5"/>
	<circle cx="115.5" cy="258.5" r="1.5"/>
	<circle cx="129.5" cy="261.5" r="1.5"/>
	<circle cx="146.5" cy="262.5" r="1.5"/>
	<circle cx="164.5" cy="260.5" r="1.5"/>
	<circle cx="180.5" cy="255.5" r="1.5"/>
	<circle cx="193.5" cy="248.5" r="1.5"/>
	<circle cx="202.5" cy="241.5" r="1.5"/>
	<g>
		<path class="st3" d="M139.5,181.5l1,39c0,0,0,7,10,7s11-10,11-10c-1.3-5.3-2.3-10.6-3-16c-1-8,0-20,0-20H139.5z"/>
		<path d="M150.5,228c-10.4,0-10.5-7.4-10.5-7.5l-1-39.5H159l0,0.5c0,0.1-1,12,0,19.9c0.7,5.3,1.7,10.7,3,15.9l0,0.1l0,0.1
			C162,217.7,160.8,228,150.5,228z M140,182l1,38.5c0,0.3,0.1,6.5,9.5,6.5c9.1,0,10.4-8.5,10.5-9.5c-1.3-5.2-2.3-10.6-3-16
			c-0.9-7-0.2-17.1,0-19.6H140z"/>
	</g>
	<path d="M148.6,188.5c-2.4,0-5.4-0.2-9-0.5l0.1-1c13.1,1.3,16.5-0.3,17.4-1c0.5-0.3,0.7-1.3,0.7-1.3l0.7,0.7c0,0.1,0,0.6-0.6,1.2
		C157,187.6,154.5,188.5,148.6,188.5z"/>
	<path d="M151.8,201c-2.6,0-6.3-0.5-11.5-2l-0.2-1.1c10.7,3.1,15,2,16.4,1c1.2-0.8,1.1-2.4,1.1-2.4l0.9,1c0,0,0,1.2-1.3,2.2
		C156.3,200.4,154.6,201,151.8,201z"/>
	<path d="M151,214.8c-2.8,0-6.5-0.5-11.2-1.8l0.3-1c16.9,4.8,19.4-1.6,19.4-1.7l0.9,0.3C160.4,210.9,159,214.8,151,214.8z"/>
	<path class="st5" d="M151.5,183.5c-1.2,3.2-1.2,6.8,0,10c2,5,5,18,4,24c-0.5,3.3-1.3,6.6-2.4,9.7c0,0,0.5-0.6,1.5-0.8
		c1.9-0.6,7.6-5.2,6.9-8.9c-1-5-2.4-8.5-3.2-17.8c-0.5-6.1-0.4-12.2,0.2-18.2h-6.4L151.5,183.5z"/>
</g>
</svg>
